Georama-Light.ufo
<glyph name="exclam" format="2">
  <advance width="217.44"/>
  <unicode hex="0021"/>
  <outline>
    <contour>
      <point x="81.72000000000001" y="263.0" type="line"/>
      <point x="136.04" y="263.0" type="line"/>
      <point x="139.56" y="740.0" type="line"/>
      <point x="78.56" y="740.0" type="line"/>
    </contour>
    <contour>
      <point x="72.36" y="34.68" type="curve" smooth="yes"/>
      <point x="72.36" y="6.5200000000000005"/>
      <point x="80.44000000000001" y="-2.08"/>
      <point x="108.72" y="-2.08" type="curve" smooth="yes"/>
      <point x="137.8" y="-2.08"/>
      <point x="145.08" y="6.5200000000000005"/>
      <point x="145.08" y="34.68" type="curve" smooth="yes"/>
      <point x="145.08" y="63.04"/>
      <point x="137.8" y="71.64"/>
      <point x="108.72" y="71.64" type="curve" smooth="yes"/>
      <point x="79.64" y="71.64"/>
      <point x="72.36" y="63.04"/>
    </contour>
  </outline>
</glyph>
<glyph name="numbersign" format="2">
  <advance width="585.28"/>
  <unicode hex="0023"/>
  <outline>
    <contour>
      <point x="85.36" y="463.96" type="line"/>
      <point x="183.07999999999998" y="463.96" type="line"/>
      <point x="141.24" y="230.35999999999999" type="line"/>
      <point x="49.92" y="230.35999999999999" type="line"/>
      <point x="49.92" y="182.96" type="line"/>
      <point x="134.35999999999999" y="182.96" type="line"/>
      <point x="103.04" y="0.0" type="line"/>
      <point x="158.83999999999997" y="0.0" type="line"/>
      <point x="190.16" y="182.96" type="line"/>
      <point x="341.08000000000004" y="182.96" type="line"/>
      <point x="309.76" y="0.0" type="line"/>
      <point x="365.56" y="0.0" type="line"/>
      <point x="396.88" y="182.96" type="line"/>
      <point x="500.0" y="182.96" type="line"/>
      <point x="500.0" y="230.35999999999999" type="line"/>
      <point x="403.76" y="230.35999999999999" type="line"/>
      <point x="445.6" y="463.96" type="line"/>
      <point x="535.44" y="463.96" type="line"/>
      <point x="535.44" y="511.44" type="line"/>
      <point x="452.56" y="511.44" type="line"/>
      <point x="485.84000000000003" y="700.0" type="line"/>
      <point x="430.04" y="700.0" type="line"/>
      <point x="396.76" y="511.44" type="line"/>
      <point x="245.84" y="511.44" type="line"/>
      <point x="279.12000000000006" y="700.0" type="line"/>
      <point x="223.32" y="700.0" type="line"/>
      <point x="190.04000000000002" y="511.44" type="line"/>
      <point x="85.36" y="511.44" type="line"/>
    </contour>
    <contour>
      <point x="238.88" y="463.96" type="line"/>
      <point x="389.8" y="463.96" type="line"/>
      <point x="347.96" y="230.35999999999999" type="line"/>
      <point x="197.04000000000002" y="230.35999999999999" type="line"/>
    </contour>
  </outline>
</glyph>
<glyph name="dollar" format="2">
  <advance width="585.28"/>
  <unicode hex="0024"/>
  <outline>
    <contour>
      <point x="280.32" y="-10.0" type="curve" smooth="yes"/>
      <point x="435.28000000000003" y="-10.96"/>
      <point x="523.72" y="44.8"/>
      <point x="523.72" y="160.32" type="curve" smooth="yes"/>
      <point x="523.72" y="268.59999999999997"/>
      <point x="454.11999999999995" y="324.56"/>
      <point x="328.68" y="372.44" type="curve" smooth="yes"/>
      <point x="211.48" y="417.64000000000004"/>
      <point x="147.56" y="463.43999999999994"/>
      <point x="147.56" y="544.5600000000001" type="curve" smooth="yes"/>
      <point x="147.56" y="615.96"/>
      <point x="206.84000000000003" y="656.8"/>
      <point x="312.16" y="656.8" type="curve" smooth="yes"/>
      <point x="365.16" y="656.8"/>
      <point x="432.12000000000006" y="645.4799999999999"/>
      <point x="481.19999999999993" y="629.4" type="curve"/>
      <point x="494.72" y="680.1600000000001" type="line"/>
      <point x="443.44000000000005" y="698.0"/>
      <point x="370.04" y="710.0"/>
      <point x="307.8" y="710.0" type="curve" smooth="yes"/>
      <point x="167.48000000000005" y="709.36"/>
      <point x="86.08" y="649.28"/>
      <point x="86.08" y="541.84" type="curve" smooth="yes"/>
      <point x="86.08" y="434.59999999999997"/>
      <point x="154.92000000000002" y="375.72"/>
      <point x="275.52" y="327.59999999999997" type="curve" smooth="yes"/>
      <point x="396.23999999999995" y="280.28"/>
      <point x="462.48" y="235.76"/>
      <point x="462.48" y="155.64000000000001" type="curve" smooth="yes"/>
      <point x="462.48" y="82.12"/>
      <point x="404.92" y="42.31999999999999"/>
      <point x="288.48" y="42.31999999999999" type="curve" smooth="yes"/>
      <point x="225.52" y="42.31999999999999"/>
      <point x="139.28000000000003" y="57.12"/>
      <point x="74.96000000000001" y="79.47999999999999" type="curve"/>
      <point x="61.720000000000006" y="28.28" type="line"/>
      <point x="123.36" y="5.960000000000002"/>
      <point x="212.88000000000002" y="-9.68"/>
    </contour>
    <contour>
      <point x="277.88" y="-105.0" type="line"/>
      <point x="329.35999999999996" y="-105.0" type="line"/>
      <point x="329.35999999999996" y="2.8000000000000003" type="line"/>
      <point x="277.88" y="-1.5199999999999998" type="line"/>
    </contour>
    <contour>
      <point x="277.88" y="699.0799999999999" type="line"/>
      <point x="329.35999999999996" y="702.12" type="line"/>
      <point x="329.35999999999996" y="804.76" type="line"/>
      <point x="277.88" y="804.76" type="line"/>
    </contour>
  </outline>
</glyph>
<glyph name="ampersand" format="2">
  <advance width="637.9200000000001"/>
  <unicode hex="0026"/>
  <outline>
    <contour>
      <point x="568.48" y="-10.32" type="line"/>
      <point x="634.5600000000001" y="0.3600000000000001" type="line"/>
      <point x="227.56000000000003" y="410.31999999999994" type="line" smooth="yes"/>
      <point x="183.48" y="458.24"/>
      <point x="165.52" y="500.8399999999999"/>
      <point x="165.52" y="544.9200000000001" type="curve" smooth="yes"/>
      <point x="165.52" y="618.28"/>
      <point x="209.35999999999999" y="658.8000000000001"/>
      <point x="297.48" y="658.8000000000001" type="curve" smooth="yes"/>
      <point x="379.03999999999996" y="658.8000000000001"/>
      <point x="420.4" y="619.4399999999999"/>
      <point x="420.4" y="549.3600000000001" type="curve" smooth="yes"/>
      <point x="420.4" y="496.03999999999996"/>
      <point x="401.44" y="458.6"/>
      <point x="354.36" y="433.71999999999997" type="curve"/>
      <point x="380.67999999999995" y="402.76000000000005" type="line"/>
      <point x="449.15999999999997" y="437.1600000000001"/>
      <point x="476.4" y="490.28"/>
      <point x="476.4" y="558.9599999999999" type="curve" smooth="yes"/>
      <point x="476.4" y="656.8799999999999"/>
      <point x="414.88000000000005" y="710.0"/>
      <point x="295.87999999999994" y="710.0" type="curve" smooth="yes"/>
      <point x="164.8" y="710.0"/>
      <point x="103.11999999999999" y="648.84"/>
      <point x="103.11999999999999" y="544.1200000000001" type="curve" smooth="yes"/>
      <point x="103.11999999999999" y="489.08"/>
      <point x="124.75999999999999" y="435.0"/>
      <point x="172.64000000000004" y="380.52" type="curve" smooth="yes"/>
    </contour>
    <contour>
      <point x="273.32" y="-10.0" type="curve" smooth="yes"/>
      <point x="362.24" y="-10.0"/>
      <point x="434.5199999999999" y="22.96"/>
      <point x="484.4800000000001" y="84.08" type="curve"/>
      <point x="452.8" y="122.64" type="line"/>
      <point x="413.76" y="69.60000000000001"/>
      <point x="359.24000000000007" y="39.199999999999996"/>
      <point x="278.9200000000001" y="39.199999999999996" type="curve" smooth="yes"/>
      <point x="165.8" y="39.199999999999996"/>
      <point x="97.60000000000001" y="100.44"/>
      <point x="97.60000000000001" y="192.56" type="curve" smooth="yes"/>
      <point x="97.60000000000001" y="271.32"/>
      <point x="132.48" y="320.56"/>
      <point x="205.16" y="363.56" type="curve"/>
      <point x="174.64" y="398.8" type="line"/>
      <point x="82.03999999999999" y="351.40000000000003"/>
      <point x="38.0" y="285.12"/>
      <point x="38.0" y="187.36" type="curve" smooth="yes"/>
      <point x="38.0" y="68.24"/>
      <point x="124.44000000000001" y="-10.0"/>
    </contour>
    <contour>
      <point x="517.0400000000001" y="108.16" type="line"/>
      <point x="555.32" y="164.72"/>
      <point x="576.32" y="236.04000000000002"/>
      <point x="576.32" y="315.48" type="curve" smooth="yes"/>
      <point x="576.32" y="338.2"/>
      <point x="574.1999999999999" y="355.28000000000003"/>
      <point x="570.0" y="374.23999999999995" type="curve"/>
      <point x="518.2" y="370.67999999999995" type="line"/>
      <point x="522.4" y="352.52"/>
      <point x="523.88" y="337.08"/>
      <point x="523.4800000000001" y="318.68000000000006" type="curve" smooth="yes"/>
      <point x="523.0800000000002" y="252.44000000000003"/>
      <point x="507.96" y="195.28"/>
      <point x="479.79999999999995" y="153.23999999999998" type="curve"/>
    </contour>
  </outline>
</glyph>
<glyph name="quotesingle" format="2">
  <advance width="162.36"/>
  <unicode hex="0027"/>
  <outline>
    <contour>
      <point x="58.0" y="427.0" type="line"/>
      <point x="104.0" y="427.0" type="line"/>
      <point x="109.88" y="700.0" type="line"/>
      <point x="52.480000000000004" y="700.0" type="line"/>
    </contour>
  </outline>
</glyph>
<glyph name="parenleft" format="2">
  <advance width="299.88"/>
  <unicode hex="0028"/>
  <outline>
    <contour>
      <point x="79.60000000000001" y="265.0" type="curve" smooth="yes"/>
      <point x="79.60000000000001" y="4.480000000000002"/>
      <point x="145.12" y="-190.6"/>
      <point x="282.59999999999997" y="-220.48000000000002" type="curve"/>
      <point x="282.59999999999997" y="-169.67999999999998" type="line"/>
      <point x="182.4" y="-134.88"/>
      <point x="132.72000000000003" y="22.96"/>
      <point x="132.72000000000003" y="265.0" type="curve" smooth="yes"/>
      <point x="132.72000000000003" y="507.04"/>
      <point x="182.4" y="664.8800000000001"/>
      <point x="282.59999999999997" y="699.6800000000001" type="curve"/>
      <point x="282.59999999999997" y="750.48" type="line"/>
      <point x="145.12" y="720.6"/>
      <point x="79.60000000000001" y="525.52"/>
    </contour>
  </outline>
</glyph>
<glyph name="parenright" format="2">
  <advance width="299.88"/>
  <unicode hex="0029"/>
  <outline>
    <contour>
      <point x="17.28" y="-169.67999999999998" type="curve"/>
      <point x="17.28" y="-220.48000000000002" type="line"/>
      <point x="154.76000000000002" y="-190.6"/>
      <point x="220.28000000000003" y="4.480000000000002"/>
      <point x="220.28000000000003" y="265.0" type="curve" smooth="yes"/>
      <point x="220.28000000000003" y="525.52"/>
      <point x="154.76000000000002" y="720.6"/>
      <point x="17.28" y="750.48" type="curve"/>
      <point x="17.28" y="699.6800000000001" type="line"/>
      <point x="117.48" y="664.8800000000001"/>
      <point x="167.16" y="507.04"/>
      <point x="167.16" y="265.0" type="curve" smooth="yes"/>
      <point x="167.16" y="22.96"/>
      <point x="117.48" y="-134.88"/>
    </contour>
  </outline>
</glyph>
<glyph name="asterisk" format="2">
  <advance width="317.28"/>
  <unicode hex="002A"/>
  <outline>
    <contour>
      <point x="79.64" y="364.47999999999996" type="line"/>
      <point x="158.96" y="477.72" type="line"/>
      <point x="237.00000000000003" y="364.16" type="line"/>
      <point x="263.88" y="382.64" type="line"/>
      <point x="189.55999999999997" y="502.32000000000005" type="line"/>
      <point x="311.28000000000003" y="552.5999999999999" type="line"/>
      <point x="300.44" y="582.96" type="line"/>
      <point x="178.64" y="539.9200000000001" type="line"/>
      <point x="176.12" y="682.72" type="line"/>
      <point x="141.8" y="682.72" type="line"/>
      <point x="139.28" y="539.9200000000001" type="line"/>
      <point x="16.840000000000003" y="582.96" type="line"/>
      <point x="6.0" y="552.5999999999999" type="line"/>
      <point x="128.36" y="502.32000000000005" type="line"/>
      <point x="52.440000000000005" y="383.28" type="line"/>
    </contour>
  </outline>
</glyph>
<glyph name="plus" format="2">
  <advance width="469.76"/>
  <unicode hex="002B"/>
  <outline>
    <contour>
      <point x="207.44" y="84.12" type="line"/>
      <point x="262.24" y="84.12" type="line"/>
      <point x="262.24" y="270.59999999999997" type="line"/>
      <point x="421.03999999999996" y="270.59999999999997" type="line"/>
      <point x="421.03999999999996" y="322.2" type="line"/>
      <point x="262.24" y="322.2" type="line"/>
      <point x="262.24" y="508.6" type="line"/>
      <point x="207.44" y="508.6" type="line"/>
      <point x="207.44" y="322.2" type="line"/>
      <point x="48.720000000000006" y="322.2" type="line"/>
      <point x="48.720000000000006" y="270.59999999999997" type="line"/>
      <point x="207.44" y="270.59999999999997" type="line"/>
    </contour>
  </outline>
</glyph>
<glyph name="comma" format="2">
  <advance width="169.12"/>
  <unicode hex="002C"/>
  <outline>
    <contour>
      <point x="55.96" y="47.48" type="line"/>
      <point x="63.400000000000006" y="24.800000000000004"/>
      <point x="67.32000000000001" y="0.8000000000000007"/>
      <point x="67.32000000000001" y="-18.04" type="curve" smooth="yes"/>
      <point x="67.32000000000001" y="-78.0"/>
      <point x="44.92" y="-144.39999999999998"/>
      <point x="-3.039999999999999" y="-179.88" type="curve"/>
      <point x="39.080000000000005" y="-199.16" type="line"/>
      <point x="100.2" y="-157.24"/>
      <point x="125.56" y="-80.6"/>
      <point x="125.56" y="-17.36" type="curve" smooth="yes"/>
      <point x="125.56" y="8.04"/>
      <point x="121.16000000000001" y="32.28"/>
      <point x="113.04" y="53.92" type="curve"/>
    </contour>
  </outline>
</glyph>
<glyph name="hyphen" format="2">
  <advance width="305.56"/>
  <unicode hex="002D"/>
  <outline>
    <contour>
      <point x="34.84" y="250.8" type="line"/>
      <point x="270.71999999999997" y="250.8" type="line"/>
      <point x="270.71999999999997" y="304.32000000000005" type="line"/>
      <point x="34.84" y="304.32000000000005" type="line"/>
    </contour>
  </outline>
</glyph>
<glyph name="period" format="2">
  <advance width="170.4"/>
  <unicode hex="002E"/>
  <outline>
    <contour>
      <point x="49.00000000000001" y="35.04" type="curve" smooth="yes"/>
      <point x="49.00000000000001" y="6.88"/>
      <point x="57.080000000000005" y="-1.7200000000000002"/>
      <point x="85.36" y="-1.7200000000000002" type="curve" smooth="yes"/>
      <point x="114.44000000000001" y="-1.7200000000000002"/>
      <point x="121.72000000000001" y="6.88"/>
      <point x="121.72000000000001" y="35.04" type="curve" smooth="yes"/>
      <point x="121.72000000000001" y="63.400000000000006"/>
      <point x="114.44000000000001" y="72.00000000000001"/>
      <point x="85.36" y="72.00000000000001" type="curve" smooth="yes"/>
      <point x="56.28000000000001" y="72.00000000000001"/>
      <point x="49.00000000000001" y="63.400000000000006"/>
    </contour>
  </outline>
</glyph>
<glyph name="slash" format="2">
  <advance width="331.04"/>
  <unicode hex="002F"/>
  <outline>
    <contour>
      <point x="3.76" y="-210.0" type="line"/>
      <point x="55.800000000000004" y="-210.0" type="line"/>
      <point x="327.28" y="740.0" type="line"/>
      <point x="275.12" y="740.0" type="line"/>
    </contour>
  </outline>
</glyph>
<glyph name="zero" format="2">
  <advance width="585.28"/>
  <unicode hex="0030"/>
  <outline>
    <contour>
      <point x="29.240000000000002" y="350.0" type="curve" smooth="yes"/>
      <point x="29.240000000000002" y="71.27999999999999"/>
      <point x="139.64000000000001" y="-10.0"/>
      <point x="292.64" y="-10.0" type="curve" smooth="yes"/>
      <point x="445.44" y="-10.0"/>
      <point x="556.0400000000001" y="71.75999999999999"/>
      <point x="556.0400000000001" y="350.0" type="curve" smooth="yes"/>
      <point x="556.0400000000001" y="628.84"/>
      <point x="447.24" y="710.0"/>
      <point x="292.64" y="710.0" type="curve" smooth="yes"/>
      <point x="139.28000000000003" y="710.0"/>
      <point x="29.240000000000002" y="629.8"/>
    </contour>
    <contour>
      <point x="91.76" y="348.44" type="curve" smooth="yes"/>
      <point x="91.76" y="594.96"/>
      <point x="178.68" y="658.3999999999999"/>
      <point x="292.64" y="658.3999999999999" type="curve" smooth="yes"/>
      <point x="406.76" y="658.3999999999999"/>
      <point x="493.68" y="595.08"/>
      <point x="493.68" y="348.44" type="curve" smooth="yes"/>
      <point x="493.68" y="106.24"/>
      <point x="407.12" y="41.6"/>
      <point x="292.64" y="41.6" type="curve" smooth="yes"/>
      <point x="178.32000000000002" y="41.6"/>
      <point x="91.76" y="106.11999999999999"/>
    </contour>
  </outline>
</glyph>
<glyph name="one" format="2">
  <advance width="585.28"/>
  <unicode hex="0031"/>
  <outline>
    <contour>
      <point x="57.76" y="0.0" type="line"/>
      <point x="559.24" y="0.0" type="line"/>
      <point x="559.24" y="52.0" type="line"/>
      <point x="358.84000000000003" y="52.0" type="line"/>
      <point x="358.84000000000003" y="703.2" type="line"/>
      <point x="326.4" y="703.2" type="line"/>
      <point x="45.2" y="559.76" type="line"/>
      <point x="62.440000000000005" y="508.67999999999995" type="line"/>
      <point x="297.08000000000004" y="629.04" type="line"/>
      <point x="297.08000000000004" y="52.0" type="line"/>
      <point x="57.76" y="52.0" type="line"/>
    </contour>
  </outline>
</glyph>
<glyph name="two" format="2">
  <advance width="586.0"/>
  <unicode hex="0032"/>
  <outline>
    <contour>
      <point x="54.4" y="44.2" type="curve"/>
      <point x="58.6" y="0.0" type="line"/>
      <point x="541.5999999999999" y="0.0" type="line"/>
      <point x="541.5999999999999" y="52.4" type="line"/>
      <point x="142.6" y="52.4" type="line"/>
      <point x="418.80000000000007" y="302.4"/>
      <point x="471.4" y="396.8"/>
      <point x="471.4" y="508.4000000000001" type="curve" smooth="yes"/>
      <point x="471.4" y="638.0000000000001"/>
      <point x="396.0" y="710.0"/>
      <point x="268.4" y="710.0" type="curve" smooth="yes"/>
      <point x="195.79999999999998" y="710.0"/>
      <point x="123.00000000000001" y="689.6"/>
      <point x="66.0" y="649.1999999999999" type="curve"/>
      <point x="88.2" y="598.8000000000001" type="line"/>
      <point x="140.39999999999998" y="633.1999999999999"/>
      <point x="199.0" y="649.8"/>
      <point x="256.8" y="649.8" type="curve" smooth="yes"/>
      <point x="349.8" y="649.8"/>
      <point x="406.0" y="601.0000000000001"/>
      <point x="406.0" y="500.0" type="curve" smooth="yes"/>
      <point x="406.0" y="396.0"/>
      <point x="345.79999999999995" y="303.0"/>
    </contour>
  </outline>
</glyph>
<glyph name="three" format="2">
  <advance width="586.0"/>
  <unicode hex="0033"/>
  <outline>
    <contour>
      <point x="26.0" y="51.8" type="line"/>
      <point x="93.6" y="9.4"/>
      <point x="160.6" y="-10.0"/>
      <point x="258.2" y="-10.0" type="curve" smooth="yes"/>
      <point x="427.00000000000006" y="-10.0"/>
      <point x="527.6" y="69.0"/>
      <point x="527.6" y="203.79999999999998" type="curve" smooth="yes"/>
      <point x="527.6" y="292.2"/>
      <point x="476.6" y="355.2"/>
      <point x="379.59999999999997" y="370.0" type="curve"/>
      <point x="452.6" y="391.8"/>
      <point x="493.4" y="450.0"/>
      <point x="493.4" y="530.4000000000001" type="curve" smooth="yes"/>
      <point x="493.4" y="641.6"/>
      <point x="413.6" y="710.0"/>
      <point x="267.00000000000006" y="710.0" type="curve" smooth="yes"/>
      <point x="188.20000000000002" y="710.0"/>
      <point x="114.8" y="694.0"/>
      <point x="58.0" y="666.6" type="curve"/>
      <point x="75.4" y="618.8" type="line"/>
      <point x="133.20000000000002" y="642.8"/>
      <point x="196.0" y="654.4"/>
      <point x="257.8" y="654.4" type="curve" smooth="yes"/>
      <point x="373.2" y="654.4"/>
      <point x="432.19999999999993" y="603.1999999999999"/>
      <point x="432.19999999999993" y="520.0" type="curve" smooth="yes"/>
      <point x="432.19999999999993" y="440.0"/>
      <point x="379.6" y="389.4"/>
      <point x="285.40000000000003" y="389.4" type="curve" smooth="yes"/>
      <point x="159.79999999999998" y="389.4" type="line"/>
      <point x="159.79999999999998" y="340.6" type="line"/>
      <point x="273.59999999999997" y="340.6" type="line" smooth="yes"/>
      <point x="399.6" y="340.6"/>
      <point x="465.20000000000005" y="298.4"/>
      <point x="465.20000000000005" y="207.0" type="curve" smooth="yes"/>
      <point x="465.20000000000005" y="103.6"/>
      <point x="388.0" y="43.6"/>
      <point x="253.8" y="43.6" type="curve" smooth="yes"/>
      <point x="168.8" y="43.6"/>
      <point x="107.80000000000001" y="61.0"/>
      <point x="47.199999999999996" y="96.2" type="curve"/>
    </contour>
  </outline>
</glyph>
<glyph name="four" format="2">
  <advance width="586.0"/>
  <unicode hex="0034"/>
  <outline>
    <contour>
      <point x="27.4" y="175.60000000000002" type="line"/>
      <point x="380.8" y="175.60000000000002" type="line"/>
      <point x="380.8" y="0.0" type="line"/>
      <point x="445.20000000000005" y="0.0" type="line"/>
      <point x="445.20000000000005" y="175.60000000000002" type="line"/>
      <point x="563.8000000000001" y="175.60000000000002" type="line"/>
      <point x="563.8000000000001" y="226.8" type="line"/>
      <point x="445.20000000000005" y="226.8" type="line"/>
      <point x="445.20000000000005" y="699.4" type="line"/>
      <point x="392.2" y="704.8000000000001" type="line"/>
      <point x="23.0" y="222.6" type="line"/>
    </contour>
    <contour>
      <point x="86.4" y="226.8" type="line"/>
      <point x="382.0" y="611.4" type="line"/>
      <point x="382.0" y="226.8" type="line"/>
    </contour>
  </outline>
</glyph>
<glyph name="five" format="2">
  <advance width="585.76"/>
  <unicode hex="0035"/>
  <outline>
    <contour>
      <point x="39.6" y="50.96" type="line"/>
      <point x="102.00000000000001" y="11.799999999999999"/>
      <point x="163.95999999999998" y="-9.76"/>
      <point x="265.64" y="-9.76" type="curve" smooth="yes"/>
      <point x="437.44" y="-9.76"/>
      <point x="534.92" y="67.44"/>
      <point x="534.92" y="210.39999999999998" type="curve" smooth="yes"/>
      <point x="534.92" y="341.03999999999996"/>
      <point x="467.16" y="402.76"/>
      <point x="327.68" y="402.76000000000005" type="curve" smooth="yes"/>
      <point x="137.68" y="402.76000000000005" type="line"/>
      <point x="162.68" y="644.4" type="line"/>
      <point x="497.16" y="644.4" type="line"/>
      <point x="497.16" y="700.0" type="line"/>
      <point x="114.4" y="700.0" type="line"/>
      <point x="78.4" y="363.76000000000005" type="line"/>
      <point x="88.39999999999999" y="352.76" type="line"/>
      <point x="301.71999999999997" y="352.76" type="line" smooth="yes"/>
      <point x="424.12" y="352.76"/>
      <point x="472.11999999999995" y="305.88"/>
      <point x="472.11999999999995" y="208.79999999999998" type="curve" smooth="yes"/>
      <point x="472.11999999999995" y="104.16"/>
      <point x="406.79999999999995" y="45.44"/>
      <point x="262.03999999999996" y="45.44" type="curve" smooth="yes"/>
      <point x="165.68" y="45.44"/>
      <point x="113.92000000000002" y="67.72"/>
      <point x="61.76" y="98.0" type="curve"/>
    </contour>
  </outline>
</glyph>
<glyph name="six" format="2">
  <advance width="585.76"/>
  <unicode hex="0036"/>
  <outline>
    <contour>
      <point x="304.76000000000005" y="-10.0" type="curve" smooth="yes"/>
      <point x="460.87999999999994" y="-10.0"/>
      <point x="549.1999999999999" y="73.96000000000001"/>
      <point x="549.1999999999999" y="216.76" type="curve" smooth="yes"/>
      <point x="549.1999999999999" y="349.20000000000005"/>
      <point x="468.71999999999997" y="423.36"/>
      <point x="331.68" y="423.36" type="curve" smooth="yes"/>
      <point x="233.79999999999998" y="423.36"/>
      <point x="135.16000000000003" y="382.68"/>
      <point x="86.80000000000001" y="324.23999999999995" type="curve"/>
      <point x="91.60000000000001" y="271.7199999999999" type="line"/>
      <point x="137.76" y="333.11999999999995"/>
      <point x="225.36" y="374.52"/>
      <point x="314.92" y="374.52" type="curve" smooth="yes"/>
      <point x="422.76" y="374.52"/>
      <point x="489.2" y="318.04"/>
      <point x="489.2" y="214.48000000000002" type="curve" smooth="yes"/>
      <point x="489.2" y="105.64"/>
      <point x="421.16" y="41.279999999999994"/>
      <point x="307.20000000000005" y="41.279999999999994" type="curve" smooth="yes"/>
      <point x="167.72000000000003" y="41.279999999999994"/>
      <point x="96.44" y="123.64"/>
      <point x="96.44" y="337.76" type="curve" smooth="yes"/>
      <point x="96.44" y="553.0"/>
      <point x="170.79999999999998" y="656.72"/>
      <point x="330.8" y="656.72" type="curve" smooth="yes"/>
      <point x="394.0" y="656.72"/>
      <point x="448.92" y="643.64"/>
      <point x="510.24000000000007" y="624.1999999999999" type="curve"/>
      <point x="527.8800000000001" y="673.2400000000001" type="line"/>
      <point x="466.40000000000003" y="696.7600000000001"/>
      <point x="399.32000000000005" y="710.0"/>
      <point x="324.72" y="710.0" type="curve" smooth="yes"/>
      <point x="133.00000000000003" y="710.0"/>
      <point x="33.24000000000001" y="594.68"/>
      <point x="33.24000000000001" y="334.12" type="curve" smooth="yes"/>
      <point x="33.24000000000001" y="90.87999999999998"/>
      <point x="123.04" y="-10.0"/>
    </contour>
  </outline>
</glyph>
<glyph name="seven" format="2">
  <advance width="585.76"/>
  <unicode hex="0037"/>
  <outline>
    <contour>
      <point x="203.72000000000003" y="0.0" type="curve"/>
      <point x="265.32000000000005" y="0.0" type="line"/>
      <point x="266.47999999999996" y="133.16"/>
      <point x="299.08000000000004" y="236.72000000000003"/>
      <point x="366.32" y="357.36" type="curve" smooth="yes"/>
      <point x="534.2000000000002" y="657.0" type="line"/>
      <point x="534.2000000000002" y="700.0" type="line"/>
      <point x="46.96000000000001" y="700.0" type="line"/>
      <point x="46.96000000000001" y="641.2" type="line"/>
      <point x="460.28000000000003" y="641.2" type="line"/>
      <point x="325.48" y="404.35999999999996" type="line" smooth="yes"/>
      <point x="233.00000000000003" y="241.56"/>
      <point x="203.72000000000003" y="139.08"/>
    </contour>
  </outline>
</glyph>
<glyph name="eight" format="2">
  <advance width="586.0"/>
  <unicode hex="0038"/>
  <outline>
    <contour>
      <point x="350.20000000000005" y="372.0" type="curve"/>
      <point x="395.4" y="352.8" type="line"/>
      <point x="495.6" y="401.80000000000007"/>
      <point x="535.0" y="463.6"/>
      <point x="535.0" y="538.6" type="curve" smooth="yes"/>
      <point x="535.0" y="650.9999999999999"/>
      <point x="452.99999999999994" y="710.0"/>
      <point x="298.0" y="710.0" type="curve" smooth="yes"/>
      <point x="143.2" y="710.0"/>
      <point x="53.8" y="647.1999999999999"/>
      <point x="53.8" y="535.2" type="curve" smooth="yes"/>
      <point x="53.8" y="275.8"/>
      <point x="498.0" y="406.6"/>
      <point x="498.0" y="177.79999999999998" type="curve" smooth="yes"/>
      <point x="498.0" y="87.0"/>
      <point x="426.0" y="39.2"/>
      <point x="293.4" y="39.2" type="curve" smooth="yes"/>
      <point x="159.0" y="39.2"/>
      <point x="85.4" y="93.2"/>
      <point x="85.4" y="188.4" type="curve" smooth="yes"/>
      <point x="85.4" y="269.0"/>
      <point x="128.2" y="325.0"/>
      <point x="223.39999999999998" y="364.40000000000003" type="curve"/>
      <point x="179.4" y="387.0" type="line"/>
      <point x="70.0" y="339.4"/>
      <point x="23.0" y="271.59999999999997"/>
      <point x="23.0" y="183.0" type="curve" smooth="yes"/>
      <point x="23.0" y="60.00000000000001"/>
      <point x="116.6" y="-10.0"/>
      <point x="288.99999999999994" y="-10.0" type="curve" smooth="yes"/>
      <point x="467.2" y="-10.0"/>
      <point x="562.4" y="56.199999999999996"/>
      <point x="562.4" y="182.4" type="curve" smooth="yes"/>
      <point x="562.4" y="453.4"/>
      <point x="113.80000000000001" y="326.6"/>
      <point x="113.80000000000001" y="537.1999999999999" type="curve" smooth="yes"/>
      <point x="113.80000000000001" y="615.1999999999999"/>
      <point x="179.20000000000002" y="659.8"/>
      <point x="295.6" y="659.8" type="curve" smooth="yes"/>
      <point x="415.4" y="659.8"/>
      <point x="476.2" y="617.4"/>
      <point x="476.2" y="530.8" type="curve" smooth="yes"/>
      <point x="476.2" y="464.59999999999997"/>
      <point x="445.4" y="417.8"/>
    </contour>
  </outline>
</glyph>
<glyph name="nine" format="2">
  <advance width="585.76"/>
  <unicode hex="0039"/>
  <outline>
    <contour>
      <point x="256.84" y="-10.0" type="curve" smooth="yes"/>
      <point x="448.56000000000006" y="-10.0"/>
      <point x="546.48" y="104.92"/>
      <point x="546.48" y="364.67999999999995" type="curve" smooth="yes"/>
      <point x="546.48" y="608.32"/>
      <point x="461.87999999999994" y="710.0"/>
      <point x="286.96000000000004" y="710.0" type="curve" smooth="yes"/>
      <point x="126.6" y="710.0"/>
      <point x="30.519999999999996" y="627.4799999999999"/>
      <point x="30.519999999999996" y="483.47999999999996" type="curve" smooth="yes"/>
      <point x="30.519999999999996" y="351.43999999999994"/>
      <point x="112.36000000000001" y="276.64"/>
      <point x="250.04" y="276.64" type="curve" smooth="yes"/>
      <point x="345.52" y="276.64"/>
      <point x="443.76" y="316.44"/>
      <point x="492.91999999999996" y="374.88" type="curve"/>
      <point x="492.67999999999995" y="433.00000000000006" type="line"/>
      <point x="443.84" y="364.52"/>
      <point x="353.96000000000004" y="325.47999999999996"/>
      <point x="264.79999999999995" y="325.47999999999996" type="curve" smooth="yes"/>
      <point x="161.12" y="325.47999999999996"/>
      <point x="90.12000000000002" y="383.0"/>
      <point x="90.12000000000002" y="486.16" type="curve" smooth="yes"/>
      <point x="90.12000000000002" y="596.1999999999999"/>
      <point x="166.32000000000002" y="658.72"/>
      <point x="284.52000000000004" y="658.72" type="curve" smooth="yes"/>
      <point x="417.2" y="658.72"/>
      <point x="483.28" y="576.3600000000001"/>
      <point x="483.28" y="362.23999999999995" type="curve" smooth="yes"/>
      <point x="483.28" y="147.0"/>
      <point x="410.36" y="43.279999999999994"/>
      <point x="250.76000000000002" y="43.279999999999994" type="curve" smooth="yes"/>
      <point x="187.16000000000003" y="43.279999999999994"/>
      <point x="130.8" y="56.36"/>
      <point x="69.47999999999999" y="75.79999999999998" type="curve"/>
      <point x="51.839999999999996" y="27.56" type="line"/>
      <point x="113.32000000000001" y="4.04"/>
      <point x="182.24000000000004" y="-10.0"/>
    </contour>
  </outline>
</glyph>
<glyph name="less" format="2">
  <advance width="469.76"/>
  <unicode hex="003C"/>
  <outline>
    <contour>
      <point x="423.08000000000004" y="79.44" type="line"/>
      <point x="423.08000000000004" y="132.07999999999998" type="line"/>
      <point x="102.68" y="294.56" type="line"/>
      <point x="423.08000000000004" y="458.19999999999993" type="line"/>
      <point x="423.08000000000004" y="509.59999999999997" type="line"/>
      <point x="46.68000000000001" y="320.12" type="line"/>
      <point x="46.68000000000001" y="268.76000000000005" type="line"/>
    </contour>
  </outline>
</glyph>
<glyph name="equal" format="2">
  <advance width="467.36"/>
  <unicode hex="003D"/>
  <outline>
    <contour>
      <point x="418.64" y="214.92000000000002" type="line"/>
      <point x="48.720000000000006" y="214.92000000000002" type="line"/>
      <point x="48.720000000000006" y="163.32000000000002" type="line"/>
      <point x="418.64" y="163.32000000000002" type="line"/>
    </contour>
    <contour>
      <point x="418.64" y="427.44" type="line"/>
      <point x="48.720000000000006" y="427.44" type="line"/>
      <point x="48.720000000000006" y="375.84" type="line"/>
      <point x="418.64" y="375.84" type="line"/>
    </contour>
  </outline>
</glyph>
<glyph name="greater" format="2">
  <advance width="469.76"/>
  <unicode hex="003E"/>
  <outline>
    <contour>
      <point x="423.08000000000004" y="268.28000000000003" type="line"/>
      <point x="423.08000000000004" y="319.64" type="line"/>
      <point x="46.68000000000001" y="509.59999999999997" type="line"/>
      <point x="46.68000000000001" y="456.92" type="line"/>
      <point x="367.08" y="294.08000000000004" type="line"/>
      <point x="46.68000000000001" y="131.12" type="line"/>
      <point x="46.68000000000001" y="79.44" type="line"/>
    </contour>
  </outline>
</glyph>
<glyph name="question" format="2">
  <advance width="429.84"/>
  <unicode hex="003F"/>
  <outline>
    <contour>
      <point x="169.44" y="262.04" type="line"/>
      <point x="223.88" y="262.04" type="line"/>
      <point x="224.04000000000002" y="332.88" type="line"/>
      <point x="346.88" y="393.11999999999995"/>
      <point x="405.16" y="448.20000000000005"/>
      <point x="405.16" y="559.0" type="curve" smooth="yes"/>
      <point x="405.16" y="696.2"/>
      <point x="307.88000000000005" y="749.88"/>
      <point x="208.6" y="749.88" type="curve" smooth="yes"/>
      <point x="139.64" y="749.88"/>
      <point x="64.4" y="726.76"/>
      <point x="10.16" y="685.88" type="curve"/>
      <point x="32.04" y="638.3600000000001" type="line"/>
      <point x="85.76" y="676.9200000000001"/>
      <point x="146.4" y="693.64"/>
      <point x="201.04" y="693.64" type="curve" smooth="yes"/>
      <point x="272.64000000000004" y="693.64"/>
      <point x="341.88" y="649.5600000000001"/>
      <point x="341.88" y="554.36" type="curve" smooth="yes"/>
      <point x="341.88" y="475.96"/>
      <point x="302.03999999999996" y="420.16"/>
      <point x="168.4" y="362.24" type="curve"/>
    </contour>
    <contour>
      <point x="162.0" y="34.68" type="curve" smooth="yes"/>
      <point x="162.0" y="6.5200000000000005"/>
      <point x="170.92" y="-2.08"/>
      <point x="198.84" y="-2.08" type="curve" smooth="yes"/>
      <point x="227.32" y="-2.08"/>
      <point x="235.2" y="6.5200000000000005"/>
      <point x="235.2" y="34.68" type="curve" smooth="yes"/>
      <point x="235.2" y="63.04"/>
      <point x="227.32" y="71.64"/>
      <point x="198.84" y="71.64" type="curve" smooth="yes"/>
      <point x="169.64000000000001" y="71.64"/>
      <point x="162.0" y="63.04"/>
    </contour>
  </outline>
</glyph>
<glyph name="at" format="2">
  <advance width="743.96"/>
  <unicode hex="0040"/>
  <outline>
    <contour>
      <point x="367.71999999999997" y="-123.4" type="curve" smooth="yes"/>
      <point x="447.15999999999997" y="-123.4"/>
      <point x="523.48" y="-95.60000000000001"/>
      <point x="571.76" y="-62.80000000000001" type="curve"/>
      <point x="557.36" y="-32.52" type="line"/>
      <point x="509.68" y="-63.599999999999994"/>
      <point x="443.8" y="-86.67999999999999"/>
      <point x="370.11999999999995" y="-86.67999999999999" type="curve" smooth="yes"/>
      <point x="194.44" y="-86.67999999999999"/>
      <point x="84.96" y="12.480000000000004"/>
      <point x="84.96" y="268.24" type="curve" smooth="yes"/>
      <point x="84.96" y="500.08000000000004"/>
      <point x="175.8" y="674.8399999999999"/>
      <point x="381.92" y="674.8399999999999" type="curve" smooth="yes"/>
      <point x="580.5600000000001" y="674.8399999999999"/>
      <point x="661.8" y="559.12"/>
      <point x="661.8" y="343.92" type="curve" smooth="yes"/>
      <point x="661.8" y="210.52"/>
      <point x="631.0" y="102.28"/>
      <point x="577.6000000000001" y="102.28" type="curve" smooth="yes"/>
      <point x="539.6800000000001" y="102.28"/>
      <point x="514.0" y="131.32000000000002"/>
      <point x="520.44" y="250.32" type="curve" smooth="yes"/>
      <point x="535.52" y="507.67999999999995" type="line"/>
      <point x="485.56" y="523.96"/>
      <point x="438.15999999999997" y="533.5199999999999"/>
      <point x="395.72" y="533.5199999999999" type="curve" smooth="yes"/>
      <point x="258.36" y="533.5199999999999"/>
      <point x="197.96" y="406.84000000000003"/>
      <point x="197.96" y="266.64" type="curve" smooth="yes"/>
      <point x="197.96" y="122.16"/>
      <point x="247.60000000000002" y="64.32000000000001"/>
      <point x="321.52" y="64.32000000000001" type="curve" smooth="yes"/>
      <point x="395.88000000000005" y="64.32000000000001"/>
      <point x="445.68" y="121.60000000000001"/>
      <point x="473.56" y="221.32" type="curve"/>
      <point x="475.08" y="111.60000000000001"/>
      <point x="497.68000000000006" y="60.04"/>
      <point x="569.1999999999999" y="60.04" type="curve" smooth="yes"/>
      <point x="659.76" y="60.04"/>
      <point x="701.24" y="192.83999999999997"/>
      <point x="701.24" y="346.08" type="curve" smooth="yes"/>
      <point x="701.24" y="588.3199999999999"/>
      <point x="599.88" y="709.76"/>
      <point x="385.92" y="709.76" type="curve" smooth="yes"/>
      <point x="151.2" y="709.76"/>
      <point x="43.84" y="521.2"/>
      <point x="43.84" y="269.6" type="curve" smooth="yes"/>
      <point x="43.84" y="-9.04"/>
      <point x="167.68" y="-123.4"/>
    </contour>
    <contour>
      <point x="338.8" y="115.67999999999999" type="curve" smooth="yes"/>
      <point x="293.48" y="115.67999999999999"/>
      <point x="257.88" y="156.72"/>
      <point x="257.88" y="268.48" type="curve" smooth="yes"/>
      <point x="257.88" y="376.12"/>
      <point x="301.88" y="489.0799999999999"/>
      <point x="392.80000000000007" y="489.0799999999999" type="curve" smooth="yes"/>
      <point x="416.84000000000003" y="489.0799999999999"/>
      <point x="448.88" y="483.4"/>
      <point x="478.24000000000007" y="474.40000000000003" type="curve"/>
      <point x="471.4" y="379.4" type="line" smooth="yes"/>
      <point x="449.44" y="162.67999999999998"/>
      <point x="398.55999999999995" y="115.67999999999999"/>
    </contour>
  </outline>
</glyph>
<glyph name="A" format="2">
  <advance width="583.6399999999999"/>
  <unicode hex="0041"/>
  <anchor x="570.2800000000001" y="0.0" name="ogonek"/>
  <anchor x="290.91999999999996" y="0.0" name="bottom"/>
  <anchor x="292.35999999999996" y="700.0" name="top"/>
  <outline>
    <contour>
      <point x="13.52" y="0.0" type="line"/>
      <point x="78.8" y="0.0" type="line"/>
      <point x="145.56" y="195.23999999999998" type="line"/>
      <point x="435.35999999999996" y="195.23999999999998" type="line"/>
      <point x="502.28" y="0.0" type="line"/>
      <point x="570.2800000000001" y="0.0" type="line"/>
      <point x="325.44000000000005" y="708.0" type="line"/>
      <point x="258.08" y="708.0" type="line"/>
    </contour>
    <contour>
      <point x="160.4" y="250.11999999999998" type="line"/>
      <point x="290.6" y="638.6800000000001" type="line"/>
      <point x="420.76" y="250.11999999999998" type="line"/>
    </contour>
  </outline>
</glyph>
<glyph name="B" format="2">
  <advance width="602.6000000000001"/>
  <unicode hex="0042"/>
  <anchor x="300.3999999999999" y="700.0" name="top"/>
  <anchor x="300.3999999999999" y="0.0" name="bottom"/>
  <outline>
    <contour>
      <point x="74.75999999999999" y="-0.15999999999999964" type="line"/>
      <point x="186.20000000000002" y="-8.120000000000001"/>
      <point x="228.08000000000004" y="-10.0"/>
      <point x="307.24" y="-10.0" type="curve" smooth="yes"/>
      <point x="495.71999999999997" y="-10.0"/>
      <point x="568.7199999999999" y="49.63999999999999"/>
      <point x="568.7199999999999" y="191.32" type="curve" smooth="yes"/>
      <point x="568.7199999999999" y="285.68"/>
      <point x="515.04" y="350.32"/>
      <point x="425.47999999999996" y="368.6" type="curve"/>
      <point x="425.47999999999996" y="370.24" type="line"/>
      <point x="493.24" y="392.52"/>
      <point x="533.6800000000001" y="455.64"/>
      <point x="533.6800000000001" y="537.4399999999999" type="curve" smooth="yes"/>
      <point x="533.6800000000001" y="659.4"/>
      <point x="468.68" y="710.0"/>
      <point x="300.6" y="710.0" type="curve" smooth="yes"/>
      <point x="240.32000000000002" y="710.0"/>
      <point x="178.44" y="706.72"/>
      <point x="74.75999999999999" y="699.0400000000001" type="curve"/>
    </contour>
    <contour>
      <point x="137.96" y="383.03999999999996" type="line"/>
      <point x="137.96" y="650.56" type="line"/>
      <point x="222.48000000000002" y="656.52"/>
      <point x="234.88" y="657.52"/>
      <point x="293.52" y="657.52" type="curve" smooth="yes"/>
      <point x="423.68000000000006" y="657.52"/>
      <point x="473.68" y="617.04"/>
      <point x="473.68" y="523.44" type="curve" smooth="yes"/>
      <point x="473.68" y="441.36"/>
      <point x="421.84" y="383.03999999999996"/>
      <point x="341.44000000000005" y="383.03999999999996" type="curve" smooth="yes"/>
    </contour>
    <contour>
      <point x="137.96" y="49.68000000000001" type="curve"/>
      <point x="137.96" y="332.63999999999993" type="line"/>
      <point x="345.8" y="332.63999999999993" type="line" smooth="yes"/>
      <point x="448.48" y="332.63999999999993"/>
      <point x="504.32000000000005" y="281.15999999999997"/>
      <point x="504.32000000000005" y="193.2" type="curve" smooth="yes"/>
      <point x="504.32000000000005" y="84.88000000000001"/>
      <point x="450.16" y="42.6"/>
      <point x="301.56" y="42.6" type="curve" smooth="yes"/>
      <point x="259.24000000000007" y="42.6"/>
      <point x="225.96000000000004" y="44.480000000000004"/>
    </contour>
  </outline>
</glyph>
<glyph name="C" format="2">
  <advance width="585.68"/>
  <unicode hex="0043"/>
  <anchor x="333.96" y="700.0" name="top"/>
  <anchor x="332.96000000000004" y="0.0" name="bottom"/>
  <outline>
    <contour>
      <point x="46.839999999999996" y="337.28" type="curve" smooth="yes"/>
      <point x="46.839999999999996" y="79.44000000000001"/>
      <point x="152.20000000000002" y="-10.0"/>
      <point x="339.8" y="-10.0" type="curve" smooth="yes"/>
      <point x="420.88" y="-10.0"/>
      <point x="495.64" y="0.12000000000000105"/>
      <point x="555.8" y="18.96" type="curve"/>
      <point x="543.8800000000001" y="70.60000000000001" type="line"/>
      <point x="487.71999999999997" y="54.00000000000001"/>
      <point x="412.68" y="44.04"/>
      <point x="348.24" y="44.04" type="curve" smooth="yes"/>
      <point x="194.44" y="44.04"/>
      <point x="110.39999999999999" y="121.0"/>
      <point x="110.39999999999999" y="337.56" type="curve" smooth="yes"/>
      <point x="110.39999999999999" y="573.5200000000001"/>
      <point x="197.72" y="655.2"/>
      <point x="357.0" y="655.2" type="curve" smooth="yes"/>
      <point x="418.08000000000004" y="655.2"/>
      <point x="466.84" y="649.24"/>
      <point x="524.4399999999999" y="634.08" type="curve"/>
      <point x="537.4399999999999" y="685.8000000000001" type="line"/>
      <point x="477.9200000000001" y="703.32"/>
      <point x="425.52" y="710.0"/>
      <point x="352.08000000000004" y="710.0" type="curve" smooth="yes"/>
      <point x="153.08" y="710.0"/>
      <point x="46.839999999999996" y="603.16"/>
    </contour>
  </outline>
</glyph>
<glyph name="D" format="2">
  <advance width="650.2"/>
  <unicode hex="0044"/>
  <anchor x="315.64" y="700.0" name="top"/>
  <outline>
    <contour>
      <point x="295.64" y="-10.0" type="curve" smooth="yes"/>
      <point x="498.71999999999997" y="-10.0"/>
      <point x="603.24" y="98.55999999999999"/>
      <point x="603.24" y="347.68" type="curve" smooth="yes"/>
      <point x="603.24" y="602.8399999999999"/>
      <point x="508.15999999999997" y="710.0"/>
      <point x="287.76" y="710.0" type="curve" smooth="yes"/>
      <point x="220.0" y="710.0"/>
      <point x="154.12" y="707.36"/>
      <point x="74.75999999999999" y="701.4399999999999" type="curve"/>
      <point x="74.75999999999999" y="-2.9599999999999995" type="line"/>
      <point x="149.08" y="-6.6"/>
      <point x="227.0" y="-10.0"/>
    </contour>
    <contour>
      <point x="291.32000000000005" y="41.68" type="curve" smooth="yes"/>
      <point x="253.88000000000005" y="41.68"/>
      <point x="181.52000000000004" y="44.04"/>
      <point x="137.96" y="47.160000000000004" type="curve"/>
      <point x="137.96" y="652.4799999999999" type="line"/>
      <point x="186.23999999999998" y="655.44"/>
      <point x="248.60000000000002" y="657.5600000000001"/>
      <point x="285.59999999999997" y="657.5600000000001" type="curve" smooth="yes"/>
      <point x="460.96" y="657.5600000000001"/>
      <point x="537.84" y="574.24"/>
      <point x="537.84" y="347.52" type="curve" smooth="yes"/>
      <point x="537.84" y="128.07999999999998"/>
      <point x="456.0" y="41.68"/>
    </contour>
  </outline>
</glyph>
<glyph name="E" format="2">
  <advance width="547.0"/>
  <unicode hex="0045"/>
  <anchor x="519.5200000000001" y="0.0" name="ogonek"/>
  <anchor x="297.44000000000005" y="0.0" name="bottom"/>
  <anchor x="292.59999999999997" y="700.0" name="top"/>
  <outline>
    <contour>
      <point x="74.75999999999999" y="0.0" type="line"/>
      <point x="519.9200000000001" y="0.0" type="line"/>
      <point x="519.9200000000001" y="56.800000000000004" type="line"/>
      <point x="138.35999999999999" y="56.800000000000004" type="line"/>
      <point x="138.35999999999999" y="338.96000000000004" type="line"/>
      <point x="479.47999999999996" y="338.96000000000004" type="line"/>
      <point x="479.47999999999996" y="395.0" type="line"/>
      <point x="138.35999999999999" y="395.0" type="line"/>
      <point x="138.35999999999999" y="643.2" type="line"/>
      <point x="502.16" y="643.2" type="line"/>
      <point x="502.16" y="700.0" type="line"/>
      <point x="74.75999999999999" y="700.0" type="line"/>
    </contour>
  </outline>
</glyph>
<glyph name="F" format="2">
  <advance width="518.5600000000001"/>
  <unicode hex="0046"/>
  <outline>
    <contour>
      <point x="74.75999999999999" y="0.0" type="line"/>
      <point x="138.36" y="0.0" type="line"/>
      <point x="138.36" y="303.11999999999995" type="line"/>
      <point x="453.2" y="303.11999999999995" type="line"/>
      <point x="453.2" y="358.76" type="line"/>
      <point x="137.96" y="358.76" type="line"/>
      <point x="137.96" y="642.3999999999999" type="line"/>
      <point x="500.96" y="642.3999999999999" type="line"/>
      <point x="500.96" y="700.0" type="line"/>
      <point x="74.75999999999999" y="700.0" type="line"/>
    </contour>
  </outline>
</glyph>
<glyph name="G" format="2">
  <advance width="622.9599999999999"/>
  <unicode hex="0047"/>
  <anchor x="328.0" y="700.0" name="top"/>
  <anchor x="330.40000000000003" y="0.0" name="bottom"/>
  <outline>
    <contour>
      <point x="46.839999999999996" y="337.52" type="curve" smooth="yes"/>
      <point x="46.839999999999996" y="103.52000000000001"/>
      <point x="141.88" y="-10.0"/>
      <point x="327.88" y="-10.0" type="curve" smooth="yes"/>
      <point x="421.32" y="-10.0"/>
      <point x="506.48" y="3.04"/>
      <point x="563.88" y="28.0" type="curve"/>
      <point x="563.88" y="346.43999999999994" type="line"/>
      <point x="326.2" y="346.43999999999994" type="line"/>
      <point x="326.2" y="295.2" type="line"/>
      <point x="506.15999999999997" y="295.2" type="line"/>
      <point x="506.15999999999997" y="64.84" type="line"/>
      <point x="459.88" y="49.04"/>
      <point x="403.24" y="41.56"/>
      <point x="334.08" y="41.56" type="curve" smooth="yes"/>
      <point x="188.04000000000002" y="41.56"/>
      <point x="110.16000000000001" y="135.92"/>
      <point x="110.16000000000001" y="336.71999999999997" type="curve" smooth="yes"/>
      <point x="110.16000000000001" y="552.64"/>
      <point x="191.60000000000002" y="655.44"/>
      <point x="346.2" y="655.44" type="curve" smooth="yes"/>
      <point x="407.16" y="655.44"/>
      <point x="467.76000000000005" y="647.2400000000001"/>
      <point x="527.96" y="629.8000000000001" type="curve"/>
      <point x="540.24" y="681.1200000000001" type="line"/>
      <point x="481.28000000000003" y="700.2"/>
      <point x="415.03999999999996" y="710.0"/>
      <point x="341.88" y="710.0" type="curve" smooth="yes"/>
      <point x="148.20000000000002" y="710.0"/>
      <point x="46.839999999999996" y="587.72"/>
    </contour>
  </outline>
</glyph>
<glyph name="H" format="2">
  <advance width="672.7600000000001"/>
  <unicode hex="0048"/>
  <anchor x="336.6" y="700.0" name="top"/>
  <outline>
    <contour>
      <point x="74.72" y="0.0" type="line"/>
      <point x="137.32" y="0.0" type="line"/>
      <point x="137.32" y="276.72" type="line"/>
      <point x="535.44" y="276.72" type="line"/>
      <point x="535.44" y="0.0" type="line"/>
      <point x="598.04" y="0.0" type="line"/>
      <point x="598.04" y="700.0" type="line"/>
      <point x="535.44" y="700.0" type="line"/>
      <point x="535.44" y="333.64000000000004" type="line"/>
      <point x="137.32" y="333.64000000000004" type="line"/>
      <point x="137.32" y="700.0" type="line"/>
      <point x="74.72" y="700.0" type="line"/>
    </contour>
  </outline>
</glyph>
<glyph name="J" format="2">
  <advance width="455.16"/>
  <unicode hex="004A"/>
  <anchor x="224.72" y="700.0" name="top"/>
  <outline>
    <contour>
      <point x="12.64" y="17.52" type="line"/>
      <point x="67.92" y="-0.3199999999999992"/>
      <point x="134.8" y="-10.32"/>
      <point x="189.51999999999998" y="-10.32" type="curve" smooth="yes"/>
      <point x="331.48" y="-10.32"/>
      <point x="393.24" y="59.28"/>
      <point x="393.24" y="190.92" type="curve" smooth="yes"/>
      <point x="393.24" y="700.0" type="line"/>
      <point x="53.279999999999994" y="700.0" type="line"/>
      <point x="53.279999999999994" y="644.0" type="line"/>
      <point x="330.64000000000004" y="644.0" type="line"/>
      <point x="330.64000000000004" y="200.88" type="line" smooth="yes"/>
      <point x="330.64000000000004" y="87.32000000000001"/>
      <point x="276.15999999999997" y="44.24000000000001"/>
      <point x="175.56" y="44.24000000000001" type="curve" smooth="yes"/>
      <point x="132.28" y="44.24000000000001"/>
      <point x="75.44000000000001" y="52.68000000000001"/>
      <point x="25.48" y="68.0" type="curve"/>
    </contour>
  </outline>
</glyph>
<glyph name="K" format="2">
  <advance width="605.2"/>
  <unicode hex="004B"/>
  <anchor x="302.2" y="700.0" name="top"/>
  <anchor x="299.8" y="0.0" name="bottom"/>
  <outline>
    <contour>
      <point x="575.5999999999999" y="-10.0" type="curve" smooth="yes"/>
      <point x="580.2" y="-10.0"/>
      <point x="586.5999999999999" y="-10.0"/>
      <point x="593.8" y="-8.0" type="curve"/>
      <point x="593.8" y="56.0" type="line"/>
      <point x="589.4" y="55.4"/>
      <point x="584.6" y="55.4"/>
      <point x="581.2" y="55.4" type="curve" smooth="yes"/>
      <point x="539.0" y="56.0"/>
      <point x="505.6" y="74.80000000000001"/>
      <point x="418.2" y="160.79999999999998" type="curve" smooth="yes"/>
      <point x="138.2" y="436.8" type="line"/>
      <point x="138.2" y="700.0" type="line"/>
      <point x="75.0" y="700.0" type="line"/>
      <point x="75.0" y="0.0" type="line"/>
      <point x="138.2" y="0.0" type="line"/>
      <point x="138.2" y="355.0" type="line"/>
      <point x="394.8" y="99.6" type="line" smooth="yes"/>
      <point x="474.20000000000005" y="20.400000000000002"/>
      <point x="521.4" y="-10.0"/>
    </contour>
    <contour>
      <point x="245.2" y="303.8" type="line"/>
      <point x="355.0" y="379.4"/>
      <point x="499.0" y="504.8"/>
      <point x="569.0" y="680.4000000000001" type="curve"/>
      <point x="519.4000000000001" y="704.8000000000001" type="line"/>
      <point x="446.2" y="532.0"/>
      <point x="301.2" y="411.8"/>
      <point x="205.2" y="342.6" type="curve"/>
    </contour>
  </outline>
</glyph>
<glyph name="L" format="2">
  <advance width="496.6000000000001"/>
  <unicode hex="004C"/>
  <anchor x="248.51999999999998" y="350.0" name="center"/>
  <anchor x="106.08" y="700.0" name="top"/>
  <anchor x="319.8" y="700.0" name="topright"/>
  <anchor x="274.71999999999997" y="0.0" name="bottom"/>
  <outline>
    <contour>
      <point x="74.72" y="0.0" type="line"/>
      <point x="481.40000000000003" y="0.0" type="line"/>
      <point x="481.40000000000003" y="56.08" type="line"/>
      <point x="137.44" y="56.08" type="line"/>
      <point x="137.44" y="700.0" type="line"/>
      <point x="74.72" y="700.0" type="line"/>
    </contour>
  </outline>
</glyph>
<glyph name="M" format="2">
  <advance width="753.3599999999999"/>
  <unicode hex="004D"/>
  <outline>
    <contour>
      <point x="75.11999999999999" y="0.0" type="line"/>
      <point x="133.56" y="0.0" type="line"/>
      <point x="133.56" y="605.9200000000001" type="line"/>
      <point x="360.03999999999996" y="249.2" type="line"/>
      <point x="391.47999999999996" y="249.2" type="line"/>
      <point x="619.8000000000001" y="608.0799999999999" type="line"/>
      <point x="619.8000000000001" y="0.0" type="line"/>
      <point x="678.24" y="0.0" type="line"/>
      <point x="678.24" y="700.0" type="line"/>
      <point x="616.0" y="700.0" type="line"/>
      <point x="377.96" y="322.52000000000004" type="line"/>
      <point x="139.56" y="700.0" type="line"/>
      <point x="75.11999999999999" y="700.0" type="line"/>
    </contour>
  </outline>
</glyph>
<glyph name="N" format="2">
  <advance width="666.0"/>
  <unicode hex="004E"/>
  <anchor x="333.0" y="700.0" name="top"/>
  <anchor x="333.0" y="0.0" name="bottom"/>
  <outline>
    <contour>
      <point x="75.0" y="0.0" type="line"/>
      <point x="132.6" y="0.0" type="line"/>
      <point x="132.6" y="598.0" type="line"/>
      <point x="531.0000000000001" y="-0.8" type="line"/>
      <point x="591.0" y="-0.8" type="line"/>
      <point x="591.0" y="700.0" type="line"/>
      <point x="533.4000000000001" y="700.0" type="line"/>
      <point x="533.4000000000001" y="100.4" type="line"/>
      <point x="134.4" y="703.2" type="line"/>
      <point x="75.0" y="703.2" type="line"/>
    </contour>
  </outline>
</glyph>
<glyph name="O" format="2">
  <advance width="688.8"/>
  <unicode hex="004F"/>
  <anchor x="395.0" y="1.2000000000000002" name="ogonek"/>
  <anchor x="343.2" y="700.0" name="top"/>
  <anchor x="507.6" y="680.6" name="topright"/>
  <anchor x="343.4" y="0.0" name="bottom"/>
  <outline>
    <contour>
      <point x="343.2" y="41.8" type="curve" smooth="yes"/>
      <point x="223.20000000000002" y="41.8"/>
      <point x="111.0" y="103.80000000000001"/>
      <point x="111.0" y="349.2" type="curve" smooth="yes"/>
      <point x="111.0" y="600.2"/>
      <point x="222.8" y="658.6"/>
      <point x="343.2" y="658.6" type="curve" smooth="yes"/>
      <point x="465.0" y="658.6"/>
      <point x="577.0" y="600.6"/>
      <point x="577.0" y="349.4" type="curve" smooth="yes"/>
      <point x="577.0" y="100.2"/>
      <point x="465.0" y="41.8"/>
    </contour>
    <contour>
      <point x="343.4" y="-10.0" type="curve" smooth="yes"/>
      <point x="508.20000000000005" y="-10.0"/>
      <point x="641.4" y="63.2"/>
      <point x="641.4" y="351.6" type="curve" smooth="yes"/>
      <point x="641.4" y="636.4000000000001"/>
      <point x="506.0" y="710.0"/>
      <point x="343.2" y="710.0" type="curve" smooth="yes"/>
      <point x="179.79999999999998" y="710.0"/>
      <point x="47.4" y="635.4"/>
      <point x="47.4" y="349.4" type="curve" smooth="yes"/>
      <point x="47.4" y="68.6"/>
      <point x="181.6" y="-10.0"/>
    </contour>
  </outline>
</glyph>
<glyph name="P" format="2">
  <advance width="594.0"/>
  <unicode hex="0050"/>
  <outline>
    <contour>
      <point x="74.72" y="0.0" type="line"/>
      <point x="137.44" y="0.0" type="line"/>
      <point x="137.44" y="253.79999999999998" type="line"/>
      <point x="210.32" y="251.24"/>
      <point x="239.92000000000002" y="250.92000000000002"/>
      <point x="304.0" y="250.92000000000002" type="curve" smooth="yes"/>
      <point x="488.16" y="250.92000000000002"/>
      <point x="561.32" y="314.47999999999996"/>
      <point x="561.32" y="487.91999999999996" type="curve" smooth="yes"/>
      <point x="561.32" y="649.76"/>
      <point x="505.64" y="710.0"/>
      <point x="285.52000000000004" y="710.0" type="curve" smooth="yes"/>
      <point x="247.88" y="710.0"/>
      <point x="189.52" y="708.0400000000001"/>
      <point x="74.72" y="702.16" type="curve"/>
    </contour>
    <contour>
      <point x="137.56" y="652.6" type="line"/>
      <point x="221.44" y="657.28"/>
      <point x="255.11999999999998" y="658.4000000000001"/>
      <point x="289.6" y="658.4000000000001" type="curve" smooth="yes"/>
      <point x="457.68" y="658.4000000000001"/>
      <point x="498.04" y="609.64"/>
      <point x="498.04" y="487.84000000000003" type="curve" smooth="yes"/>
      <point x="498.04" y="353.08000000000004"/>
      <point x="449.32000000000005" y="303.36"/>
      <point x="289.24" y="303.36" type="curve" smooth="yes"/>
      <point x="231.28" y="303.36"/>
      <point x="199.0" y="304.40000000000003"/>
      <point x="137.56" y="306.4" type="curve"/>
    </contour>
  </outline>
</glyph>
<glyph name="Q" format="2">
  <advance width="688.92"/>
  <unicode hex="0051"/>
  <outline>
    <contour>
      <point x="398.08" y="12.16" type="curve"/>
      <point x="343.2" y="1.4800000000000002" type="line"/>
      <point x="380.23999999999995" y="-138.20000000000002"/>
      <point x="425.56" y="-203.24"/>
      <point x="506.6" y="-203.24" type="curve" smooth="yes"/>
      <point x="533.36" y="-203.24"/>
      <point x="564.64" y="-196.64"/>
      <point x="598.1600000000001" y="-182.52" type="curve"/>
      <point x="587.8" y="-130.88" type="line"/>
      <point x="561.88" y="-142.88000000000002"/>
      <point x="537.6" y="-148.24"/>
      <point x="516.6" y="-148.24" type="curve" smooth="yes"/>
      <point x="460.28" y="-148.24"/>
      <point x="427.8" y="-100.04"/>
    </contour>
    <component base="O"/>
  </outline>
</glyph>
<glyph name="R" format="2">
  <advance width="636.8"/>
  <unicode hex="0052"/>
  <anchor x="300.6" y="700.0" name="top"/>
  <anchor x="313.0" y="0.0" name="bottom"/>
  <outline>
    <contour>
      <point x="608.4" y="-10.0" type="curve" smooth="yes"/>
      <point x="617.0" y="-10.0"/>
      <point x="624.6" y="-8.0"/>
      <point x="630.2" y="-7.0" type="curve"/>
      <point x="628.6" y="53.2" type="line"/>
      <point x="624.6" y="52.60000000000001"/>
      <point x="616.0" y="51.6"/>
      <point x="613.6" y="51.6" type="curve" smooth="yes"/>
      <point x="564.1999999999999" y="51.6"/>
      <point x="491.0" y="113.80000000000001"/>
      <point x="391.2" y="300.4" type="curve"/>
      <point x="497.4" y="321.59999999999997"/>
      <point x="554.1999999999999" y="381.40000000000003"/>
      <point x="554.1999999999999" y="508.59999999999997" type="curve" smooth="yes"/>
      <point x="554.1999999999999" y="660.4"/>
      <point x="477.4" y="710.0"/>
      <point x="277.0" y="710.0" type="curve" smooth="yes"/>
      <point x="209.8" y="710.0"/>
      <point x="155.2" y="707.6"/>
      <point x="75.0" y="702.2" type="curve"/>
      <point x="75.0" y="0.0" type="line"/>
      <point x="138.20000000000002" y="0.0" type="line"/>
      <point x="138.20000000000002" y="285.6" type="line"/>
      <point x="184.6" y="284.0"/>
      <point x="231.8" y="283.40000000000003"/>
      <point x="275.6" y="283.40000000000003" type="curve" smooth="yes"/>
      <point x="291.59999999999997" y="283.40000000000003"/>
      <point x="313.4" y="284.0"/>
      <point x="329.4" y="285.0" type="curve"/>
      <point x="445.4" y="65.2"/>
      <point x="530.6" y="-10.0"/>
    </contour>
    <contour>
      <point x="285.8" y="337.4" type="curve" smooth="yes"/>
      <point x="238.0" y="337.4"/>
      <point x="192.2" y="338.40000000000003"/>
      <point x="138.20000000000002" y="340.40000000000003" type="curve"/>
      <point x="138.20000000000002" y="653.2" type="line"/>
      <point x="196.2" y="657.2"/>
      <point x="222.20000000000002" y="657.8"/>
      <point x="278.79999999999995" y="657.8" type="curve" smooth="yes"/>
      <point x="438.8" y="657.8"/>
      <point x="489.4" y="617.1999999999999"/>
      <point x="489.4" y="501.2" type="curve" smooth="yes"/>
      <point x="489.4" y="379.2"/>
      <point x="429.2" y="337.4"/>
    </contour>
  </outline>
</glyph>
<glyph name="S" format="2">
  <advance width="556.4"/>
  <unicode hex="0053"/>
  <anchor x="282.6" y="700.0" name="top"/>
  <anchor x="276.59999999999997" y="0.0" name="bottom"/>
  <outline>
    <contour>
      <point x="484.8" y="680.0" type="line"/>
      <point x="439.8" y="695.8000000000001"/>
      <point x="356.40000000000003" y="710.0"/>
      <point x="291.8" y="710.0" type="curve" smooth="yes"/>
      <point x="136.20000000000002" y="710.0"/>
      <point x="47.2" y="636.4"/>
      <point x="47.2" y="529.2" type="curve" smooth="yes"/>
      <point x="47.2" y="434.0"/>
      <point x="100.8" y="381.8"/>
      <point x="251.00000000000003" y="328.4" type="curve" smooth="yes"/>
      <point x="399.59999999999997" y="277.00000000000006"/>
      <point x="455.6" y="239.79999999999998"/>
      <point x="455.6" y="168.0" type="curve" smooth="yes"/>
      <point x="455.6" y="87.8"/>
      <point x="387.0" y="42.00000000000001"/>
      <point x="265.2" y="42.00000000000001" type="curve" smooth="yes"/>
      <point x="197.8" y="42.00000000000001"/>
      <point x="97.6" y="59.0"/>
      <point x="41.199999999999996" y="80.00000000000001" type="curve"/>
      <point x="26.0" y="29.400000000000002" type="line"/>
      <point x="81.6" y="8.2"/>
      <point x="191.2" y="-10.0"/>
      <point x="262.4" y="-10.0" type="curve" smooth="yes"/>
      <point x="426.40000000000003" y="-10.0"/>
      <point x="520.2" y="57.599999999999994"/>
      <point x="520.2" y="173.2" type="curve" smooth="yes"/>
      <point x="520.2" y="269.8"/>
      <point x="465.4" y="320.2"/>
      <point x="308.20000000000005" y="374.4" type="curve" smooth="yes"/>
      <point x="160.6" y="424.99999999999994"/>
      <point x="111.80000000000001" y="462.2"/>
      <point x="111.80000000000001" y="532.4" type="curve" smooth="yes"/>
      <point x="111.80000000000001" y="609.8"/>
      <point x="182.20000000000002" y="657.8"/>
      <point x="291.8" y="657.8" type="curve" smooth="yes"/>
      <point x="349.6" y="657.8"/>
      <point x="425.2" y="645.8"/>
      <point x="470.6" y="629.6" type="curve"/>
    </contour>
  </outline>
</glyph>
<glyph name="T" format="2">
  <advance width="514.08"/>
  <unicode hex="0054"/>
  <anchor x="257.04" y="700.0" name="top"/>
  <anchor x="257.04" y="0.0" name="bottom"/>
  <outline>
    <contour>
      <point x="505.75999999999993" y="643.76" type="line"/>
      <point x="505.75999999999993" y="700.0" type="line"/>
      <point x="8.32" y="700.0" type="line"/>
      <point x="8.32" y="643.76" type="line"/>
      <point x="225.79999999999998" y="643.76" type="line"/>
      <point x="225.79999999999998" y="0.0" type="line"/>
      <point x="288.40000000000003" y="0.0" type="line"/>
      <point x="288.40000000000003" y="643.76" type="line"/>
    </contour>
  </outline>
</glyph>
<glyph name="U" format="2">
  <advance width="646.2"/>
  <unicode hex="0055"/>
  <anchor x="375.88" y="0.24" name="ogonek"/>
  <anchor x="323.40000000000003" y="700.0" name="top"/>
  <anchor x="584.28" y="700.0" name="topright"/>
  <anchor x="323.40000000000003" y="0.0" name="bottom"/>
  <outline>
    <contour>
      <point x="61.92" y="206.56" type="line"/>
      <point x="61.92" y="34.4"/>
      <point x="187.48" y="-10.0"/>
      <point x="323.16" y="-10.0" type="curve" smooth="yes"/>
      <point x="459.68" y="-10.0"/>
      <point x="584.28" y="34.4"/>
      <point x="584.28" y="206.56" type="curve" smooth="yes"/>
      <point x="584.28" y="700.0" type="line"/>
      <point x="522.08" y="700.0" type="line"/>
      <point x="522.08" y="206.12" type="line" smooth="yes"/>
      <point x="522.08" y="72.47999999999999"/>
      <point x="420.47999999999996" y="43.28"/>
      <point x="323.40000000000003" y="43.28" type="curve" smooth="yes"/>
      <point x="227.0" y="43.28"/>
      <point x="123.88" y="71.75999999999999"/>
      <point x="123.88" y="206.12" type="curve" smooth="yes"/>
      <point x="123.88" y="700.0" type="line"/>
      <point x="61.92" y="700.0" type="line"/>
    </contour>
  </outline>
</glyph>
<glyph name="V" format="2">
  <advance width="579.84"/>
  <unicode hex="0056"/>
  <outline>
    <contour>
      <point x="256.08" y="0.0" type="line"/>
      <point x="324.79999999999995" y="0.0" type="line"/>
      <point x="571.04" y="697.8" type="line"/>
      <point x="507.08" y="703.28" type="line"/>
      <point x="290.6" y="69.0" type="line"/>
      <point x="73.0" y="703.28" type="line"/>
      <point x="8.799999999999999" y="697.8" type="line"/>
    </contour>
  </outline>
</glyph>
<glyph name="W" format="2">
  <advance width="786.6"/>
  <unicode hex="0057"/>
  <anchor x="392.8" y="700.0" name="top"/>
  <anchor x="392.8" y="0.0" name="bottom"/>
  <outline>
    <contour>
      <point x="618.16" y="0.0" type="line"/>
      <point x="778.08" y="698.64" type="line"/>
      <point x="712.3599999999999" y="702.44" type="line"/>
      <point x="585.88" y="81.84" type="line"/>
      <point x="423.28000000000003" y="678.28" type="line"/>
      <point x="365.79999999999995" y="678.28" type="line"/>
      <point x="201.84" y="81.52" type="line"/>
      <point x="73.76" y="702.44" type="line"/>
      <point x="8.52" y="698.64" type="line"/>
      <point x="167.23999999999998" y="0.0" type="line"/>
      <point x="228.8" y="0.0" type="line"/>
      <point x="391.76" y="582.6" type="line"/>
      <point x="552.32" y="0.0" type="line"/>
    </contour>
  </outline>
</glyph>
<glyph name="X" format="2">
  <advance width="582.0"/>
  <unicode hex="0058"/>
  <outline>
    <contour>
      <point x="17.4" y="3.2" type="line"/>
      <point x="85.4" y="-4.8" type="line"/>
      <point x="289.6" y="310.40000000000003" type="line"/>
      <point x="494.80000000000007" y="-4.8" type="line"/>
      <point x="562.9999999999999" y="3.2" type="line"/>
      <point x="329.8" y="361.99999999999994" type="line"/>
      <point x="549.6" y="696.2" type="line"/>
      <point x="483.79999999999995" y="703.8" type="line"/>
      <point x="295.6" y="408.59999999999997" type="line"/>
      <point x="103.8" y="703.8" type="line"/>
      <point x="34.00000000000001" y="696.2" type="line"/>
      <point x="255.60000000000002" y="359.0" type="line"/>
    </contour>
  </outline>
</glyph>
<glyph name="Y" format="2">
  <advance width="567.6"/>
  <unicode hex="0059"/>
  <anchor x="284.28" y="700.0" name="top"/>
  <anchor x="286.04" y="0.0" name="bottom"/>
  <outline>
    <contour>
      <point x="255.16000000000003" y="0.0" type="line"/>
      <point x="317.76000000000005" y="0.0" type="line"/>
      <point x="317.76000000000005" y="294.40000000000003" type="line"/>
      <point x="557.76" y="696.0" type="line"/>
      <point x="492.67999999999995" y="704.0" type="line"/>
      <point x="286.68000000000006" y="342.08000000000004" type="line"/>
      <point x="73.32000000000001" y="704.0" type="line"/>
      <point x="7.920000000000001" y="696.0" type="line"/>
      <point x="255.16000000000003" y="294.40000000000003" type="line"/>
    </contour>
  </outline>
</glyph>
<glyph name="Z" format="2">
  <advance width="552.24"/>
  <unicode hex="005A"/>
  <anchor x="279.28000000000003" y="350.0" name="center"/>
  <anchor x="279.28000000000003" y="0.0" name="bottom"/>
  <anchor x="280.04" y="700.0" name="top"/>
  <outline>
    <contour>
      <point x="25.8" y="0.0" type="line"/>
      <point x="532.0799999999999" y="0.0" type="line"/>
      <point x="532.0799999999999" y="53.239999999999995" type="line"/>
      <point x="101.88" y="53.239999999999995" type="line"/>
      <point x="101.88" y="55.24" type="line"/>
      <point x="507.36" y="650.6000000000001" type="line"/>
      <point x="507.36" y="700.0" type="line"/>
      <point x="49.08" y="700.0" type="line"/>
      <point x="49.08" y="646.76" type="line"/>
      <point x="432.47999999999996" y="646.76" type="line"/>
      <point x="432.47999999999996" y="644.7600000000001" type="line"/>
      <point x="25.8" y="49.4" type="line"/>
    </contour>
  </outline>
</glyph>
<glyph name="bracketleft" format="2">
  <advance width="299.88"/>
  <unicode hex="005B"/>
  <outline>
    <contour>
      <point x="126.76" y="-163.6" type="line"/>
      <point x="126.76" y="693.6" type="line"/>
      <point x="278.28" y="693.6" type="line"/>
      <point x="278.28" y="740.0" type="line"/>
      <point x="76.4" y="740.0" type="line"/>
      <point x="76.4" y="-210.0" type="line"/>
      <point x="278.28" y="-210.0" type="line"/>
      <point x="278.28" y="-163.6" type="line"/>
    </contour>
  </outline>
</glyph>
<glyph name="backslash" format="2">
  <advance width="331.04"/>
  <unicode hex="005C"/>
  <outline>
    <contour>
      <point x="55.919999999999995" y="740.0" type="line"/>
      <point x="3.76" y="740.0" type="line"/>
      <point x="275.24" y="-210.0" type="line"/>
      <point x="327.28" y="-210.0" type="line"/>
    </contour>
  </outline>
</glyph>
<glyph name="bracketright" format="2">
  <advance width="299.88"/>
  <unicode hex="005D"/>
  <outline>
    <contour>
      <point x="21.599999999999998" y="-163.6" type="line"/>
      <point x="21.599999999999998" y="-210.0" type="line"/>
      <point x="223.48000000000002" y="-210.0" type="line"/>
      <point x="223.48000000000002" y="740.0" type="line"/>
      <point x="21.599999999999998" y="740.0" type="line"/>
      <point x="21.599999999999998" y="693.6" type="line"/>
      <point x="173.12000000000003" y="693.6" type="line"/>
      <point x="173.12000000000003" y="-163.6" type="line"/>
    </contour>
  </outline>
</glyph>
<glyph name="asciicircum" format="2">
  <advance width="469.76"/>
  <unicode hex="005E"/>
  <outline>
    <contour>
      <point x="44.2" y="267.44000000000005" type="line"/>
      <point x="95.44000000000001" y="267.44000000000005" type="line"/>
      <point x="234.88" y="644.24" type="line"/>
      <point x="374.52000000000004" y="267.44000000000005" type="line"/>
      <point x="425.56" y="267.44000000000005" type="line"/>
      <point x="263.16" y="708.0" type="line"/>
      <point x="206.6" y="708.0" type="line"/>
    </contour>
  </outline>
</glyph>
<glyph name="underscore" format="2">
  <advance width="770.1600000000001"/>
  <unicode hex="005F"/>
  <outline>
    <contour>
      <point x="4.0" y="-150.68" type="line"/>
      <point x="766.1600000000001" y="-150.68" type="line"/>
      <point x="766.1600000000001" y="-101.08" type="line"/>
      <point x="4.0" y="-101.08" type="line"/>
    </contour>
  </outline>
</glyph>
<glyph name="a" format="2">
  <advance width="497.8"/>
  <unicode hex="0061"/>
  <anchor x="493.6" y="3.8000000000000003" name="ogonek"/>
  <anchor x="243.4" y="0.0" name="bottom"/>
  <anchor x="243.79999999999998" y="534.0" name="top"/>
  <outline>
    <contour>
      <point x="32.2" y="122.8" type="curve" smooth="yes"/>
      <point x="32.2" y="35.6"/>
      <point x="84.2" y="-10.0"/>
      <point x="162.60000000000002" y="-10.0" type="curve" smooth="yes"/>
      <point x="246.4" y="-10.0"/>
      <point x="312.40000000000003" y="28.4"/>
      <point x="360.6" y="69.2" type="curve"/>
      <point x="365.79999999999995" y="15.0"/>
      <point x="392.0" y="-10.0"/>
      <point x="437.4" y="-10.0" type="curve" smooth="yes"/>
      <point x="457.4" y="-10.0"/>
      <point x="475.4" y="-5.6"/>
      <point x="493.6" y="4.2" type="curve"/>
      <point x="485.59999999999997" y="50.4" type="line"/>
      <point x="475.2" y="45.800000000000004"/>
      <point x="465.20000000000005" y="44.2"/>
      <point x="456.4" y="44.2" type="curve" smooth="yes"/>
      <point x="432.40000000000003" y="44.2"/>
      <point x="418.0" y="57.8"/>
      <point x="418.0" y="105.2" type="curve" smooth="yes"/>
      <point x="418.0" y="384.8" type="line" smooth="yes"/>
      <point x="418.0" y="491.4"/>
      <point x="353.40000000000003" y="544.0"/>
      <point x="231.79999999999998" y="544.0" type="curve" smooth="yes"/>
      <point x="181.6" y="544.0"/>
      <point x="122.8" y="534.8"/>
      <point x="66.8" y="518.0" type="curve"/>
      <point x="78.8" y="467.4" type="line"/>
      <point x="135.2" y="484.40000000000003"/>
      <point x="188.2" y="490.4"/>
      <point x="229.20000000000002" y="490.4" type="curve" smooth="yes"/>
      <point x="314.2" y="490.4"/>
      <point x="357.0" y="452.4"/>
      <point x="357.0" y="384.4" type="curve" smooth="yes"/>
      <point x="357.0" y="297.0" type="line"/>
      <point x="145.4" y="277.0"/>
      <point x="32.2" y="251.4"/>
    </contour>
    <contour>
      <point x="94.19999999999999" y="129.0" type="curve" smooth="yes"/>
      <point x="94.19999999999999" y="224.2"/>
      <point x="202.6" y="245.4"/>
      <point x="357.0" y="258.0" type="curve"/>
      <point x="357.0" y="111.80000000000001" type="line"/>
      <point x="309.0" y="67.60000000000001"/>
      <point x="243.60000000000002" y="35.4"/>
      <point x="182.0" y="35.4" type="curve" smooth="yes"/>
      <point x="128.2" y="35.4"/>
      <point x="94.19999999999999" y="67.2"/>
    </contour>
  </outline>
</glyph>
<glyph name="b" format="2">
  <advance width="522.52"/>
  <unicode hex="0062"/>
  <outline>
    <contour>
      <point x="67.4" y="12.76" type="line"/>
      <point x="135.2" y="-2.56"/>
      <point x="191.0" y="-10.0"/>
      <point x="240.48000000000002" y="-10.0" type="curve" smooth="yes"/>
      <point x="406.92" y="-10.0"/>
      <point x="481.40000000000003" y="75.64"/>
      <point x="481.40000000000003" y="281.28000000000003" type="curve" smooth="yes"/>
      <point x="481.40000000000003" y="450.28"/>
      <point x="416.79999999999995" y="544.0"/>
      <point x="303.20000000000005" y="544.0" type="curve" smooth="yes"/>
      <point x="245.48000000000002" y="544.0"/>
      <point x="189.28" y="524.84"/>
      <point x="128.4" y="483.8" type="curve"/>
      <point x="128.4" y="740.0" type="line"/>
      <point x="67.4" y="740.0" type="line"/>
    </contour>
    <contour>
      <point x="128.4" y="50.599999999999994" type="curve"/>
      <point x="128.4" y="435.6" type="line"/>
      <point x="189.12000000000003" y="476.08"/>
      <point x="232.28" y="491.6"/>
      <point x="283.4" y="491.6" type="curve" smooth="yes"/>
      <point x="368.76" y="491.6"/>
      <point x="418.76" y="416.64"/>
      <point x="418.76" y="277.64" type="curve" smooth="yes"/>
      <point x="418.76" y="102.88000000000001"/>
      <point x="363.32" y="36.239999999999995"/>
      <point x="240.24" y="36.239999999999995" type="curve" smooth="yes"/>
      <point x="209.24" y="36.239999999999995"/>
      <point x="174.00000000000003" y="40.6"/>
    </contour>
  </outline>
</glyph>
<glyph name="c" format="2">
  <advance width="471.48"/>
  <unicode hex="0063"/>
  <anchor x="274.20000000000005" y="534.0" name="top"/>
  <anchor x="275.28" y="0.0" name="bottom"/>
  <outline>
    <contour>
      <point x="41.32" y="258.64" type="curve" smooth="yes"/>
      <point x="41.32" y="75.16"/>
      <point x="120.96" y="-10.0"/>
      <point x="276.48" y="-10.0" type="curve" smooth="yes"/>
      <point x="331.96" y="-10.0"/>
      <point x="398.84000000000003" y="-0.6000000000000005"/>
      <point x="445.9200000000001" y="12.24" type="curve"/>
      <point x="435.68" y="59.52" type="line"/>
      <point x="389.68" y="48.88"/>
      <point x="332.68" y="40.92"/>
      <point x="287.76" y="40.92" type="curve" smooth="yes"/>
      <point x="169.28" y="40.92"/>
      <point x="103.16" y="104.04"/>
      <point x="103.16" y="257.36" type="curve" smooth="yes"/>
      <point x="103.16" y="424.32000000000005"/>
      <point x="170.44" y="492.76"/>
      <point x="288.08" y="492.76" type="curve" smooth="yes"/>
      <point x="330.6" y="492.76"/>
      <point x="383.88" y="485.79999999999995"/>
      <point x="427.48" y="475.4" type="curve"/>
      <point x="436.59999999999997" y="524.36" type="line"/>
      <point x="392.79999999999995" y="536.4"/>
      <point x="331.96000000000004" y="544.0"/>
      <point x="284.2" y="544.0" type="curve" smooth="yes"/>
      <point x="128.28" y="544.0"/>
      <point x="41.32" y="453.12"/>
    </contour>
  </outline>
</glyph>
<glyph name="d" format="2">
  <advance width="522.8000000000001"/>
  <unicode hex="0064"/>
  <anchor x="261.52" y="275.0" name="center"/>
  <anchor x="260.64000000000004" y="740.0" name="top"/>
  <anchor x="533.4" y="740.0" name="topright"/>
  <anchor x="261.52" y="0.0" name="bottom"/>
  <outline>
    <contour>
      <point x="403.52" y="-0.4" type="line"/>
      <point x="455.59999999999997" y="-0.4" type="line"/>
      <point x="455.59999999999997" y="740.0" type="line"/>
      <point x="394.0" y="740.0" type="line"/>
      <point x="394.0" y="531.2800000000001" type="line"/>
      <point x="353.8" y="539.9200000000001"/>
      <point x="312.91999999999996" y="544.0"/>
      <point x="276.64" y="544.0" type="curve" smooth="yes"/>
      <point x="115.84" y="544.0"/>
      <point x="41.0" y="455.47999999999996"/>
      <point x="41.0" y="253.83999999999997" type="curve" smooth="yes"/>
      <point x="41.0" y="83.68"/>
      <point x="106.28" y="-10.0"/>
      <point x="220.16" y="-10.0" type="curve" smooth="yes"/>
      <point x="279.0" y="-10.0"/>
      <point x="332.84000000000003" y="8.200000000000001"/>
      <point x="394.40000000000003" y="49.99999999999999" type="curve"/>
    </contour>
    <contour>
      <point x="394.0" y="97.92" type="line"/>
      <point x="333.71999999999997" y="58.2"/>
      <point x="290.16" y="42.47999999999999"/>
      <point x="238.96000000000004" y="42.47999999999999" type="curve" smooth="yes"/>
      <point x="154.28000000000003" y="42.47999999999999"/>
      <point x="104.19999999999999" y="117.19999999999999"/>
      <point x="104.19999999999999" y="258.23999999999995" type="curve" smooth="yes"/>
      <point x="104.19999999999999" y="431.12"/>
      <point x="159.36" y="496.92"/>
      <point x="282.04" y="496.92" type="curve" smooth="yes"/>
      <point x="313.48" y="496.92"/>
      <point x="348.68" y="492.84"/>
      <point x="394.0" y="482.52" type="curve"/>
    </contour>
  </outline>
</glyph>
<glyph name="e" format="2">
  <advance width="509.32"/>
  <unicode hex="0065"/>
  <anchor x="429.56" y="9.920000000000002" name="ogonek"/>
  <anchor x="269.2" y="0.0" name="bottom"/>
  <anchor x="268.15999999999997" y="534.0" name="top"/>
  <outline>
    <contour>
      <point x="262.64000000000004" y="-10.0" type="curve" smooth="yes"/>
      <point x="341.48" y="-10.0"/>
      <point x="413.64" y="2.4400000000000004"/>
      <point x="465.00000000000006" y="18.64" type="curve"/>
      <point x="456.24" y="66.32" type="line"/>
      <point x="407.24" y="53.160000000000004"/>
      <point x="337.67999999999995" y="40.84"/>
      <point x="271.8" y="40.84" type="curve" smooth="yes"/>
      <point x="165.64" y="40.84"/>
      <point x="103.80000000000001" y="95.2"/>
      <point x="103.80000000000001" y="245.16" type="curve" smooth="yes"/>
      <point x="103.80000000000001" y="253.2"/>
      <point x="104.04000000000002" y="260.96"/>
      <point x="104.68" y="268.76" type="curve"/>
      <point x="278.0" y="269.56"/>
      <point x="419.48" y="282.16"/>
      <point x="471.88" y="287.03999999999996" type="curve"/>
      <point x="472.52" y="296.36000000000007"/>
      <point x="473.28" y="310.84"/>
      <point x="473.28" y="318.6" type="curve" smooth="yes"/>
      <point x="473.28" y="477.43999999999994"/>
      <point x="409.32" y="544.0"/>
      <point x="279.79999999999995" y="544.0" type="curve" smooth="yes"/>
      <point x="146.88000000000002" y="544.0"/>
      <point x="41.0" y="472.16"/>
      <point x="41.0" y="252.15999999999997" type="curve" smooth="yes"/>
      <point x="41.0" y="66.91999999999999"/>
      <point x="122.36" y="-10.0"/>
    </contour>
    <contour>
      <point x="105.8" y="312.84000000000003" type="curve"/>
      <point x="120.4" y="460.0"/>
      <point x="201.04000000000002" y="497.12"/>
      <point x="276.2" y="497.12" type="curve" smooth="yes"/>
      <point x="367.84" y="497.12"/>
      <point x="410.64000000000004" y="448.08"/>
      <point x="411.44000000000005" y="326.31999999999994" type="curve"/>
      <point x="379.96000000000004" y="322.23999999999995"/>
      <point x="249.83999999999997" y="313.23999999999995"/>
    </contour>
  </outline>
</glyph>
<glyph name="f" format="2">
  <advance width="350.44000000000005"/>
  <unicode hex="0066"/>
  <outline>
    <contour>
      <point x="108.48" y="0.0" type="line"/>
      <point x="168.67999999999998" y="0.0" type="line"/>
      <point x="168.67999999999998" y="441.56000000000006" type="line"/>
      <point x="338.0" y="441.56000000000006" type="line"/>
      <point x="338.0" y="489.4" type="line"/>
      <point x="168.8" y="489.4" type="line"/>
      <point x="168.8" y="511.44" type="line" smooth="yes"/>
      <point x="168.8" y="645.9599999999999"/>
      <point x="211.44" y="699.72"/>
      <point x="295.8" y="699.72" type="curve" smooth="yes"/>
      <point x="328.32" y="699.72"/>
      <point x="359.96" y="694.52"/>
      <point x="397.08000000000004" y="683.64" type="curve"/>
      <point x="406.40000000000003" y="729.96" type="line"/>
      <point x="360.47999999999996" y="744.56"/>
      <point x="323.88" y="750.3199999999999"/>
      <point x="283.52000000000004" y="750.3199999999999" type="curve" smooth="yes"/>
      <point x="170.88" y="750.3199999999999"/>
      <point x="108.48" y="679.6800000000001"/>
      <point x="108.48" y="512.16" type="curve" smooth="yes"/>
      <point x="108.48" y="489.4" type="line"/>
      <point x="21.400000000000002" y="482.47999999999996" type="line"/>
      <point x="21.400000000000002" y="441.56000000000006" type="line"/>
      <point x="108.48" y="441.56000000000006" type="line"/>
    </contour>
  </outline>
</glyph>
<glyph name="g" format="2">
  <advance width="527.2800000000001"/>
  <unicode hex="0067"/>
  <anchor x="263.96" y="534.0" name="top"/>
  <anchor x="260.48" y="-214.0" name="bottom"/>
  <outline>
    <contour>
      <point x="255.95999999999998" y="-220.0" type="curve" smooth="yes"/>
      <point x="419.12000000000006" y="-220.0"/>
      <point x="511.55999999999995" y="-157.28"/>
      <point x="511.55999999999995" y="-51.92" type="curve" smooth="yes"/>
      <point x="511.55999999999995" y="34.400000000000006"/>
      <point x="460.04" y="79.28000000000002"/>
      <point x="359.48" y="79.28000000000002" type="curve" smooth="yes"/>
      <point x="197.48000000000002" y="79.28000000000002" type="line" smooth="yes"/>
      <point x="132.51999999999998" y="79.28000000000002"/>
      <point x="104.16" y="103.96"/>
      <point x="104.16" y="143.8" type="curve" smooth="yes"/>
      <point x="104.16" y="179.36"/>
      <point x="125.8" y="206.07999999999998"/>
      <point x="163.07999999999998" y="226.6" type="curve"/>
      <point x="126.96" y="241.32" type="line"/>
      <point x="78.8" y="213.23999999999998"/>
      <point x="54.519999999999996" y="177.4"/>
      <point x="54.519999999999996" y="129.68" type="curve" smooth="yes"/>
      <point x="54.519999999999996" y="63.84"/>
      <point x="102.72" y="26.44"/>
      <point x="197.96" y="26.44" type="curve" smooth="yes"/>
      <point x="344.24" y="26.44" type="line" smooth="yes"/>
      <point x="418.28000000000003" y="26.44"/>
      <point x="453.15999999999997" y="-1.919999999999999"/>
      <point x="453.15999999999997" y="-57.04" type="curve" smooth="yes"/>
      <point x="453.15999999999997" y="-130.64"/>
      <point x="383.96" y="-173.16"/>
      <point x="259.56" y="-173.16" type="curve" smooth="yes"/>
      <point x="138.88" y="-173.16"/>
      <point x="79.24" y="-137.39999999999998"/>
      <point x="79.24" y="-63.12" type="curve" smooth="yes"/>
      <point x="79.24" y="-17.68"/>
      <point x="100.55999999999999" y="17.320000000000004"/>
      <point x="155.76" y="41.239999999999995" type="curve"/>
      <point x="114.32" y="55.2" type="line"/>
      <point x="50.68000000000001" y="26.72"/>
      <point x="25.639999999999997" y="-18.48"/>
      <point x="25.639999999999997" y="-73.35999999999999" type="curve" smooth="yes"/>
      <point x="25.639999999999997" y="-172.0"/>
      <point x="103.60000000000001" y="-220.0"/>
    </contour>
    <contour>
      <point x="260.16" y="202.51999999999998" type="curve" smooth="yes"/>
      <point x="391.16" y="202.51999999999998"/>
      <point x="456.08000000000004" y="259.31999999999994"/>
      <point x="456.08000000000004" y="373.0" type="curve" smooth="yes"/>
      <point x="456.08000000000004" y="487.08"/>
      <point x="391.16" y="544.0"/>
      <point x="260.16" y="544.0" type="curve" smooth="yes"/>
      <point x="129.16" y="544.0"/>
      <point x="64.24" y="487.08"/>
      <point x="64.24" y="373.0" type="curve" smooth="yes"/>
      <point x="64.24" y="259.31999999999994"/>
      <point x="129.16" y="202.51999999999998"/>
    </contour>
    <contour>
      <point x="260.16" y="246.71999999999997" type="curve" smooth="yes"/>
      <point x="167.15999999999997" y="246.71999999999997"/>
      <point x="123.84" y="285.15999999999997"/>
      <point x="123.84" y="373.0" type="curve" smooth="yes"/>
      <point x="123.84" y="462.0"/>
      <point x="167.15999999999997" y="500.19999999999993"/>
      <point x="260.16" y="500.19999999999993" type="curve" smooth="yes"/>
      <point x="353.16" y="500.19999999999993"/>
      <point x="396.47999999999996" y="462.0"/>
      <point x="396.47999999999996" y="373.0" type="curve" smooth="yes"/>
      <point x="396.47999999999996" y="285.15999999999997"/>
      <point x="353.16" y="246.71999999999997"/>
    </contour>
    <contour>
      <point x="402.64000000000004" y="470.44" type="line"/>
      <point x="418.04" y="501.68"/>
      <point x="442.24" y="515.3199999999999"/>
      <point x="475.92" y="515.3199999999999" type="curve" smooth="yes"/>
      <point x="487.32" y="515.3199999999999"/>
      <point x="496.56" y="514.6800000000001"/>
      <point x="506.2" y="512.4" type="curve"/>
      <point x="512.64" y="562.4" type="line"/>
      <point x="499.71999999999997" y="565.0799999999999"/>
      <point x="490.00000000000006" y="566.1200000000001"/>
      <point x="476.72" y="566.1200000000001" type="curve" smooth="yes"/>
      <point x="427.52" y="566.1200000000001"/>
      <point x="391.2" y="544.68"/>
      <point x="375.35999999999996" y="504.59999999999997" type="curve"/>
    </contour>
  </outline>
</glyph>
<glyph name="h" format="2">
  <advance width="532.68"/>
  <unicode hex="0068"/>
  <anchor x="265.64" y="395.0" name="center"/>
  <anchor x="266.44" y="0.0" name="bottom"/>
  <anchor x="269.08" y="740.0" name="top"/>
  <outline>
    <contour>
      <point x="67.2" y="0.0" type="line"/>
      <point x="128.8" y="0.0" type="line"/>
      <point x="128.8" y="441.2" type="line"/>
      <point x="186.08" y="470.6"/>
      <point x="235.56000000000003" y="490.71999999999997"/>
      <point x="295.71999999999997" y="490.71999999999997" type="curve" smooth="yes"/>
      <point x="369.1600000000001" y="490.71999999999997"/>
      <point x="403.88" y="452.03999999999996"/>
      <point x="403.88" y="384.48" type="curve" smooth="yes"/>
      <point x="403.88" y="0.0" type="line"/>
      <point x="465.48" y="0.0" type="line"/>
      <point x="465.48" y="399.28" type="line" smooth="yes"/>
      <point x="465.48" y="495.68000000000006"/>
      <point x="411.9200000000001" y="544.0"/>
      <point x="319.03999999999996" y="544.0" type="curve" smooth="yes"/>
      <point x="247.72000000000003" y="544.0"/>
      <point x="191.76000000000002" y="521.76"/>
      <point x="128.8" y="488.2" type="curve"/>
      <point x="128.8" y="740.0" type="line"/>
      <point x="67.2" y="740.0" type="line"/>
    </contour>
  </outline>
</glyph>
<glyph name="i" format="2">
  <advance width="195.8"/>
  <unicode hex="0069"/>
  <anchor x="128.07999999999998" y="0.0" name="ogonek"/>
  <anchor x="97.96" y="0.0" name="bottom"/>
  <outline>
    <contour>
      <point x="97.96" y="655.48" type="curve" smooth="yes"/>
      <point x="127.88000000000001" y="655.48"/>
      <point x="136.28000000000003" y="663.76"/>
      <point x="136.28000000000003" y="691.08" type="curve" smooth="yes"/>
      <point x="136.28000000000003" y="718.64"/>
      <point x="127.64" y="726.8"/>
      <point x="97.96" y="726.8" type="curve" smooth="yes"/>
      <point x="68.16" y="726.8"/>
      <point x="59.52" y="718.64"/>
      <point x="59.52" y="691.08" type="curve" smooth="yes"/>
      <point x="59.52" y="663.64"/>
      <point x="68.96000000000001" y="655.48"/>
    </contour>
    <contour>
      <point x="67.4" y="0.0" type="line"/>
      <point x="128.4" y="0.0" type="line"/>
      <point x="128.4" y="534.0" type="line"/>
      <point x="67.4" y="534.0" type="line"/>
    </contour>
  </outline>
</glyph>
<glyph name="j" format="2">
  <advance width="198.2"/>
  <unicode hex="006A"/>
  <outline>
    <contour>
      <point x="131.12" y="534.0" type="line"/>
      <point x="70.12" y="534.0" type="line"/>
      <point x="70.12" y="20.520000000000003" type="line" smooth="yes"/>
      <point x="70.12" y="-67.72"/>
      <point x="49.2" y="-120.52"/>
      <point x="7.84" y="-146.12" type="curve" smooth="yes"/>
      <point x="0.40000000000000124" y="-150.43999999999997"/>
      <point x="-6.799999999999999" y="-153.6"/>
      <point x="-15.399999999999999" y="-155.72" type="curve"/>
      <point x="-11.92" y="-207.68" type="line"/>
      <point x="2.4799999999999995" y="-205.6"/>
      <point x="18.08" y="-201.76"/>
      <point x="30.560000000000002" y="-196.95999999999998" type="curve" smooth="yes"/>
      <point x="99.24000000000001" y="-168.0"/>
      <point x="131.12" y="-98.64"/>
      <point x="131.12" y="18.04" type="curve" smooth="yes"/>
    </contour>
    <contour>
      <point x="100.03999999999999" y="655.48" type="curve" smooth="yes"/>
      <point x="129.48" y="655.48"/>
      <point x="138.35999999999999" y="663.76"/>
      <point x="138.35999999999999" y="691.08" type="curve" smooth="yes"/>
      <point x="138.35999999999999" y="718.64"/>
      <point x="129.24" y="726.8"/>
      <point x="100.03999999999999" y="726.8" type="curve" smooth="yes"/>
      <point x="70.24" y="726.8"/>
      <point x="61.60000000000001" y="718.64"/>
      <point x="61.60000000000001" y="691.08" type="curve" smooth="yes"/>
      <point x="61.60000000000001" y="663.64"/>
      <point x="71.03999999999999" y="655.48"/>
    </contour>
  </outline>
</glyph>
<glyph name="k" format="2">
  <advance width="490.6"/>
  <unicode hex="006B"/>
  <anchor x="96.8" y="740.0" name="top"/>
  <anchor x="259.2" y="0.0" name="bottom"/>
  <outline>
    <contour>
      <point x="465.6" y="-8.4" type="curve" smooth="yes"/>
      <point x="473.8" y="-8.4"/>
      <point x="481.40000000000003" y="-6.8"/>
      <point x="488.4" y="-5.3999999999999995" type="curve"/>
      <point x="485.8" y="57.400000000000006" type="line"/>
      <point x="480.4" y="56.800000000000004"/>
      <point x="475.4" y="55.800000000000004"/>
      <point x="472.0" y="55.800000000000004" type="curve" smooth="yes"/>
      <point x="442.0" y="55.800000000000004"/>
      <point x="410.59999999999997" y="76.19999999999999"/>
      <point x="306.0" y="184.20000000000002" type="curve" smooth="yes"/>
      <point x="126.4" y="370.40000000000003" type="line"/>
      <point x="126.4" y="740.0" type="line"/>
      <point x="67.2" y="740.0" type="line"/>
      <point x="67.2" y="0.0" type="line"/>
      <point x="126.4" y="0.0" type="line"/>
      <point x="126.4" y="289.0" type="line"/>
      <point x="290.2" y="118.6" type="line" smooth="yes"/>
      <point x="402.8" y="0.5999999999999996"/>
      <point x="428.2" y="-8.4"/>
    </contour>
    <contour>
      <point x="220.8" y="243.79999999999998" type="line"/>
      <point x="301.8" y="313.8"/>
      <point x="412.59999999999997" y="409.4"/>
      <point x="455.4" y="534.0" type="curve"/>
      <point x="395.59999999999997" y="543.0" type="line"/>
      <point x="355.2" y="422.0"/>
      <point x="258.6" y="344.79999999999995"/>
      <point x="174.2" y="272.2" type="curve"/>
    </contour>
  </outline>
</glyph>
<glyph name="l" format="2">
  <advance width="247.64000000000001"/>
  <unicode hex="006C"/>
  <anchor x="124.2" y="395.0" name="center"/>
  <anchor x="97.96" y="740.0" name="top"/>
  <anchor x="206.4" y="740.0" name="topright"/>
  <anchor x="156.4" y="0.0" name="bottom"/>
  <outline>
    <contour>
      <point x="128.4" y="740.0" type="line"/>
      <point x="67.4" y="740.0" type="line"/>
      <point x="67.4" y="131.16" type="line" smooth="yes"/>
      <point x="67.4" y="17.8"/>
      <point x="109.24" y="-10.0"/>
      <point x="174.95999999999998" y="-10.0" type="curve" smooth="yes"/>
      <point x="201.32" y="-10.0"/>
      <point x="226.88" y="-3.9999999999999996"/>
      <point x="247.76" y="4.4" type="curve"/>
      <point x="240.64000000000001" y="53.88" type="line"/>
      <point x="221.55999999999997" y="47.760000000000005"/>
      <point x="204.36" y="44.52"/>
      <point x="189.08" y="44.52" type="curve" smooth="yes"/>
      <point x="155.04" y="44.52"/>
      <point x="128.4" y="58.88000000000001"/>
      <point x="128.4" y="135.52" type="curve" smooth="yes"/>
    </contour>
  </outline>
</glyph>
<glyph name="m" format="2">
  <advance width="809.52"/>
  <unicode hex="006D"/>
  <outline>
    <contour>
      <point x="67.4" y="0.0" type="line"/>
      <point x="128.52" y="0.0" type="line"/>
      <point x="128.52" y="441.04" type="line"/>
      <point x="177.12" y="470.08"/>
      <point x="221.56" y="489.32"/>
      <point x="275.59999999999997" y="489.32" type="curve" smooth="yes"/>
      <point x="357.44" y="489.32"/>
      <point x="375.12" y="431.24"/>
      <point x="375.12" y="383.08" type="curve" smooth="yes"/>
      <point x="375.12" y="0.0" type="line"/>
      <point x="436.24" y="0.0" type="line"/>
      <point x="436.24" y="386.76000000000005" type="line" smooth="yes"/>
      <point x="436.24" y="404.36"/>
      <point x="434.16" y="423.44"/>
      <point x="428.15999999999997" y="441.2" type="curve"/>
      <point x="465.96000000000004" y="464.47999999999996"/>
      <point x="518.5600000000001" y="491.0"/>
      <point x="580.76" y="491.0" type="curve" smooth="yes"/>
      <point x="663.8000000000001" y="491.0"/>
      <point x="681.24" y="432.68"/>
      <point x="681.24" y="384.35999999999996" type="curve" smooth="yes"/>
      <point x="681.24" y="0.0" type="line"/>
      <point x="742.36" y="0.0" type="line"/>
      <point x="742.36" y="399.59999999999997" type="line" smooth="yes"/>
      <point x="742.36" y="473.08"/>
      <point x="708.4000000000001" y="544.0"/>
      <point x="605.5200000000001" y="544.0" type="curve" smooth="yes"/>
      <point x="524.0" y="544.0"/>
      <point x="461.84" y="511.8"/>
      <point x="415.32" y="482.28" type="curve"/>
      <point x="395.68000000000006" y="518.12"/>
      <point x="360.2" y="542.4"/>
      <point x="299.47999999999996" y="542.4" type="curve" smooth="yes"/>
      <point x="233.0" y="542.4"/>
      <point x="178.44" y="519.48"/>
      <point x="124.0" y="487.11999999999995" type="curve"/>
      <point x="124.0" y="534.0" type="line"/>
      <point x="67.4" y="534.0" type="line"/>
    </contour>
  </outline>
</glyph>
<glyph name="n" format="2">
  <advance width="532.44"/>
  <unicode hex="006E"/>
  <anchor x="271.0" y="534.0" name="top"/>
  <anchor x="272.6" y="0.0" name="bottom"/>
  <outline>
    <contour>
      <point x="67.4" y="0.0" type="line"/>
      <point x="128.52" y="0.0" type="line"/>
      <point x="128.52" y="441.36" type="line"/>
      <point x="185.84" y="470.88"/>
      <point x="235.48000000000002" y="491.32"/>
      <point x="295.92" y="491.32" type="curve" smooth="yes"/>
      <point x="369.36" y="491.32"/>
      <point x="404.16" y="452.35999999999996"/>
      <point x="404.16" y="384.68" type="curve" smooth="yes"/>
      <point x="404.16" y="0.0" type="line"/>
      <point x="465.28" y="0.0" type="line"/>
      <point x="465.28" y="399.92" type="line" smooth="yes"/>
      <point x="465.28" y="494.28"/>
      <point x="412.76" y="544.0"/>
      <point x="318.84000000000003" y="544.0" type="curve" smooth="yes"/>
      <point x="246.28000000000003" y="544.0"/>
      <point x="189.32" y="521.48"/>
      <point x="124.0" y="486.96" type="curve"/>
      <point x="124.0" y="534.0" type="line"/>
      <point x="67.4" y="534.0" type="line"/>
    </contour>
  </outline>
</glyph>
<glyph name="o" format="2">
  <advance width="535.12"/>
  <unicode hex="006F"/>
  <anchor x="327.84000000000003" y="1.3599999999999999" name="ogonek"/>
  <anchor x="267.56" y="534.0" name="top"/>
  <anchor x="373.11999999999995" y="527.2" name="topright"/>
  <anchor x="267.56" y="0.0" name="bottom"/>
  <outline>
    <contour>
      <point x="41.2" y="267.92" type="curve" smooth="yes"/>
      <point x="41.2" y="69.32"/>
      <point x="106.08" y="-10.0"/>
      <point x="267.56" y="-10.0" type="curve" smooth="yes"/>
      <point x="429.03999999999996" y="-10.0"/>
      <point x="493.92" y="69.32"/>
      <point x="493.92" y="267.92" type="curve" smooth="yes"/>
      <point x="493.92" y="461.31999999999994"/>
      <point x="435.84" y="544.0"/>
      <point x="267.56" y="544.0" type="curve" smooth="yes"/>
      <point x="99.12" y="544.0"/>
      <point x="41.2" y="461.31999999999994"/>
    </contour>
    <contour>
      <point x="103.6" y="267.91999999999996" type="curve" smooth="yes"/>
      <point x="103.6" y="433.15999999999997"/>
      <point x="145.20000000000002" y="494.4"/>
      <point x="267.56" y="494.4" type="curve" smooth="yes"/>
      <point x="389.8" y="494.4"/>
      <point x="431.36" y="433.15999999999997"/>
      <point x="431.36" y="267.91999999999996" type="curve" smooth="yes"/>
      <point x="431.36" y="98.84000000000002"/>
      <point x="383.96000000000004" y="39.720000000000006"/>
      <point x="267.56" y="39.720000000000006" type="curve" smooth="yes"/>
      <point x="151.04000000000002" y="39.720000000000006"/>
      <point x="103.6" y="98.84000000000002"/>
    </contour>
  </outline>
</glyph>
<glyph name="p" format="2">
  <advance width="522.64"/>
  <unicode hex="0070"/>
  <outline>
    <contour>
      <point x="67.4" y="-210.0" type="line"/>
      <point x="128.6" y="-210.0" type="line"/>
      <point x="128.6" y="3.3199999999999994" type="line"/>
      <point x="173.48000000000002" y="-5.84"/>
      <point x="211.24" y="-10.0"/>
      <point x="245.76000000000002" y="-10.0" type="curve" smooth="yes"/>
      <point x="406.56000000000006" y="-10.0"/>
      <point x="481.52" y="78.64"/>
      <point x="481.52" y="280.32000000000005" type="curve" smooth="yes"/>
      <point x="481.52" y="449.0799999999999"/>
      <point x="416.68000000000006" y="544.0"/>
      <point x="304.04" y="544.0" type="curve" smooth="yes"/>
      <point x="244.92000000000002" y="544.0"/>
      <point x="188.28" y="524.72"/>
      <point x="125.44" y="482.44000000000005" type="curve"/>
      <point x="124.0" y="538.8" type="line"/>
      <point x="67.4" y="538.8" type="line"/>
    </contour>
    <contour>
      <point x="240.35999999999999" y="36.72" type="curve" smooth="yes"/>
      <point x="209.24" y="36.72"/>
      <point x="174.00000000000003" y="41.2"/>
      <point x="128.52" y="51.44" type="curve"/>
      <point x="128.52" y="436.44" type="line"/>
      <point x="189.0" y="476.68"/>
      <point x="232.28" y="492.08"/>
      <point x="283.28000000000003" y="492.08" type="curve" smooth="yes"/>
      <point x="368.76" y="492.08"/>
      <point x="418.76" y="416.88"/>
      <point x="418.76" y="275.72" type="curve" smooth="yes"/>
      <point x="418.76" y="103.11999999999999"/>
      <point x="363.32" y="36.72"/>
    </contour>
  </outline>
</glyph>
<glyph name="q" format="2">
  <advance width="522.76"/>
  <unicode hex="0071"/>
  <outline>
    <contour>
      <point x="455.36" y="522.1999999999999" type="line"/>
      <point x="387.08" y="537.2800000000001"/>
      <point x="332.6" y="544.0"/>
      <point x="282.28" y="544.0" type="curve" smooth="yes"/>
      <point x="117.04" y="544.0"/>
      <point x="41.120000000000005" y="457.52000000000004"/>
      <point x="41.120000000000005" y="256.08" type="curve" smooth="yes"/>
      <point x="41.120000000000005" y="84.80000000000001"/>
      <point x="106.08" y="-10.0"/>
      <point x="219.56" y="-10.0" type="curve" smooth="yes"/>
      <point x="277.52" y="-10.0"/>
      <point x="333.71999999999997" y="9.16"/>
      <point x="394.36" y="50.08" type="curve"/>
      <point x="394.36" y="-210.0" type="line"/>
      <point x="455.36" y="-210.0" type="line"/>
    </contour>
    <contour>
      <point x="394.24" y="482.68" type="curve"/>
      <point x="394.24" y="98.16" type="line"/>
      <point x="333.76" y="57.800000000000004"/>
      <point x="290.47999999999996" y="42.16"/>
      <point x="239.36" y="42.16" type="curve" smooth="yes"/>
      <point x="154.48000000000002" y="42.16"/>
      <point x="104.0" y="118.08"/>
      <point x="104.0" y="256.12" type="curve" smooth="yes"/>
      <point x="104.0" y="430.88"/>
      <point x="159.44" y="497.52"/>
      <point x="282.52000000000004" y="497.52" type="curve" smooth="yes"/>
      <point x="313.00000000000006" y="497.52"/>
      <point x="348.76" y="493.15999999999997"/>
    </contour>
  </outline>
</glyph>
<glyph name="r" format="2">
  <advance width="375.04"/>
  <unicode hex="0072"/>
  <anchor x="212.44" y="534.0" name="top"/>
  <anchor x="97.84" y="0.0" name="bottom"/>
  <outline>
    <contour>
      <point x="123.88" y="534.0" type="line"/>
      <point x="67.4" y="534.0" type="line"/>
      <point x="67.4" y="0.0" type="line"/>
      <point x="128.28" y="0.0" type="line"/>
      <point x="128.28" y="414.04" type="line"/>
      <point x="185.0" y="467.59999999999997"/>
      <point x="236.64000000000001" y="487.68"/>
      <point x="287.16" y="487.68" type="curve" smooth="yes"/>
      <point x="310.44" y="487.68"/>
      <point x="337.8" y="483.68"/>
      <point x="361.52000000000004" y="477.35999999999996" type="curve"/>
      <point x="372.12" y="532.76" type="line"/>
      <point x="350.24" y="539.6400000000001"/>
      <point x="321.68" y="544.0"/>
      <point x="293.16" y="544.0" type="curve" smooth="yes"/>
      <point x="234.16" y="544.0"/>
      <point x="182.32" y="520.8399999999999"/>
      <point x="123.88" y="466.92" type="curve"/>
    </contour>
  </outline>
</glyph>
<glyph name="s" format="2">
  <advance width="439.20000000000005"/>
  <unicode hex="0073"/>
  <anchor x="219.39999999999998" y="534.0" name="top"/>
  <anchor x="220.4" y="0.0" name="bottom"/>
  <outline>
    <contour>
      <point x="23.4" y="21.599999999999998" type="line"/>
      <point x="70.8" y="1.1999999999999997"/>
      <point x="141.2" y="-10.0"/>
      <point x="208.2" y="-10.0" type="curve" smooth="yes"/>
      <point x="330.40000000000003" y="-10.0"/>
      <point x="412.2" y="37.0"/>
      <point x="412.2" y="137.6" type="curve" smooth="yes"/>
      <point x="412.2" y="233.2"/>
      <point x="348.0" y="267.2"/>
      <point x="244.0" y="295.79999999999995" type="curve" smooth="yes"/>
      <point x="164.2" y="317.8"/>
      <point x="101.0" y="339.8"/>
      <point x="101.0" y="404.0" type="curve" smooth="yes"/>
      <point x="101.0" y="458.6"/>
      <point x="147.0" y="493.6"/>
      <point x="235.6" y="493.6" type="curve" smooth="yes"/>
      <point x="288.8" y="493.6"/>
      <point x="336.0" y="483.0"/>
      <point x="372.0" y="471.8" type="curve"/>
      <point x="382.6" y="519.8" type="line"/>
      <point x="345.6" y="533.0"/>
      <point x="291.4" y="544.0"/>
      <point x="235.6" y="544.0" type="curve" smooth="yes"/>
      <point x="106.8" y="544.0"/>
      <point x="41.400000000000006" y="488.4"/>
      <point x="41.400000000000006" y="399.6" type="curve" smooth="yes"/>
      <point x="41.400000000000006" y="312.4"/>
      <point x="108.8" y="273.6"/>
      <point x="201.20000000000002" y="248.60000000000002" type="curve" smooth="yes"/>
      <point x="301.8" y="221.2"/>
      <point x="351.4" y="196.39999999999998"/>
      <point x="351.4" y="132.8" type="curve" smooth="yes"/>
      <point x="351.4" y="72.19999999999999"/>
      <point x="301.0" y="39.199999999999996"/>
      <point x="209.0" y="39.199999999999996" type="curve" smooth="yes"/>
      <point x="149.6" y="39.199999999999996"/>
      <point x="77.6" y="51.2"/>
      <point x="34.6" y="68.8" type="curve"/>
    </contour>
  </outline>
</glyph>
<glyph name="t" format="2">
  <advance width="380.84"/>
  <unicode hex="0074"/>
  <anchor x="189.11999999999998" y="275.0" name="center"/>
  <anchor x="139.76000000000002" y="663.68" name="top"/>
  <anchor x="300.68" y="764.6" name="topright"/>
  <anchor x="226.28" y="0.0" name="bottom"/>
  <outline>
    <contour>
      <point x="244.32000000000002" y="-10.0" type="curve" smooth="yes"/>
      <point x="280.92" y="-10.0"/>
      <point x="325.32" y="-3.4799999999999995"/>
      <point x="373.24" y="12.040000000000001" type="curve"/>
      <point x="363.56" y="60.800000000000004" type="line"/>
      <point x="329.96" y="50.0"/>
      <point x="296.6" y="43.4"/>
      <point x="261.91999999999996" y="43.4" type="curve" smooth="yes"/>
      <point x="194.12" y="43.4"/>
      <point x="165.6" y="76.56"/>
      <point x="165.6" y="153.68" type="curve" smooth="yes"/>
      <point x="165.6" y="486.16" type="line"/>
      <point x="356.64" y="486.16" type="line"/>
      <point x="356.64" y="534.0" type="line"/>
      <point x="165.6" y="534.0" type="line"/>
      <point x="165.6" y="663.68" type="line"/>
      <point x="113.43999999999998" y="663.68" type="line"/>
      <point x="104.6" y="534.0" type="line"/>
      <point x="8.6" y="527.1999999999999" type="line"/>
      <point x="8.6" y="486.28000000000003" type="line"/>
      <point x="104.6" y="486.28000000000003" type="line"/>
      <point x="104.6" y="149.92000000000002" type="line" smooth="yes"/>
      <point x="104.6" y="44.080000000000005"/>
      <point x="147.60000000000002" y="-10.0"/>
    </contour>
  </outline>
</glyph>
<glyph name="u" format="2">
  <advance width="532.76"/>
  <unicode hex="0075"/>
  <anchor x="528.04" y="3.9600000000000004" name="ogonek"/>
  <anchor x="259.96" y="534.0" name="top"/>
  <anchor x="451.16" y="534.0" name="topright"/>
  <anchor x="266.76" y="0.0" name="bottom"/>
  <outline>
    <contour>
      <point x="209.56" y="-10.0" type="curve" smooth="yes"/>
      <point x="280.28" y="-10.0"/>
      <point x="335.72" y="13.360000000000001"/>
      <point x="397.64" y="47.64" type="curve"/>
      <point x="407.20000000000005" y="8.52"/>
      <point x="436.0" y="-10.0"/>
      <point x="469.91999999999996" y="-10.0" type="curve" smooth="yes"/>
      <point x="490.23999999999995" y="-10.0"/>
      <point x="510.12" y="-4.959999999999999"/>
      <point x="528.04" y="3.9600000000000004" type="curve"/>
      <point x="519.52" y="49.36" type="line"/>
      <point x="510.1200000000001" y="44.92000000000001"/>
      <point x="500.35999999999996" y="42.800000000000004"/>
      <point x="491.0" y="42.800000000000004" type="curve" smooth="yes"/>
      <point x="468.56" y="42.800000000000004"/>
      <point x="451.16" y="57.2"/>
      <point x="451.16" y="102.52" type="curve" smooth="yes"/>
      <point x="451.16" y="534.0" type="line"/>
      <point x="390.16" y="534.0" type="line"/>
      <point x="390.16" y="91.84000000000002" type="line"/>
      <point x="336.28000000000003" y="62.6"/>
      <point x="288.67999999999995" y="42.36"/>
      <point x="231.64" y="42.36" type="curve" smooth="yes"/>
      <point x="163.16000000000003" y="42.36"/>
      <point x="128.28" y="79.72"/>
      <point x="128.28" y="141.79999999999998" type="curve" smooth="yes"/>
      <point x="128.28" y="534.0" type="line"/>
      <point x="67.16" y="534.0" type="line"/>
      <point x="67.16" y="130.67999999999998" type="line" smooth="yes"/>
      <point x="67.16" y="37.2"/>
      <point x="121.76" y="-10.0"/>
    </contour>
  </outline>
</glyph>
<glyph name="v" format="2">
  <advance width="484.44000000000005"/>
  <unicode hex="0076"/>
  <outline>
    <contour>
      <point x="209.84" y="0.0" type="line"/>
      <point x="273.68000000000006" y="0.0" type="line"/>
      <point x="472.76000000000005" y="531.12" type="line"/>
      <point x="410.44000000000005" y="536.88" type="line"/>
      <point x="243.68" y="66.92" type="line"/>
      <point x="74.39999999999999" y="536.88" type="line"/>
      <point x="11.48" y="531.12" type="line"/>
    </contour>
  </outline>
</glyph>
<glyph name="w" format="2">
  <advance width="707.96"/>
  <unicode hex="0077"/>
  <anchor x="353.52" y="534.0" name="top"/>
  <anchor x="353.52" y="0.0" name="bottom"/>
  <outline>
    <contour>
      <point x="159.72" y="0.0" type="line"/>
      <point x="226.24" y="0.0" type="line"/>
      <point x="352.88" y="457.88" type="line"/>
      <point x="481.44" y="0.0" type="line"/>
      <point x="546.5600000000001" y="0.0" type="line"/>
      <point x="696.04" y="530.76" type="line"/>
      <point x="636.52" y="536.4799999999999" type="line"/>
      <point x="513.76" y="70.19999999999999" type="line"/>
      <point x="385.48" y="534.0" type="line"/>
      <point x="321.48" y="534.0" type="line"/>
      <point x="195.79999999999998" y="69.44" type="line"/>
      <point x="72.36" y="536.4799999999999" type="line"/>
      <point x="10.92" y="530.76" type="line"/>
    </contour>
  </outline>
</glyph>
<glyph name="x" format="2">
  <advance width="503.4"/>
  <unicode hex="0078"/>
  <outline>
    <contour>
      <point x="11.2" y="1.6653345369377348e-16" type="line"/>
      <point x="78.4" y="-7.0" type="line"/>
      <point x="251.4" y="229.8" type="line"/>
      <point x="425.0" y="-7.0" type="line"/>
      <point x="492.79999999999995" y="1.6653345369377348e-16" type="line"/>
      <point x="287.59999999999997" y="274.40000000000003" type="line"/>
      <point x="479.4" y="530.8" type="line"/>
      <point x="415.6" y="538.2" type="line"/>
      <point x="254.4" y="316.2" type="line"/>
      <point x="93.6" y="538.2" type="line"/>
      <point x="25.8" y="530.2" type="line"/>
      <point x="217.0" y="272.0" type="line"/>
    </contour>
  </outline>
</glyph>
<glyph name="y" format="2">
  <advance width="485.64000000000004"/>
  <unicode hex="0079"/>
  <anchor x="238.28" y="534.0" name="top"/>
  <anchor x="384.00000000000006" y="0.0" name="bottom"/>
  <outline>
    <contour>
      <point x="164.95999999999998" y="-207.52" type="line"/>
      <point x="226.51999999999998" y="-213.24" type="line"/>
      <point x="473.32000000000005" y="532.8" type="line"/>
      <point x="411.24" y="537.92" type="line"/>
      <point x="258.24" y="60.080000000000005" type="line"/>
      <point x="76.83999999999999" y="538.1600000000001" type="line"/>
      <point x="11.959999999999999" y="532.4" type="line"/>
      <point x="221.92000000000002" y="0.0" type="line"/>
      <point x="232.56" y="0.0" type="line"/>
    </contour>
  </outline>
</glyph>
<glyph name="z" format="2">
  <advance width="467.64"/>
  <unicode hex="007A"/>
  <anchor x="238.48000000000002" y="534.0" name="top"/>
  <outline>
    <contour>
      <point x="27.560000000000002" y="0.0" type="line"/>
      <point x="445.88000000000005" y="0.0" type="line"/>
      <point x="445.88000000000005" y="50.43999999999999" type="line"/>
      <point x="104.44000000000001" y="50.43999999999999" type="line"/>
      <point x="424.96" y="489.20000000000005" type="line"/>
      <point x="424.96" y="534.0" type="line"/>
      <point x="45.31999999999999" y="534.0" type="line"/>
      <point x="45.31999999999999" y="483.96000000000004" type="line"/>
      <point x="350.03999999999996" y="483.96000000000004" type="line"/>
      <point x="27.560000000000002" y="45.2" type="line"/>
    </contour>
  </outline>
</glyph>
<glyph name="braceleft" format="2">
  <advance width="310.92"/>
  <unicode hex="007B"/>
  <outline>
    <contour>
      <point x="105.28000000000002" y="-63.84" type="curve" smooth="yes"/>
      <point x="105.28000000000002" y="-147.27999999999997"/>
      <point x="142.72" y="-210.11999999999998"/>
      <point x="230.39999999999998" y="-210.11999999999998" type="curve" smooth="yes"/>
      <point x="275.08" y="-210.11999999999998" type="line"/>
      <point x="275.08" y="-163.72" type="line"/>
      <point x="242.39999999999998" y="-163.72" type="line" smooth="yes"/>
      <point x="178.8" y="-163.72"/>
      <point x="159.44" y="-114.48"/>
      <point x="159.44" y="-58.44" type="curve" smooth="yes"/>
      <point x="159.44" y="14.64"/>
      <point x="191.92" y="77.52"/>
      <point x="191.92" y="154.48" type="curve" smooth="yes"/>
      <point x="191.92" y="193.35999999999999"/>
      <point x="181.76" y="246.56"/>
      <point x="138.56000000000003" y="265.0" type="curve"/>
      <point x="181.44" y="286.92"/>
      <point x="191.92" y="335.88"/>
      <point x="191.92" y="374.76" type="curve" smooth="yes"/>
      <point x="191.92" y="449.64000000000004"/>
      <point x="159.44" y="510.92"/>
      <point x="159.44" y="587.68" type="curve" smooth="yes"/>
      <point x="159.44" y="643.7199999999999"/>
      <point x="178.8" y="693.6"/>
      <point x="242.39999999999998" y="693.6" type="curve" smooth="yes"/>
      <point x="275.08" y="693.6" type="line"/>
      <point x="275.08" y="740.0" type="line"/>
      <point x="230.39999999999998" y="740.0" type="line" smooth="yes"/>
      <point x="142.72" y="740.0"/>
      <point x="105.28000000000002" y="676.52"/>
      <point x="105.28000000000002" y="593.08" type="curve" smooth="yes"/>
      <point x="105.28000000000002" y="504.0"/>
      <point x="139.16" y="445.12"/>
      <point x="139.16" y="373.36" type="curve" smooth="yes"/>
      <point x="139.16" y="334.8"/>
      <point x="128.32000000000002" y="288.6"/>
      <point x="93.67999999999999" y="288.6" type="curve" smooth="yes"/>
      <point x="73.52" y="288.6" type="line"/>
      <point x="73.52" y="241.28" type="line"/>
      <point x="93.67999999999999" y="241.28" type="line" smooth="yes"/>
      <point x="128.32000000000002" y="241.28"/>
      <point x="139.16" y="194.92000000000002"/>
      <point x="139.16" y="155.88000000000002" type="curve" smooth="yes"/>
      <point x="139.16" y="83.32"/>
      <point x="105.28000000000002" y="21.240000000000002"/>
    </contour>
  </outline>
</glyph>
<glyph name="bar" format="2">
  <advance width="198.32000000000002"/>
  <unicode hex="007C"/>
  <outline>
    <contour>
      <point x="125.36" y="790.12" type="line"/>
      <point x="72.96000000000001" y="790.12" type="line"/>
      <point x="72.96000000000001" y="-210.0" type="line"/>
      <point x="125.36" y="-210.0" type="line"/>
    </contour>
  </outline>
</glyph>
<glyph name="braceright" format="2">
  <advance width="310.92"/>
  <unicode hex="007D"/>
  <outline>
    <contour>
      <point x="35.84" y="-163.72" type="line"/>
      <point x="35.84" y="-210.11999999999998" type="line"/>
      <point x="81.00000000000001" y="-210.11999999999998" type="line" smooth="yes"/>
      <point x="168.68" y="-210.11999999999998"/>
      <point x="206.12" y="-147.27999999999997"/>
      <point x="206.12" y="-63.84" type="curve" smooth="yes"/>
      <point x="206.12" y="21.240000000000002"/>
      <point x="172.24" y="83.32"/>
      <point x="172.24" y="155.88000000000002" type="curve" smooth="yes"/>
      <point x="172.24" y="194.92000000000002"/>
      <point x="183.08" y="241.28"/>
      <point x="217.72" y="241.28" type="curve" smooth="yes"/>
      <point x="237.4" y="241.28" type="line"/>
      <point x="237.4" y="288.6" type="line"/>
      <point x="217.72" y="288.6" type="line" smooth="yes"/>
      <point x="182.6" y="288.6"/>
      <point x="172.24" y="334.8"/>
      <point x="172.24" y="373.36" type="curve" smooth="yes"/>
      <point x="172.24" y="445.12"/>
      <point x="206.12" y="504.0"/>
      <point x="206.12" y="593.08" type="curve" smooth="yes"/>
      <point x="206.12" y="676.52"/>
      <point x="168.68" y="740.0"/>
      <point x="81.00000000000001" y="740.0" type="curve" smooth="yes"/>
      <point x="35.84" y="740.0" type="line"/>
      <point x="35.84" y="693.6" type="line"/>
      <point x="66.96000000000001" y="693.6" type="line" smooth="yes"/>
      <point x="130.07999999999998" y="693.6"/>
      <point x="149.92" y="643.7199999999999"/>
      <point x="149.92" y="587.68" type="curve" smooth="yes"/>
      <point x="149.92" y="510.92"/>
      <point x="117.44" y="449.64000000000004"/>
      <point x="117.44" y="374.76" type="curve" smooth="yes"/>
      <point x="117.44" y="335.88"/>
      <point x="127.44000000000001" y="286.92"/>
      <point x="170.79999999999998" y="265.0" type="curve"/>
      <point x="127.12" y="246.56"/>
      <point x="117.44" y="193.35999999999999"/>
      <point x="117.44" y="154.48" type="curve" smooth="yes"/>
      <point x="117.44" y="77.52"/>
      <point x="149.92" y="14.64"/>
      <point x="149.92" y="-58.44" type="curve" smooth="yes"/>
      <point x="149.92" y="-114.48"/>
      <point x="130.07999999999998" y="-163.72"/>
      <point x="66.96000000000001" y="-163.72" type="curve" smooth="yes"/>
    </contour>
  </outline>
</glyph>
<glyph name="asciitilde" format="2">
  <advance width="469.76"/>
  <unicode hex="007E"/>
  <outline>
    <contour>
      <point x="408.8" y="252.92" type="curve"/>
      <point x="408.8" y="307.8" type="line"/>
      <point x="386.64000000000004" y="283.72"/>
      <point x="364.72" y="267.8"/>
      <point x="333.24" y="267.8" type="curve" smooth="yes"/>
      <point x="256.92" y="267.8"/>
      <point x="214.84000000000003" y="372.92"/>
      <point x="137.51999999999998" y="372.92" type="curve" smooth="yes"/>
      <point x="102.72" y="372.92"/>
      <point x="78.36" y="355.76000000000005"/>
      <point x="61.519999999999996" y="337.23999999999995" type="curve"/>
      <point x="61.519999999999996" y="282.03999999999996" type="line"/>
      <point x="80.52" y="302.96"/>
      <point x="103.12" y="321.40000000000003"/>
      <point x="136.8" y="321.40000000000003" type="curve" smooth="yes"/>
      <point x="207.15999999999997" y="321.40000000000003"/>
      <point x="250.68" y="216.2"/>
      <point x="333.48" y="216.2" type="curve" smooth="yes"/>
      <point x="366.4" y="216.2"/>
      <point x="388.64" y="230.92"/>
    </contour>
  </outline>
</glyph>
<glyph name="exclamdown" format="2">
  <advance width="217.44"/>
  <unicode hex="00A1"/>
  <outline>
    <contour>
      <point x="136.28" y="270.92" type="line"/>
      <point x="81.96" y="270.92" type="line"/>
      <point x="78.44000000000001" y="-206.08" type="line"/>
      <point x="139.44" y="-206.08" type="line"/>
    </contour>
    <contour>
      <point x="145.08" y="499.24" type="curve" smooth="yes"/>
      <point x="145.08" y="527.4"/>
      <point x="137.8" y="536.0"/>
      <point x="108.72" y="536.0" type="curve" smooth="yes"/>
      <point x="80.44000000000001" y="536.0"/>
      <point x="72.36" y="527.4"/>
      <point x="72.36" y="499.24" type="curve" smooth="yes"/>
      <point x="72.36" y="470.88"/>
      <point x="79.64" y="462.28000000000003"/>
      <point x="108.72" y="462.28000000000003" type="curve" smooth="yes"/>
      <point x="137.8" y="462.28000000000003"/>
      <point x="145.08" y="470.88"/>
    </contour>
  </outline>
</glyph>
<glyph name="cent" format="2">
  <advance width="585.28"/>
  <unicode hex="00A2"/>
  <outline>
    <contour>
      <point x="313.76" y="-10.12" type="curve" smooth="yes"/>
      <point x="370.76" y="-10.12"/>
      <point x="437.52000000000004" y="-2.1999999999999997"/>
      <point x="485.36" y="10.800000000000002" type="curve"/>
      <point x="475.4000000000001" y="60.800000000000004" type="line"/>
      <point x="430.79999999999995" y="50.36"/>
      <point x="373.35999999999996" y="43.92"/>
      <point x="326.08" y="43.92" type="curve" smooth="yes"/>
      <point x="218.84" y="43.92"/>
      <point x="161.64000000000001" y="114.0"/>
      <point x="161.64000000000001" y="256.64000000000004" type="curve" smooth="yes"/>
      <point x="161.64000000000001" y="412.71999999999997"/>
      <point x="225.24" y="489.56"/>
      <point x="336.0" y="489.56" type="curve" smooth="yes"/>
      <point x="382.88" y="489.56"/>
      <point x="418.20000000000005" y="484.6"/>
      <point x="466.59999999999997" y="472.48" type="curve"/>
      <point x="476.32" y="524.36" type="line"/>
      <point x="428.96" y="537.48"/>
      <point x="383.36" y="544.24"/>
      <point x="328.84" y="544.24" type="curve" smooth="yes"/>
      <point x="175.12" y="544.24"/>
      <point x="100.12" y="437.2"/>
      <point x="100.12" y="255.44" type="curve" smooth="yes"/>
      <point x="100.12" y="78.84"/>
      <point x="171.96" y="-10.12"/>
    </contour>
    <contour>
      <point x="282.56" y="-105.12" type="line"/>
      <point x="333.96" y="-105.12" type="line"/>
      <point x="333.96" y="-1.3599999999999999" type="line"/>
      <point x="282.56" y="1.3199999999999998" type="line"/>
    </contour>
    <contour>
      <point x="282.56" y="531.24" type="line"/>
      <point x="333.96" y="536.12" type="line"/>
      <point x="333.96" y="638.88" type="line"/>
      <point x="282.56" y="638.88" type="line"/>
    </contour>
  </outline>
</glyph>
<glyph name="sterling" format="2">
  <advance width="585.76"/>
  <unicode hex="00A3"/>
  <outline>
    <contour>
      <point x="74.72000000000001" y="0.0" type="line"/>
      <point x="534.8400000000001" y="0.0" type="line"/>
      <point x="534.8400000000001" y="51.6" type="line"/>
      <point x="146.39999999999998" y="51.6" type="line"/>
      <point x="211.35999999999999" y="121.2"/>
      <point x="244.16" y="169.88"/>
      <point x="244.16" y="245.04000000000002" type="curve" smooth="yes"/>
      <point x="244.16" y="342.91999999999996"/>
      <point x="172.88000000000002" y="399.20000000000005"/>
      <point x="172.88000000000002" y="500.44" type="curve" smooth="yes"/>
      <point x="172.88000000000002" y="607.8"/>
      <point x="242.51999999999998" y="654.8"/>
      <point x="342.96000000000004" y="654.8" type="curve" smooth="yes"/>
      <point x="390.31999999999994" y="654.8"/>
      <point x="458.20000000000005" y="645.96"/>
      <point x="505.08" y="633.84" type="curve"/>
      <point x="515.4" y="682.8" type="line"/>
      <point x="471.36" y="698.72"/>
      <point x="391.92" y="710.0"/>
      <point x="335.76" y="710.0" type="curve" smooth="yes"/>
      <point x="189.68" y="710.0"/>
      <point x="109.68" y="632.9200000000001"/>
      <point x="109.68" y="514.1999999999999" type="curve" smooth="yes"/>
      <point x="109.68" y="392.32"/>
      <point x="184.56" y="342.2"/>
      <point x="184.56" y="242.16" type="curve" smooth="yes"/>
      <point x="184.56" y="170.68"/>
      <point x="153.59999999999997" y="127.96000000000001"/>
      <point x="74.72000000000001" y="44.00000000000001" type="curve"/>
    </contour>
    <contour>
      <point x="63.2" y="342.8" type="line"/>
      <point x="441.2" y="342.8" type="line"/>
      <point x="441.2" y="389.59999999999997" type="line"/>
      <point x="63.2" y="389.59999999999997" type="line"/>
    </contour>
  </outline>
</glyph>
<glyph name="currency" format="2">
  <advance width="444.8"/>
  <unicode hex="00A4"/>
  <outline>
    <contour>
      <point x="39.64" y="440.76" type="line"/>
      <point x="108.76" y="370.64" type="line"/>
      <point x="92.76" y="349.32"/>
      <point x="82.72" y="322.32"/>
      <point x="82.72" y="291.96000000000004" type="curve" smooth="yes"/>
      <point x="82.72" y="261.4"/>
      <point x="92.76" y="234.07999999999998"/>
      <point x="109.76" y="212.64000000000001" type="curve"/>
      <point x="39.64" y="142.52" type="line"/>
      <point x="73.67999999999999" y="108.48" type="line"/>
      <point x="146.23999999999998" y="180.96" type="line"/>
      <point x="166.76000000000002" y="164.56"/>
      <point x="193.2" y="155.76"/>
      <point x="222.11999999999998" y="155.76" type="curve" smooth="yes"/>
      <point x="250.96" y="155.76"/>
      <point x="277.92" y="164.64"/>
      <point x="298.48" y="180.92" type="curve"/>
      <point x="371.12" y="108.48" type="line"/>
      <point x="405.16" y="142.52" type="line"/>
      <point x="335.12" y="212.44" type="line"/>
      <point x="352.08000000000004" y="234.04"/>
      <point x="362.24" y="261.32"/>
      <point x="362.24" y="291.96000000000004" type="curve" smooth="yes"/>
      <point x="362.24" y="322.28"/>
      <point x="352.16" y="349.36"/>
      <point x="335.24" y="370.84" type="curve"/>
      <point x="405.16" y="440.76" type="line"/>
      <point x="371.12" y="474.8" type="line"/>
      <point x="298.96000000000004" y="402.64" type="line"/>
      <point x="278.28" y="419.0"/>
      <point x="251.88" y="428.8"/>
      <point x="222.11999999999998" y="428.8" type="curve" smooth="yes"/>
      <point x="192.16" y="428.8"/>
      <point x="165.72" y="418.88"/>
      <point x="144.96" y="402.6" type="curve"/>
      <point x="73.67999999999999" y="474.8" type="line"/>
    </contour>
    <contour>
      <point x="222.04" y="195.95999999999998" type="curve" smooth="yes"/>
      <point x="168.56" y="195.95999999999998"/>
      <point x="126.16" y="238.28"/>
      <point x="126.16" y="291.84000000000003" type="curve" smooth="yes"/>
      <point x="126.16" y="345.71999999999997"/>
      <point x="168.48000000000002" y="388.48"/>
      <point x="222.04" y="388.48" type="curve" smooth="yes"/>
      <point x="276.4" y="388.48"/>
      <point x="318.79999999999995" y="345.71999999999997"/>
      <point x="318.79999999999995" y="291.84000000000003" type="curve" smooth="yes"/>
      <point x="318.79999999999995" y="238.28"/>
      <point x="276.32" y="195.95999999999998"/>
    </contour>
  </outline>
</glyph>
<glyph name="yen" format="2">
  <advance width="586.0"/>
  <unicode hex="00A5"/>
  <outline>
    <contour>
      <point x="85.2" y="346.8" type="line"/>
      <point x="265.40000000000003" y="346.8" type="line"/>
      <point x="265.40000000000003" y="233.0" type="line"/>
      <point x="85.2" y="233.0" type="line"/>
      <point x="85.2" y="193.0" type="line"/>
      <point x="265.40000000000003" y="193.0" type="line"/>
      <point x="265.40000000000003" y="0.0" type="line"/>
      <point x="329.0" y="0.0" type="line"/>
      <point x="329.0" y="193.0" type="line"/>
      <point x="510.0" y="193.0" type="line"/>
      <point x="510.0" y="233.0" type="line"/>
      <point x="329.0" y="233.0" type="line"/>
      <point x="329.0" y="346.8" type="line"/>
      <point x="510.0" y="346.8" type="line"/>
      <point x="510.0" y="386.8" type="line"/>
      <point x="329.0" y="386.8" type="line"/>
      <point x="531.2" y="696.1999999999999" type="line"/>
      <point x="467.59999999999997" y="704.2" type="line"/>
      <point x="297.0" y="430.0" type="line"/>
      <point x="118.8" y="704.2" type="line"/>
      <point x="55.2" y="696.1999999999999" type="line"/>
      <point x="265.40000000000003" y="386.8" type="line"/>
      <point x="85.2" y="386.8" type="line"/>
    </contour>
  </outline>
</glyph>
<glyph name="brokenbar" format="2">
  <advance width="198.20000000000002"/>
  <unicode hex="00A6"/>
  <outline>
    <contour>
      <point x="125.24000000000001" y="391.0" type="line"/>
      <point x="125.24000000000001" y="790.12" type="line"/>
      <point x="72.96000000000001" y="790.12" type="line"/>
      <point x="72.96000000000001" y="391.0" type="line"/>
    </contour>
    <contour>
      <point x="72.96000000000001" y="190.11999999999998" type="line"/>
      <point x="72.96000000000001" y="-210.0" type="line"/>
      <point x="125.24000000000001" y="-210.0" type="line"/>
      <point x="125.24000000000001" y="190.11999999999998" type="line"/>
    </contour>
  </outline>
</glyph>
<glyph name="section" format="2">
  <advance width="487.92"/>
  <unicode hex="00A7"/>
  <outline>
    <contour>
      <point x="211.79999999999998" y="-220.39999999999998" type="curve" smooth="yes"/>
      <point x="351.2" y="-220.39999999999998"/>
      <point x="451.2" y="-107.52000000000001"/>
      <point x="451.2" y="52.44" type="curve" smooth="yes"/>
      <point x="451.2" y="139.92"/>
      <point x="426.36000000000007" y="222.83999999999997"/>
      <point x="347.24" y="395.43999999999994" type="curve" smooth="yes"/>
      <point x="286.23999999999995" y="532.4399999999999"/>
      <point x="271.28000000000003" y="566.6799999999998"/>
      <point x="271.28000000000003" y="608.04" type="curve" smooth="yes"/>
      <point x="271.28000000000003" y="659.0799999999999"/>
      <point x="301.08" y="689.88"/>
      <point x="350.56" y="689.88" type="curve" smooth="yes"/>
      <point x="369.8" y="689.88"/>
      <point x="390.56000000000006" y="686.28"/>
      <point x="418.96000000000004" y="675.8399999999999" type="curve"/>
      <point x="431.67999999999995" y="727.56" type="line"/>
      <point x="391.44" y="742.72"/>
      <point x="349.12" y="749.64"/>
      <point x="306.32" y="749.64" type="curve" smooth="yes"/>
      <point x="148.64000000000001" y="749.64"/>
      <point x="52.0" y="646.16"/>
      <point x="52.199999999999996" y="477.91999999999996" type="curve" smooth="yes"/>
      <point x="52.6" y="382.19999999999993"/>
      <point x="77.19999999999999" y="295.31999999999994"/>
      <point x="154.12000000000003" y="136.79999999999998" type="curve" smooth="yes"/>
      <point x="206.0" y="19.52"/>
      <point x="229.0" y="-26.8"/>
      <point x="229.24" y="-78.04" type="curve" smooth="yes"/>
      <point x="229.48000000000002" y="-126.71999999999998"/>
      <point x="198.04000000000002" y="-158.07999999999998"/>
      <point x="151.44" y="-158.07999999999998" type="curve" smooth="yes"/>
      <point x="118.36000000000001" y="-158.07999999999998"/>
      <point x="91.76" y="-146.92"/>
      <point x="49.440000000000005" y="-114.75999999999999" type="curve"/>
      <point x="33.120000000000005" y="-164.44" type="line"/>
      <point x="93.08" y="-205.64000000000001"/>
      <point x="140.88" y="-220.39999999999998"/>
    </contour>
    <contour>
      <point x="211.72" y="-182.35999999999999" type="curve" smooth="yes"/>
      <point x="184.28" y="-182.35999999999999"/>
      <point x="164.08" y="-179.32"/>
      <point x="146.12000000000003" y="-172.72" type="curve"/>
      <point x="166.83999999999997" y="-187.56" type="line"/>
      <point x="232.56000000000003" y="-189.20000000000002"/>
      <point x="277.08000000000004" y="-141.60000000000002"/>
      <point x="277.08000000000004" y="-78.4" type="curve" smooth="yes"/>
      <point x="277.08000000000004" y="-27.04"/>
      <point x="261.12" y="24.240000000000006"/>
      <point x="198.6" y="157.2" type="curve" smooth="yes"/>
      <point x="123.47999999999999" y="319.36"/>
      <point x="100.24" y="392.76"/>
      <point x="100.24" y="487.11999999999995" type="curve" smooth="yes"/>
      <point x="100.24" y="621.8399999999999"/>
      <point x="171.32" y="702.9200000000001"/>
      <point x="276.76" y="702.9200000000001" type="curve" smooth="yes"/>
      <point x="289.88" y="702.9200000000001"/>
      <point x="299.68" y="701.88"/>
      <point x="314.24000000000007" y="699.0400000000001" type="curve"/>
      <point x="301.91999999999996" y="711.9200000000001" type="line"/>
      <point x="250.79999999999998" y="706.88"/>
      <point x="223.12" y="659.12"/>
      <point x="222.48000000000002" y="609.5600000000001" type="curve" smooth="yes"/>
      <point x="222.48000000000002" y="558.9200000000001"/>
      <point x="238.96000000000004" y="513.24"/>
      <point x="301.6" y="377.8" type="curve" smooth="yes"/>
      <point x="380.12" y="201.92000000000002"/>
      <point x="403.92" y="128.52"/>
      <point x="403.92" y="46.04" type="curve" smooth="yes"/>
      <point x="404.15999999999997" y="-83.16"/>
      <point x="334.76" y="-182.12"/>
    </contour>
  </outline>
</glyph>
<glyph name="copyright" format="2">
  <advance width="649.84"/>
  <unicode hex="00A9"/>
  <outline>
    <contour>
      <point x="325.0" y="20.12" type="curve" smooth="yes"/>
      <point x="179.24000000000004" y="20.12"/>
      <point x="78.99999999999999" y="106.96"/>
      <point x="78.99999999999999" y="349.96" type="curve" smooth="yes"/>
      <point x="78.99999999999999" y="593.6"/>
      <point x="179.4" y="679.4799999999999"/>
      <point x="325.0" y="679.4799999999999" type="curve" smooth="yes"/>
      <point x="470.79999999999995" y="679.4799999999999"/>
      <point x="570.72" y="593.6"/>
      <point x="570.72" y="349.96" type="curve" smooth="yes"/>
      <point x="570.72" y="106.96"/>
      <point x="470.96000000000004" y="20.12"/>
    </contour>
    <contour>
      <point x="325.0" y="710.0" type="curve" smooth="yes"/>
      <point x="159.92000000000002" y="710.0"/>
      <point x="47.0" y="613.72"/>
      <point x="47.0" y="349.96" type="curve" smooth="yes"/>
      <point x="47.0" y="86.80000000000001"/>
      <point x="159.76000000000002" y="-10.0"/>
      <point x="325.0" y="-10.0" type="curve" smooth="yes"/>
      <point x="490.08" y="-10.0"/>
      <point x="602.8400000000001" y="86.80000000000001"/>
      <point x="602.8400000000001" y="349.96" type="curve" smooth="yes"/>
      <point x="602.8400000000001" y="613.72"/>
      <point x="490.08000000000004" y="710.0"/>
    </contour>
    <contour>
      <point x="189.60000000000002" y="338.40000000000003" type="curve" smooth="yes"/>
      <point x="189.60000000000002" y="217.76"/>
      <point x="242.6" y="163.04"/>
      <point x="328.92" y="163.04" type="curve" smooth="yes"/>
      <point x="375.52" y="163.04"/>
      <point x="417.08" y="171.0"/>
      <point x="442.92" y="179.39999999999998" type="curve"/>
      <point x="434.72" y="218.56" type="line"/>
      <point x="412.84" y="212.48"/>
      <point x="375.79999999999995" y="205.6"/>
      <point x="334.72" y="205.6" type="curve" smooth="yes"/>
      <point x="268.44000000000005" y="205.6"/>
      <point x="237.96" y="250.8"/>
      <point x="237.96" y="338.2" type="curve" smooth="yes"/>
      <point x="237.96" y="447.48"/>
      <point x="278.28" y="485.08"/>
      <point x="346.04" y="485.08" type="curve" smooth="yes"/>
      <point x="374.24000000000007" y="485.08"/>
      <point x="399.52000000000004" y="481.56"/>
      <point x="424.99999999999994" y="474.36" type="curve"/>
      <point x="433.88" y="513.68" type="line"/>
      <point x="405.12" y="523.8"/>
      <point x="374.44000000000005" y="527.8"/>
      <point x="340.9200000000001" y="527.8" type="curve" smooth="yes"/>
      <point x="252.76" y="527.8"/>
      <point x="189.60000000000002" y="478.67999999999995"/>
    </contour>
  </outline>
</glyph>
<glyph name="ordfeminine" format="2">
  <advance width="344.71999999999997"/>
  <unicode hex="00AA"/>
  <outline>
    <contour>
      <point x="43.919999999999995" y="273.16" type="line"/>
      <point x="311.16" y="273.16" type="line"/>
      <point x="311.16" y="309.55999999999995" type="line"/>
      <point x="43.919999999999995" y="309.55999999999995" type="line"/>
    </contour>
    <component base="a.superior" xOffset="12.159999999999998"/>
  </outline>
</glyph>
<glyph name="logicalnot" format="2">
  <advance width="469.76"/>
  <unicode hex="00AC"/>
  <outline>
    <contour>
      <point x="50.64" y="364.12" type="line"/>
      <point x="368.0" y="364.12" type="line"/>
      <point x="368.0" y="175.24" type="line"/>
      <point x="419.6" y="175.24" type="line"/>
      <point x="419.6" y="415.72" type="line"/>
      <point x="50.64" y="415.72" type="line"/>
    </contour>
  </outline>
</glyph>
<glyph name="registered" format="2">
  <advance width="622.6800000000001"/>
  <unicode hex="00AE"/>
  <outline>
    <contour>
      <point x="310.24" y="208.04" type="curve" smooth="yes"/>
      <point x="468.56" y="208.04"/>
      <point x="575.68" y="299.52"/>
      <point x="575.68" y="550.32" type="curve" smooth="yes"/>
      <point x="575.68" y="801.04"/>
      <point x="468.64000000000004" y="892.6"/>
      <point x="310.24" y="892.6" type="curve" smooth="yes"/>
      <point x="153.64" y="892.6"/>
      <point x="47.0" y="801.04"/>
      <point x="47.0" y="550.32" type="curve" smooth="yes"/>
      <point x="47.0" y="300.36"/>
      <point x="153.36" y="208.04"/>
    </contour>
    <contour>
      <point x="310.24" y="236.55999999999997" type="curve" smooth="yes"/>
      <point x="171.8" y="236.55999999999997"/>
      <point x="77.71999999999998" y="319.44"/>
      <point x="77.71999999999998" y="550.32" type="curve" smooth="yes"/>
      <point x="77.71999999999998" y="781.8799999999999"/>
      <point x="171.72" y="863.52"/>
      <point x="310.24" y="863.52" type="curve" smooth="yes"/>
      <point x="450.72" y="863.52"/>
      <point x="545.24" y="781.96"/>
      <point x="545.24" y="550.32" type="curve" smooth="yes"/>
      <point x="545.24" y="319.15999999999997"/>
      <point x="450.52" y="236.55999999999997"/>
    </contour>
    <contour>
      <point x="451.24" y="390.24" type="curve" smooth="yes"/>
      <point x="454.56" y="390.24"/>
      <point x="457.03999999999996" y="390.24"/>
      <point x="461.12000000000006" y="390.72" type="curve"/>
      <point x="459.68" y="432.2" type="line"/>
      <point x="457.96" y="431.72"/>
      <point x="456.36" y="431.72"/>
      <point x="454.36000000000007" y="431.72" type="curve" smooth="yes"/>
      <point x="429.04" y="431.84000000000003"/>
      <point x="397.24" y="465.20000000000005"/>
      <point x="360.84000000000003" y="533.1999999999999" type="curve"/>
      <point x="408.4" y="544.88"/>
      <point x="429.96000000000004" y="576.68"/>
      <point x="429.96000000000004" y="629.5200000000001" type="curve" smooth="yes"/>
      <point x="429.96000000000004" y="697.4799999999999"/>
      <point x="393.76" y="723.0"/>
      <point x="300.71999999999997" y="723.0" type="curve" smooth="yes"/>
      <point x="269.24000000000007" y="723.0"/>
      <point x="240.24" y="721.5600000000001"/>
      <point x="198.84" y="717.96" type="curve"/>
      <point x="198.84" y="392.52000000000004" type="line"/>
      <point x="242.32" y="392.52000000000004" type="line"/>
      <point x="242.32" y="522.8799999999999" type="line"/>
      <point x="263.68" y="522.16"/>
      <point x="280.08" y="521.2799999999999"/>
      <point x="298.64000000000004" y="521.2799999999999" type="curve" smooth="yes"/>
      <point x="304.36" y="521.2799999999999"/>
      <point x="309.76000000000005" y="521.2799999999999"/>
      <point x="315.28000000000003" y="521.76" type="curve"/>
      <point x="364.15999999999997" y="422.96000000000004"/>
      <point x="410.20000000000005" y="390.44"/>
    </contour>
    <contour>
      <point x="300.84000000000003" y="553.4" type="curve" smooth="yes"/>
      <point x="281.92" y="553.4"/>
      <point x="265.44" y="553.72"/>
      <point x="242.32" y="554.6400000000001" type="curve"/>
      <point x="242.32" y="683.24" type="line"/>
      <point x="268.99999999999994" y="685.5600000000001"/>
      <point x="277.8" y="686.28"/>
      <point x="301.8" y="686.28" type="curve" smooth="yes"/>
      <point x="371.48" y="686.28"/>
      <point x="385.59999999999997" y="665.08"/>
      <point x="385.59999999999997" y="624.4" type="curve" smooth="yes"/>
      <point x="385.59999999999997" y="574.1999999999999"/>
      <point x="361.1600000000001" y="553.4"/>
    </contour>
  </outline>
</glyph>
<glyph name="degree" format="2">
  <advance width="268.79999999999995"/>
  <unicode hex="00B0"/>
  <outline>
    <contour>
      <point x="133.68" y="485.59999999999997" type="curve" smooth="yes"/>
      <point x="200.28000000000003" y="485.59999999999997"/>
      <point x="239.36" y="539.48"/>
      <point x="239.36" y="604.2" type="curve" smooth="yes"/>
      <point x="239.36" y="667.6"/>
      <point x="201.64" y="724.4"/>
      <point x="133.68" y="724.4" type="curve" smooth="yes"/>
      <point x="65.56" y="724.4"/>
      <point x="29.44" y="667.6"/>
      <point x="29.44" y="604.2" type="curve" smooth="yes"/>
      <point x="29.44" y="539.48"/>
      <point x="67.08" y="485.59999999999997"/>
    </contour>
    <contour>
      <point x="133.68" y="529.52" type="curve" smooth="yes"/>
      <point x="95.60000000000001" y="529.52"/>
      <point x="73.36" y="562.24"/>
      <point x="73.36" y="604.08" type="curve" smooth="yes"/>
      <point x="73.36" y="645.36"/>
      <point x="95.32000000000001" y="679.84"/>
      <point x="133.68" y="679.84" type="curve" smooth="yes"/>
      <point x="171.88" y="679.84"/>
      <point x="195.6" y="645.36"/>
      <point x="195.6" y="604.08" type="curve" smooth="yes"/>
      <point x="195.6" y="562.24"/>
      <point x="171.76000000000002" y="529.52"/>
    </contour>
  </outline>
</glyph>
<glyph name="plusminus" format="2">
  <advance width="485.12"/>
  <unicode hex="00B1"/>
  <outline>
    <contour>
      <point x="48.720000000000006" y="57.52" type="line"/>
      <point x="436.40000000000003" y="57.52" type="line"/>
      <point x="436.40000000000003" y="109.11999999999999" type="line"/>
      <point x="269.92" y="109.11999999999999" type="line"/>
      <point x="269.92" y="292.04" type="line"/>
      <point x="436.40000000000003" y="292.04" type="line"/>
      <point x="436.40000000000003" y="343.64000000000004" type="line"/>
      <point x="269.92" y="343.64000000000004" type="line"/>
      <point x="269.92" y="519.0" type="line"/>
      <point x="215.12" y="519.0" type="line"/>
      <point x="215.12" y="343.64000000000004" type="line"/>
      <point x="48.720000000000006" y="343.64000000000004" type="line"/>
      <point x="48.720000000000006" y="292.04" type="line"/>
      <point x="215.12" y="292.04" type="line"/>
      <point x="215.12" y="109.11999999999999" type="line"/>
      <point x="48.720000000000006" y="109.11999999999999" type="line"/>
    </contour>
  </outline>
</glyph>
<glyph name="uni00B2" format="2">
  <advance width="396.52"/>
  <unicode hex="00B2"/>
  <outline>
    <contour>
      <point x="60.28" y="370.0" type="line"/>
      <point x="341.76" y="370.0" type="line"/>
      <point x="341.76" y="403.72" type="line"/>
      <point x="124.84" y="403.72" type="line"/>
      <point x="264.08000000000004" y="531.92"/>
      <point x="296.96000000000004" y="592.52"/>
      <point x="296.96000000000004" y="659.04" type="curve" smooth="yes"/>
      <point x="296.96000000000004" y="731.56"/>
      <point x="254.8" y="773.72"/>
      <point x="180.6" y="773.72" type="curve" smooth="yes"/>
      <point x="140.4" y="773.72"/>
      <point x="96.48" y="762.76"/>
      <point x="63.279999999999994" y="738.8" type="curve"/>
      <point x="77.76" y="705.52" type="line"/>
      <point x="108.32" y="726.6"/>
      <point x="139.92000000000002" y="733.4"/>
      <point x="171.96" y="733.4" type="curve" smooth="yes"/>
      <point x="221.64000000000001" y="733.4"/>
      <point x="249.36000000000004" y="701.4"/>
      <point x="249.36000000000004" y="650.48" type="curve" smooth="yes"/>
      <point x="249.36000000000004" y="591.4399999999999"/>
      <point x="203.84" y="523.0400000000001"/>
      <point x="57.88" y="399.96000000000004" type="curve"/>
    </contour>
  </outline>
</glyph>
<glyph name="uni00B3" format="2">
  <advance width="382.56"/>
  <unicode hex="00B3"/>
  <outline>
    <contour>
      <point x="34.0" y="395.04" type="line"/>
      <point x="75.72" y="371.08"/>
      <point x="119.76" y="360.96"/>
      <point x="177.40000000000003" y="360.96" type="curve" smooth="yes"/>
      <point x="277.88" y="360.96"/>
      <point x="339.56000000000006" y="405.68"/>
      <point x="339.56000000000006" y="483.40000000000003" type="curve" smooth="yes"/>
      <point x="339.56000000000006" y="535.0"/>
      <point x="309.9200000000001" y="569.4399999999999"/>
      <point x="253.32000000000002" y="578.88" type="curve"/>
      <point x="295.2" y="589.96"/>
      <point x="319.72" y="624.1599999999999"/>
      <point x="319.72" y="669.52" type="curve" smooth="yes"/>
      <point x="319.72" y="733.5600000000001"/>
      <point x="268.15999999999997" y="773.6400000000001"/>
      <point x="177.24" y="773.6400000000001" type="curve" smooth="yes"/>
      <point x="120.72" y="773.6400000000001"/>
      <point x="77.08000000000001" y="763.04"/>
      <point x="51.88" y="750.4399999999999" type="curve"/>
      <point x="63.32000000000001" y="718.92" type="line"/>
      <point x="84.68" y="727.32"/>
      <point x="114.32" y="736.12"/>
      <point x="167.72000000000003" y="736.12" type="curve" smooth="yes"/>
      <point x="234.12" y="736.12"/>
      <point x="275.20000000000005" y="707.9999999999999"/>
      <point x="275.20000000000005" y="661.0" type="curve" smooth="yes"/>
      <point x="275.20000000000005" y="619.56"/>
      <point x="247.8" y="590.76"/>
      <point x="191.04000000000002" y="590.76" type="curve" smooth="yes"/>
      <point x="115.04" y="590.76" type="line"/>
      <point x="115.04" y="559.24" type="line"/>
      <point x="188.24" y="559.24" type="line" smooth="yes"/>
      <point x="263.48" y="559.24"/>
      <point x="293.08000000000004" y="533.4399999999999"/>
      <point x="293.08000000000004" y="485.8" type="curve" smooth="yes"/>
      <point x="293.08000000000004" y="429.68"/>
      <point x="249.16" y="396.36"/>
      <point x="173.07999999999998" y="396.36" type="curve" smooth="yes"/>
      <point x="117.24" y="396.36"/>
      <point x="81.64" y="405.36"/>
      <point x="48.120000000000005" y="425.6" type="curve"/>
    </contour>
  </outline>
</glyph>
<glyph name="uni00B5" format="2">
  <advance width="533.0"/>
  <unicode hex="00B5"/>
  <outline>
    <contour>
      <point x="67.4" y="-210.0" type="line"/>
      <point x="127.32000000000001" y="-210.0" type="line"/>
      <point x="127.32000000000001" y="35.72" type="line"/>
      <point x="145.72" y="5.279999999999999"/>
      <point x="179.08" y="-9.76"/>
      <point x="225.52" y="-9.76" type="curve" smooth="yes"/>
      <point x="291.03999999999996" y="-9.76"/>
      <point x="342.48" y="13.360000000000001"/>
      <point x="399.2" y="46.199999999999996" type="curve"/>
      <point x="408.64" y="7.920000000000001"/>
      <point x="435.28000000000003" y="-10.0"/>
      <point x="470.16" y="-10.0" type="curve" smooth="yes"/>
      <point x="490.48" y="-10.0"/>
      <point x="510.36" y="-4.959999999999999"/>
      <point x="528.2800000000001" y="3.9600000000000004" type="curve"/>
      <point x="519.7600000000001" y="48.04" type="line"/>
      <point x="510.35999999999996" y="43.6"/>
      <point x="500.6000000000001" y="41.480000000000004"/>
      <point x="491.24" y="41.480000000000004" type="curve" smooth="yes"/>
      <point x="468.8" y="41.480000000000004"/>
      <point x="451.4" y="55.88"/>
      <point x="451.4" y="101.19999999999999" type="curve" smooth="yes"/>
      <point x="451.4" y="534.0" type="line"/>
      <point x="390.4" y="534.0" type="line"/>
      <point x="390.4" y="91.24000000000001" type="line"/>
      <point x="336.52000000000004" y="62.0"/>
      <point x="288.92" y="41.76"/>
      <point x="231.87999999999997" y="41.76" type="curve" smooth="yes"/>
      <point x="163.4" y="41.76"/>
      <point x="128.52" y="79.11999999999999"/>
      <point x="128.52" y="141.2" type="curve" smooth="yes"/>
      <point x="128.52" y="534.0" type="line"/>
      <point x="67.4" y="534.0" type="line"/>
    </contour>
  </outline>
</glyph>
<glyph name="paragraph" format="2">
  <advance width="578.28"/>
  <unicode hex="00B6"/>
  <outline>
    <contour>
      <point x="454.16" y="-210.0" type="line"/>
      <point x="504.88000000000005" y="-210.0" type="line"/>
      <point x="504.88000000000005" y="740.0" type="line"/>
      <point x="454.16" y="740.0" type="line"/>
    </contour>
    <contour>
      <point x="240.76" y="231.72" type="line"/>
      <point x="139.84" y="246.56"/>
      <point x="92.36" y="329.96"/>
      <point x="92.36" y="462.2" type="curve" smooth="yes"/>
      <point x="92.36" y="599.76"/>
      <point x="153.60000000000002" y="685.76"/>
      <point x="295.32000000000005" y="689.1200000000001" type="curve"/>
      <point x="295.32000000000005" y="-210.0" type="line"/>
      <point x="346.04" y="-210.0" type="line"/>
      <point x="346.04" y="740.0" type="line"/>
      <point x="311.0" y="740.0" type="line" smooth="yes"/>
      <point x="115.64" y="740.0"/>
      <point x="37.72" y="629.16"/>
      <point x="37.72" y="465.52000000000004" type="curve" smooth="yes"/>
      <point x="37.72" y="310.56"/>
      <point x="98.91999999999999" y="210.20000000000002"/>
      <point x="235.2" y="190.16" type="curve"/>
    </contour>
  </outline>
</glyph>
<glyph name="periodcentered" format="2">
  <advance width="169.44000000000003"/>
  <unicode hex="00B7"/>
  <outline>
    <contour>
      <point x="48.120000000000005" y="294.2" type="curve" smooth="yes"/>
      <point x="48.120000000000005" y="265.8"/>
      <point x="56.56" y="257.2"/>
      <point x="84.84" y="257.2" type="curve" smooth="yes"/>
      <point x="114.12" y="257.2"/>
      <point x="121.56000000000002" y="265.8"/>
      <point x="121.56000000000002" y="294.2" type="curve" smooth="yes"/>
      <point x="121.56000000000002" y="323.0"/>
      <point x="114.12" y="331.59999999999997"/>
      <point x="84.84" y="331.59999999999997" type="curve" smooth="yes"/>
      <point x="55.56000000000001" y="331.59999999999997"/>
      <point x="48.120000000000005" y="323.0"/>
    </contour>
  </outline>
</glyph>
<glyph name="uni00B9" format="2">
  <advance width="360.04"/>
  <unicode hex="00B9"/>
  <outline>
    <contour>
      <point x="34.199999999999996" y="370.0" type="line"/>
      <point x="332.96" y="370.0" type="line"/>
      <point x="332.96" y="404.6" type="line"/>
      <point x="217.52" y="404.6" type="line"/>
      <point x="217.52" y="768.76" type="line"/>
      <point x="193.16" y="768.76" type="line"/>
      <point x="27.76" y="687.28" type="line"/>
      <point x="40.199999999999996" y="651.08" type="line"/>
      <point x="169.92000000000002" y="717.12" type="line"/>
      <point x="169.92000000000002" y="404.6" type="line"/>
      <point x="34.199999999999996" y="404.6" type="line"/>
    </contour>
  </outline>
</glyph>
<glyph name="ordmasculine" format="2">
  <advance width="365.36"/>
  <unicode hex="00BA"/>
  <outline>
    <contour>
      <point x="51.24" y="273.48" type="line"/>
      <point x="321.03999999999996" y="273.48" type="line"/>
      <point x="321.03999999999996" y="309.88" type="line"/>
      <point x="51.24" y="309.88" type="line"/>
    </contour>
    <component base="o.superior" xOffset="13.760000000000002"/>
  </outline>
</glyph>
<glyph name="questiondown" format="2">
  <advance width="436.68"/>
  <unicode hex="00BF"/>
  <outline>
    <contour>
      <point x="270.40000000000003" y="270.56" type="line"/>
      <point x="215.96" y="270.56" type="line"/>
      <point x="215.8" y="199.72" type="line"/>
      <point x="92.96" y="139.48"/>
      <point x="34.68" y="84.4"/>
      <point x="34.68" y="-26.399999999999995" type="curve" smooth="yes"/>
      <point x="34.68" y="-163.6"/>
      <point x="131.96" y="-217.28"/>
      <point x="231.24" y="-217.28" type="curve" smooth="yes"/>
      <point x="300.20000000000005" y="-217.28"/>
      <point x="375.44" y="-194.16"/>
      <point x="429.68" y="-153.28" type="curve"/>
      <point x="407.8" y="-105.76" type="line"/>
      <point x="354.08000000000004" y="-144.32"/>
      <point x="293.44" y="-161.04"/>
      <point x="238.79999999999998" y="-161.04" type="curve" smooth="yes"/>
      <point x="167.2" y="-161.04"/>
      <point x="97.96000000000001" y="-116.96"/>
      <point x="97.96000000000001" y="-21.759999999999998" type="curve" smooth="yes"/>
      <point x="97.96000000000001" y="56.64"/>
      <point x="137.79999999999998" y="112.44"/>
      <point x="271.44" y="170.35999999999999" type="curve"/>
    </contour>
    <contour>
      <point x="277.84" y="497.92" type="curve" smooth="yes"/>
      <point x="277.84" y="526.08"/>
      <point x="268.92" y="534.68"/>
      <point x="241.00000000000003" y="534.68" type="curve" smooth="yes"/>
      <point x="212.52" y="534.68"/>
      <point x="204.64" y="526.08"/>
      <point x="204.64" y="497.92" type="curve" smooth="yes"/>
      <point x="204.64" y="469.56"/>
      <point x="212.52" y="460.96000000000004"/>
      <point x="241.00000000000003" y="460.96000000000004" type="curve" smooth="yes"/>
      <point x="270.2" y="460.96000000000004"/>
      <point x="277.84" y="469.56"/>
    </contour>
  </outline>
</glyph>
<glyph name="AE" format="2">
  <advance width="915.84"/>
  <unicode hex="00C6"/>
  <anchor x="477.44000000000005" y="700.0" name="top"/>
  <outline>
    <contour>
      <point x="9.839999999999996" y="0.0" type="line"/>
      <point x="82.16" y="-0.76" type="line"/>
      <point x="245.52" y="281.12" type="line"/>
      <point x="446.8" y="281.12" type="line"/>
      <point x="446.8" y="0.0" type="line"/>
      <point x="888.76" y="0.0" type="line"/>
      <point x="888.76" y="56.800000000000004" type="line"/>
      <point x="510.0" y="56.800000000000004" type="line"/>
      <point x="510.0" y="307.56" type="line"/>
      <point x="848.7199999999999" y="307.56" type="line"/>
      <point x="848.7199999999999" y="363.96" type="line"/>
      <point x="510.0" y="363.96" type="line"/>
      <point x="510.0" y="643.2" type="line"/>
      <point x="871.4" y="643.2" type="line"/>
      <point x="871.4" y="700.0" type="line"/>
      <point x="414.0" y="700.0" type="line"/>
    </contour>
    <contour>
      <point x="271.96" y="334.36" type="line"/>
      <point x="446.40000000000003" y="648.68" type="line"/>
      <point x="446.40000000000003" y="334.36" type="line"/>
    </contour>
  </outline>
</glyph>
<glyph name="multiply" format="2">
  <advance width="452.16"/>
  <unicode hex="00D7"/>
  <outline>
    <contour>
      <point x="93.12" y="85.2" type="line"/>
      <point x="225.92" y="258.08" type="line"/>
      <point x="358.72" y="86.64" type="line"/>
      <point x="395.72" y="121.80000000000001" type="line"/>
      <point x="262.76" y="296.76000000000005" type="line"/>
      <point x="395.88000000000005" y="473.4" type="line"/>
      <point x="358.88" y="508.56" type="line"/>
      <point x="225.92" y="335.92" type="line"/>
      <point x="92.80000000000001" y="509.20000000000005" type="line"/>
      <point x="55.800000000000004" y="474.04" type="line"/>
      <point x="189.48000000000002" y="296.76000000000005" type="line"/>
      <point x="56.120000000000005" y="120.36" type="line"/>
    </contour>
  </outline>
</glyph>
<glyph name="Oslash" format="2">
  <advance width="688.5999999999999"/>
  <unicode hex="00D8"/>
  <anchor x="341.6" y="700.0" name="top"/>
  <outline>
    <contour>
      <point x="103.8" y="-10.8" type="line"/>
      <point x="166.60000000000002" y="75.4" type="line"/>
      <point x="168.6" y="75.39999999999999" type="line"/>
      <point x="552.8" y="598.6" type="line"/>
      <point x="554.8" y="598.6" type="line"/>
      <point x="637.4000000000001" y="712.0" type="line"/>
      <point x="580.6" y="712.0" type="line"/>
      <point x="519.8" y="629.1999999999999" type="line"/>
      <point x="517.1999999999999" y="628.5999999999999" type="line"/>
      <point x="136.4" y="108.4" type="line"/>
      <point x="134.39999999999998" y="108.4" type="line"/>
      <point x="48.0" y="-10.8" type="line"/>
    </contour>
    <contour>
      <point x="341.6" y="40.2" type="curve" smooth="yes"/>
      <point x="220.2" y="40.2"/>
      <point x="108.0" y="102.60000000000001"/>
      <point x="108.0" y="349.4" type="curve" smooth="yes"/>
      <point x="108.0" y="601.6"/>
      <point x="220.2" y="659.8000000000001"/>
      <point x="341.6" y="659.8000000000001" type="curve" smooth="yes"/>
      <point x="463.59999999999997" y="659.8000000000001"/>
      <point x="576.8" y="602.2"/>
      <point x="576.8" y="349.4" type="curve" smooth="yes"/>
      <point x="576.8" y="98.2"/>
      <point x="463.59999999999997" y="40.2"/>
    </contour>
    <contour>
      <point x="341.6" y="-10.0" type="curve" smooth="yes"/>
      <point x="508.40000000000003" y="-10.0"/>
      <point x="639.8" y="63.2"/>
      <point x="639.8" y="351.40000000000003" type="curve" smooth="yes"/>
      <point x="639.8" y="636.4000000000001"/>
      <point x="506.2" y="710.0"/>
      <point x="341.6" y="710.0" type="curve" smooth="yes"/>
      <point x="176.0" y="710.0"/>
      <point x="45.599999999999994" y="635.4"/>
      <point x="45.599999999999994" y="349.4" type="curve" smooth="yes"/>
      <point x="45.599999999999994" y="68.6"/>
      <point x="177.6" y="-10.0"/>
    </contour>
  </outline>
</glyph>
<glyph name="Thorn" format="2">
  <advance width="598.52"/>
  <unicode hex="00DE"/>
  <outline>
    <contour>
      <point x="74.72" y="0.0" type="line"/>
      <point x="137.44" y="0.0" type="line"/>
      <point x="137.44" y="163.04000000000002" type="line"/>
      <point x="210.32" y="160.48"/>
      <point x="239.92000000000002" y="160.15999999999997"/>
      <point x="304.0" y="160.15999999999997" type="curve" smooth="yes"/>
      <point x="488.16" y="160.15999999999997"/>
      <point x="561.32" y="223.72000000000003"/>
      <point x="561.32" y="397.16" type="curve" smooth="yes"/>
      <point x="561.32" y="558.9999999999999"/>
      <point x="505.64" y="619.2399999999999"/>
      <point x="285.52000000000004" y="619.2399999999999" type="curve" smooth="yes"/>
      <point x="255.68" y="619.2399999999999"/>
      <point x="216.52" y="618.04"/>
      <point x="137.56" y="614.44" type="curve"/>
      <point x="137.56" y="700.0" type="line"/>
      <point x="74.72" y="700.0" type="line"/>
    </contour>
    <contour>
      <point x="289.24" y="213.79999999999998" type="curve" smooth="yes"/>
      <point x="231.51999999999998" y="213.79999999999998"/>
      <point x="199.36" y="214.84"/>
      <point x="137.56" y="216.84" type="curve"/>
      <point x="137.56" y="561.84" type="line"/>
      <point x="221.44" y="566.5200000000001"/>
      <point x="255.11999999999998" y="567.64"/>
      <point x="289.6" y="567.64" type="curve" smooth="yes"/>
      <point x="457.68" y="567.64"/>
      <point x="498.04" y="518.8799999999999"/>
      <point x="498.04" y="397.08" type="curve" smooth="yes"/>
      <point x="498.04" y="266.52"/>
      <point x="450.03999999999996" y="213.79999999999998"/>
    </contour>
  </outline>
</glyph>
<glyph name="germandbls" format="2">
  <advance width="606.64"/>
  <unicode hex="00DF"/>
  <outline>
    <contour>
      <point x="107.84" y="0.0" type="line"/>
      <point x="168.72" y="0.0" type="line"/>
      <point x="168.72" y="516.52" type="line" smooth="yes"/>
      <point x="168.72" y="639.5200000000001"/>
      <point x="226.0" y="700.04"/>
      <point x="343.2" y="700.04" type="curve" smooth="yes"/>
      <point x="436.32" y="700.04"/>
      <point x="471.8" y="676.6800000000001"/>
      <point x="471.8" y="621.1600000000001" type="curve" smooth="yes"/>
      <point x="471.8" y="575.56"/>
      <point x="447.48" y="556.84"/>
      <point x="375.52000000000004" y="525.2800000000001" type="curve" smooth="yes"/>
      <point x="302.72" y="495.08"/>
      <point x="266.84000000000003" y="457.84"/>
      <point x="266.84000000000003" y="397.68" type="curve" smooth="yes"/>
      <point x="266.84000000000003" y="324.56"/>
      <point x="301.67999999999995" y="288.12"/>
      <point x="419.0" y="250.0" type="curve" smooth="yes"/>
      <point x="514.72" y="215.8"/>
      <point x="544.08" y="193.36"/>
      <point x="544.08" y="137.20000000000002" type="curve" smooth="yes"/>
      <point x="544.08" y="72.64"/>
      <point x="481.35999999999996" y="39.12"/>
      <point x="402.84000000000003" y="39.12" type="curve" smooth="yes"/>
      <point x="346.47999999999996" y="39.12"/>
      <point x="287.84" y="51.279999999999994"/>
      <point x="236.12" y="68.32" type="curve"/>
      <point x="224.44" y="21.28" type="line"/>
      <point x="279.16" y="1.1199999999999997"/>
      <point x="342.0" y="-10.0"/>
      <point x="403.16" y="-10.0" type="curve" smooth="yes"/>
      <point x="511.64" y="-10.0"/>
      <point x="601.52" y="38.599999999999994"/>
      <point x="601.52" y="140.56" type="curve" smooth="yes"/>
      <point x="601.52" y="220.44"/>
      <point x="560.0" y="259.88"/>
      <point x="442.15999999999997" y="297.68" type="curve" smooth="yes"/>
      <point x="349.92" y="329.72"/>
      <point x="323.40000000000003" y="353.92"/>
      <point x="323.40000000000003" y="400.8" type="curve" smooth="yes"/>
      <point x="323.40000000000003" y="445.04"/>
      <point x="351.96000000000004" y="464.2"/>
      <point x="406.96000000000004" y="488.08" type="curve" smooth="yes"/>
      <point x="491.96000000000004" y="525.48"/>
      <point x="531.16" y="555.04"/>
      <point x="531.16" y="621.0" type="curve" smooth="yes"/>
      <point x="531.16" y="708.4000000000001"/>
      <point x="467.59999999999997" y="750.0"/>
      <point x="342.28" y="750.0" type="curve" smooth="yes"/>
      <point x="186.24" y="750.0"/>
      <point x="108.36" y="675.32"/>
      <point x="107.84" y="530.24" type="curve" smooth="yes"/>
      <point x="107.84" y="489.28000000000003" type="line"/>
      <point x="21.88" y="481.91999999999996" type="line"/>
      <point x="21.88" y="441.04" type="line"/>
      <point x="107.84" y="441.04" type="line"/>
    </contour>
  </outline>
</glyph>
<glyph name="ae" format="2">
  <advance width="808.8000000000001"/>
  <unicode hex="00E6"/>
  <anchor x="412.79999999999995" y="534.0" name="top"/>
  <outline>
    <contour>
      <point x="165.2" y="-10.0" type="curve" smooth="yes"/>
      <point x="256.0" y="-10.0"/>
      <point x="328.0" y="37.2"/>
      <point x="386.0" y="92.0" type="curve"/>
      <point x="387.4" y="92.0" type="line"/>
      <point x="421.59999999999997" y="21.2"/>
      <point x="478.40000000000003" y="-10.0"/>
      <point x="576.4000000000001" y="-10.0" type="curve" smooth="yes"/>
      <point x="656.4000000000001" y="-10.0"/>
      <point x="713.8" y="0.3999999999999998"/>
      <point x="765.4" y="17.4" type="curve"/>
      <point x="756.5999999999999" y="66.8" type="line"/>
      <point x="708.8" y="53.4"/>
      <point x="651.0" y="42.800000000000004"/>
      <point x="583.0" y="42.800000000000004" type="curve" smooth="yes"/>
      <point x="473.2" y="42.800000000000004"/>
      <point x="420.6" y="85.60000000000001"/>
      <point x="419.8" y="245.4" type="curve" smooth="yes"/>
      <point x="419.4" y="251.6"/>
      <point x="419.4" y="262.20000000000005"/>
      <point x="420.4" y="266.4" type="curve"/>
      <point x="595.8" y="267.59999999999997"/>
      <point x="721.2" y="281.8"/>
      <point x="772.0" y="286.8" type="curve"/>
      <point x="772.0" y="295.0"/>
      <point x="773.0" y="304.4"/>
      <point x="773.0" y="317.0" type="curve" smooth="yes"/>
      <point x="773.0" y="474.4"/>
      <point x="702.4" y="544.0"/>
      <point x="575.4" y="544.0" type="curve" smooth="yes"/>
      <point x="501.79999999999995" y="544.0"/>
      <point x="429.8" y="514.6"/>
      <point x="397.0" y="426.0" type="curve"/>
      <point x="396.0" y="426.0" type="line"/>
      <point x="385.0" y="503.0"/>
      <point x="329.59999999999997" y="544.0"/>
      <point x="232.8" y="544.0" type="curve" smooth="yes"/>
      <point x="183.39999999999998" y="544.0"/>
      <point x="123.60000000000001" y="534.8"/>
      <point x="67.8" y="518.0" type="curve"/>
      <point x="78.8" y="467.4" type="line"/>
      <point x="136.6" y="484.4"/>
      <point x="189.6" y="490.4"/>
      <point x="229.8" y="490.4" type="curve" smooth="yes"/>
      <point x="316.0" y="490.4"/>
      <point x="357.2" y="451.59999999999997"/>
      <point x="357.2" y="384.40000000000003" type="curve" smooth="yes"/>
      <point x="357.2" y="306.6" type="line"/>
      <point x="139.6" y="284.2"/>
      <point x="32.2" y="250.4"/>
      <point x="32.2" y="122.39999999999999" type="curve" smooth="yes"/>
      <point x="32.2" y="35.8"/>
      <point x="84.0" y="-10.0"/>
    </contour>
    <contour>
      <point x="182.0" y="35.0" type="curve" smooth="yes"/>
      <point x="129.2" y="35.0"/>
      <point x="94.2" y="67.2"/>
      <point x="94.2" y="128.99999999999997" type="curve" smooth="yes"/>
      <point x="94.2" y="226.4"/>
      <point x="198.0" y="251.8"/>
      <point x="356.6" y="267.59999999999997" type="curve"/>
      <point x="356.6" y="258.6"/>
      <point x="356.6" y="248.59999999999997"/>
      <point x="356.6" y="239.2" type="curve" smooth="yes"/>
      <point x="356.6" y="192.6"/>
      <point x="359.8" y="156.6"/>
      <point x="367.20000000000005" y="127.19999999999999" type="curve"/>
      <point x="321.40000000000003" y="79.2"/>
      <point x="249.20000000000002" y="35.0"/>
    </contour>
    <contour>
      <point x="421.0" y="306.6" type="curve"/>
      <point x="421.8" y="455.79999999999995"/>
      <point x="497.2" y="497.00000000000006"/>
      <point x="571.4" y="497.00000000000006" type="curve" smooth="yes"/>
      <point x="661.6" y="497.00000000000006"/>
      <point x="709.0" y="440.4"/>
      <point x="710.6000000000001" y="321.8" type="curve"/>
      <point x="678.1999999999999" y="318.20000000000005"/>
      <point x="563.8" y="306.59999999999997"/>
    </contour>
  </outline>
</glyph>
<glyph name="eth" format="2">
  <advance width="527.8000000000001"/>
  <unicode hex="00F0"/>
  <outline>
    <contour>
      <point x="434.4" y="443.6" type="curve"/>
      <point x="436.6" y="489.6" type="line"/>
      <point x="392.6" y="521.2"/>
      <point x="339.8" y="532.2"/>
      <point x="275.4" y="532.2" type="curve" smooth="yes"/>
      <point x="118.80000000000001" y="532.2"/>
      <point x="40.6" y="443.8"/>
      <point x="40.6" y="256.8" type="curve" smooth="yes"/>
      <point x="40.6" y="70.0"/>
      <point x="110.2" y="-10.0"/>
      <point x="250.4" y="-10.0" type="curve" smooth="yes"/>
      <point x="420.0" y="-10.0"/>
      <point x="485.6" y="79.39999999999999"/>
      <point x="485.6" y="337.8" type="curve" smooth="yes"/>
      <point x="485.6" y="601.8"/>
      <point x="398.4" y="719.6"/>
      <point x="205.4" y="719.6" type="curve" smooth="yes"/>
      <point x="151.39999999999998" y="719.6"/>
      <point x="106.4" y="713.4"/>
      <point x="47.800000000000004" y="698.5999999999999" type="curve"/>
      <point x="55.4" y="654.6" type="line"/>
      <point x="107.2" y="667.0"/>
      <point x="145.2" y="674.4"/>
      <point x="193.8" y="674.4" type="curve" smooth="yes"/>
      <point x="357.0" y="674.4"/>
      <point x="424.8" y="587.6"/>
      <point x="424.8" y="338.2" type="curve" smooth="yes"/>
      <point x="424.8" y="111.2"/>
      <point x="376.0" y="39.400000000000006"/>
      <point x="255.6" y="39.400000000000006" type="curve" smooth="yes"/>
      <point x="153.6" y="39.400000000000006"/>
      <point x="103.39999999999999" y="101.2"/>
      <point x="103.39999999999999" y="257.8" type="curve" smooth="yes"/>
      <point x="103.39999999999999" y="421.0"/>
      <point x="169.6" y="487.0"/>
      <point x="282.6" y="487.0" type="curve" smooth="yes"/>
      <point x="341.4" y="487.0"/>
      <point x="389.0" y="476.2"/>
    </contour>
    <contour>
      <point x="167.6" y="567.6" type="line"/>
      <point x="348.8" y="655.8" type="line"/>
      <point x="354.8" y="660.2" type="line"/>
      <point x="488.0" y="726.0" type="line"/>
      <point x="416.8" y="726.0" type="line"/>
      <point x="320.6" y="679.0" type="line"/>
      <point x="316.4" y="675.6" type="line"/>
      <point x="96.0" y="567.6" type="line"/>
    </contour>
  </outline>
</glyph>
<glyph name="divide" format="2">
  <advance width="470.0"/>
  <unicode hex="00F7"/>
  <outline>
    <contour>
      <point x="201.88" y="104.75999999999999" type="curve" smooth="yes"/>
      <point x="201.88" y="79.96"/>
      <point x="209.16" y="73.35999999999999"/>
      <point x="234.99999999999997" y="73.35999999999999" type="curve" smooth="yes"/>
      <point x="261.48" y="73.35999999999999"/>
      <point x="268.12" y="79.96"/>
      <point x="268.12" y="104.75999999999999" type="curve" smooth="yes"/>
      <point x="268.12" y="129.16"/>
      <point x="261.12" y="136.16"/>
      <point x="234.99999999999997" y="136.16" type="curve" smooth="yes"/>
      <point x="208.52" y="136.16"/>
      <point x="201.88" y="129.16"/>
    </contour>
    <contour>
      <point x="201.88" y="488.03999999999996" type="curve" smooth="yes"/>
      <point x="201.88" y="463.63999999999993"/>
      <point x="209.51999999999998" y="456.64"/>
      <point x="234.99999999999997" y="456.64" type="curve" smooth="yes"/>
      <point x="261.48" y="456.64"/>
      <point x="268.12" y="463.63999999999993"/>
      <point x="268.12" y="488.03999999999996" type="curve" smooth="yes"/>
      <point x="268.12" y="512.8399999999999"/>
      <point x="261.48" y="519.8399999999999"/>
      <point x="234.99999999999997" y="519.8399999999999" type="curve" smooth="yes"/>
      <point x="208.52" y="519.8399999999999"/>
      <point x="201.88" y="512.8399999999999"/>
    </contour>
    <contour>
      <point x="48.76" y="270.59999999999997" type="line"/>
      <point x="421.24" y="270.59999999999997" type="line"/>
      <point x="421.24" y="322.59999999999997" type="line"/>
      <point x="48.76" y="322.59999999999997" type="line"/>
    </contour>
  </outline>
</glyph>
<glyph name="oslash" format="2">
  <advance width="535.0"/>
  <unicode hex="00F8"/>
  <anchor x="266.8" y="534.0" name="top"/>
  <outline>
    <contour>
      <point x="266.8" y="-10.0" type="curve" smooth="yes"/>
      <point x="105.80000000000001" y="-10.0"/>
      <point x="40.6" y="69.60000000000001"/>
      <point x="40.6" y="268.0" type="curve" smooth="yes"/>
      <point x="40.6" y="460.8"/>
      <point x="98.4" y="544.0"/>
      <point x="266.8" y="544.0" type="curve" smooth="yes"/>
      <point x="435.40000000000003" y="544.0"/>
      <point x="493.59999999999997" y="460.8"/>
      <point x="493.59999999999997" y="268.0" type="curve" smooth="yes"/>
      <point x="493.59999999999997" y="69.60000000000001"/>
      <point x="428.40000000000003" y="-10.0"/>
    </contour>
    <contour>
      <point x="266.79999999999995" y="37.0" type="curve" smooth="yes"/>
      <point x="384.8" y="37.0"/>
      <point x="432.4" y="96.2"/>
      <point x="432.4" y="268.0" type="curve" smooth="yes"/>
      <point x="432.4" y="435.2"/>
      <point x="390.6" y="497.0"/>
      <point x="266.79999999999995" y="497.0" type="curve" smooth="yes"/>
      <point x="143.20000000000002" y="497.0"/>
      <point x="101.39999999999999" y="435.2"/>
      <point x="101.39999999999999" y="268.0" type="curve" smooth="yes"/>
      <point x="101.39999999999999" y="96.2"/>
      <point x="149.4" y="37.0"/>
    </contour>
    <contour>
      <point x="40.0" y="-8.8" type="line"/>
      <point x="105.0" y="80.80000000000001" type="line"/>
      <point x="106.0" y="80.39999999999999" type="line"/>
      <point x="398.2" y="485.0" type="line"/>
      <point x="399.2" y="484.6" type="line"/>
      <point x="442.4" y="544.0" type="line"/>
      <point x="494.2" y="544.0" type="line"/>
      <point x="427.0" y="452.0" type="line"/>
      <point x="426.0" y="452.40000000000003" type="line"/>
      <point x="135.8" y="51.0" type="line"/>
      <point x="134.8" y="51.4" type="line"/>
      <point x="91.0" y="-8.8" type="line"/>
    </contour>
  </outline>
</glyph>
<glyph name="thorn" format="2">
  <advance width="522.52"/>
  <unicode hex="00FE"/>
  <outline>
    <contour>
      <point x="67.4" y="-210.0" type="line"/>
      <point x="128.24" y="-210.0" type="line"/>
      <point x="128.24" y="2.4" type="line"/>
      <point x="167.56" y="-6.08"/>
      <point x="207.16" y="-10.0"/>
      <point x="241.92" y="-10.0" type="curve" smooth="yes"/>
      <point x="410.48" y="-10.0"/>
      <point x="481.40000000000003" y="71.28"/>
      <point x="481.40000000000003" y="274.88000000000005" type="curve" smooth="yes"/>
      <point x="481.40000000000003" y="449.96"/>
      <point x="408.79999999999995" y="544.0"/>
      <point x="274.08000000000004" y="544.0" type="curve" smooth="yes"/>
      <point x="227.32000000000002" y="544.0"/>
      <point x="175.12" y="533.72"/>
      <point x="128.48" y="517.5600000000001" type="curve"/>
      <point x="128.48" y="740.0" type="line"/>
      <point x="67.4" y="740.0" type="line"/>
    </contour>
    <contour>
      <point x="240.24" y="36.239999999999995" type="curve" smooth="yes"/>
      <point x="209.36" y="36.239999999999995"/>
      <point x="174.12" y="40.6"/>
      <point x="128.52" y="50.599999999999994" type="curve"/>
      <point x="128.52" y="469.52" type="line"/>
      <point x="173.56" y="485.36"/>
      <point x="214.23999999999998" y="491.9200000000001"/>
      <point x="252.04" y="491.9200000000001" type="curve" smooth="yes"/>
      <point x="362.03999999999996" y="491.9200000000001"/>
      <point x="418.76" y="417.92"/>
      <point x="418.76" y="271.24" type="curve" smooth="yes"/>
      <point x="418.76" y="98.4"/>
      <point x="366.52" y="36.239999999999995"/>
    </contour>
  </outline>
</glyph>
<glyph name="Dcroat" format="2">
  <advance width="653.9200000000002"/>
  <unicode hex="0110"/>
  <outline>
    <contour>
      <point x="2.6000000000000005" y="332.8" type="line"/>
      <point x="281.96" y="332.8" type="line"/>
      <point x="281.96" y="383.59999999999997" type="line"/>
      <point x="2.6000000000000005" y="383.59999999999997" type="line"/>
    </contour>
    <component base="D" xOffset="3.7199999999999998"/>
  </outline>
</glyph>
<glyph name="dcroat" format="2">
  <advance width="524.8000000000001"/>
  <unicode hex="0111"/>
  <outline>
    <contour>
      <point x="240.64000000000001" y="613.6" type="line"/>
      <point x="530.72" y="613.6" type="line"/>
      <point x="530.72" y="653.2" type="line"/>
      <point x="240.64000000000001" y="653.2" type="line"/>
    </contour>
    <component base="d"/>
  </outline>
</glyph>
<glyph name="Hbar" format="2">
  <advance width="672.0400000000001"/>
  <unicode hex="0126"/>
  <outline>
    <contour>
      <point x="21.400000000000002" y="500.2" type="line"/>
      <point x="74.80000000000001" y="500.2" type="line"/>
      <point x="74.80000000000001" y="0.0" type="line"/>
      <point x="137.4" y="0.0" type="line"/>
      <point x="137.4" y="276.8" type="line"/>
      <point x="535.44" y="276.8" type="line"/>
      <point x="535.44" y="0.0" type="line"/>
      <point x="597.24" y="0.0" type="line"/>
      <point x="597.24" y="500.2" type="line"/>
      <point x="650.64" y="500.2" type="line"/>
      <point x="650.64" y="545.6800000000001" type="line"/>
      <point x="597.24" y="545.6800000000001" type="line"/>
      <point x="597.24" y="700.0" type="line"/>
      <point x="535.44" y="700.0" type="line"/>
      <point x="535.44" y="545.6800000000001" type="line"/>
      <point x="137.4" y="545.6800000000001" type="line"/>
      <point x="137.4" y="700.0" type="line"/>
      <point x="74.80000000000001" y="700.0" type="line"/>
      <point x="74.80000000000001" y="545.6800000000001" type="line"/>
      <point x="21.400000000000002" y="545.6800000000001" type="line"/>
    </contour>
    <contour>
      <point x="137.4" y="333.72" type="line"/>
      <point x="137.4" y="500.2" type="line"/>
      <point x="535.44" y="500.2" type="line"/>
      <point x="535.44" y="333.72" type="line"/>
    </contour>
  </outline>
</glyph>
<glyph name="hbar" format="2">
  <advance width="532.68"/>
  <unicode hex="0127"/>
  <outline>
    <contour>
      <point x="-5.16" y="613.5999999999999" type="line"/>
      <point x="301.72" y="613.5999999999999" type="line"/>
      <point x="301.72" y="653.2" type="line"/>
      <point x="-5.16" y="653.2" type="line"/>
    </contour>
    <component base="h"/>
  </outline>
</glyph>
<glyph name="Idotaccent" format="2">
  <advance width="212.04000000000002"/>
  <unicode hex="0130"/>
  <outline>
    <contour>
      <point x="106.19999999999999" y="799.0799999999999" type="curve" smooth="yes"/>
      <point x="136.12" y="799.0799999999999"/>
      <point x="144.52" y="807.36"/>
      <point x="144.52" y="834.68" type="curve" smooth="yes"/>
      <point x="144.52" y="862.24"/>
      <point x="135.88000000000002" y="870.4"/>
      <point x="106.19999999999999" y="870.4" type="curve" smooth="yes"/>
      <point x="76.39999999999999" y="870.4"/>
      <point x="67.76" y="862.24"/>
      <point x="67.76" y="834.68" type="curve" smooth="yes"/>
      <point x="67.76" y="807.24"/>
      <point x="77.2" y="799.0799999999999"/>
    </contour>
    <component base="I"/>
  </outline>
</glyph>
<glyph name="dotlessi" format="2">
  <advance width="196.16"/>
  <unicode hex="0131"/>
  <anchor x="125.56" y="2.0" name="ogonek"/>
  <anchor x="98.32000000000001" y="0.0" name="bottom"/>
  <anchor x="98.08" y="534.0" name="top"/>
  <outline>
    <contour>
      <point x="67.4" y="0.0" type="line"/>
      <point x="128.76" y="0.0" type="line"/>
      <point x="128.76" y="534.0" type="line"/>
      <point x="67.4" y="534.0" type="line"/>
    </contour>
  </outline>
</glyph>
<glyph name="kgreenlandic" format="2">
  <advance width="490.6"/>
  <unicode hex="0138"/>
  <anchor x="249.6" y="534.0" name="top"/>
  <anchor x="249.6" y="0.0" name="bottom"/>
  <outline>
    <contour>
      <point x="465.6" y="-8.4" type="curve" smooth="yes"/>
      <point x="473.8" y="-8.4"/>
      <point x="481.40000000000003" y="-6.8"/>
      <point x="488.4" y="-5.3999999999999995" type="curve"/>
      <point x="485.8" y="57.400000000000006" type="line"/>
      <point x="480.4" y="56.800000000000004"/>
      <point x="475.4" y="55.800000000000004"/>
      <point x="472.0" y="55.800000000000004" type="curve" smooth="yes"/>
      <point x="442.0" y="55.800000000000004"/>
      <point x="410.6" y="76.19999999999999"/>
      <point x="306.0" y="184.20000000000002" type="curve" smooth="yes"/>
      <point x="126.4" y="370.40000000000003" type="line"/>
      <point x="126.4" y="534.0" type="line"/>
      <point x="67.2" y="534.0" type="line"/>
      <point x="67.2" y="0.0" type="line"/>
      <point x="126.4" y="0.0" type="line"/>
      <point x="126.4" y="289.0" type="line"/>
      <point x="290.2" y="118.6" type="line" smooth="yes"/>
      <point x="402.8" y="0.5999999999999996"/>
      <point x="428.2" y="-8.4"/>
    </contour>
    <contour>
      <point x="220.8" y="243.79999999999998" type="line"/>
      <point x="301.8" y="313.8"/>
      <point x="412.59999999999997" y="405.0"/>
      <point x="455.4" y="529.6" type="curve"/>
      <point x="395.59999999999997" y="538.6" type="line"/>
      <point x="355.2" y="417.6"/>
      <point x="258.0" y="344.79999999999995"/>
      <point x="173.6" y="272.2" type="curve"/>
    </contour>
  </outline>
</glyph>
<glyph name="Ldot" format="2">
  <advance width="496.6000000000001"/>
  <unicode hex="013F"/>
  <outline>
    <contour>
      <point x="319.52000000000004" y="373.52000000000004" type="curve" smooth="yes"/>
      <point x="319.52000000000004" y="348.72"/>
      <point x="326.4" y="341.8"/>
      <point x="351.79999999999995" y="341.8" type="curve" smooth="yes"/>
      <point x="378.12" y="341.8"/>
      <point x="384.2" y="348.72"/>
      <point x="384.2" y="373.52000000000004" type="curve" smooth="yes"/>
      <point x="384.2" y="398.52000000000004"/>
      <point x="378.12" y="405.44000000000005"/>
      <point x="351.79999999999995" y="405.44000000000005" type="curve" smooth="yes"/>
      <point x="325.6" y="405.44000000000005"/>
      <point x="319.52000000000004" y="398.52000000000004"/>
    </contour>
    <component base="L"/>
  </outline>
</glyph>
<glyph name="ldot" format="2">
  <advance width="267.0"/>
  <unicode hex="0140"/>
  <outline>
    <contour>
      <point x="235.20000000000002" y="335.32000000000005" type="curve" smooth="yes"/>
      <point x="256.2" y="335.32000000000005"/>
      <point x="261.16" y="341.04"/>
      <point x="261.16" y="364.56000000000006" type="curve" smooth="yes"/>
      <point x="261.16" y="388.20000000000005"/>
      <point x="256.2" y="393.92"/>
      <point x="235.20000000000002" y="393.92" type="curve" smooth="yes"/>
      <point x="214.32" y="393.92"/>
      <point x="209.35999999999999" y="388.20000000000005"/>
      <point x="209.35999999999999" y="364.56000000000006" type="curve" smooth="yes"/>
      <point x="209.35999999999999" y="341.04"/>
      <point x="215.12" y="335.32000000000005"/>
    </contour>
    <component base="l"/>
  </outline>
</glyph>
<glyph name="Lslash" format="2">
  <advance width="510.15999999999997"/>
  <unicode hex="0141"/>
  <outline>
    <contour>
      <point x="20.4" y="195.79999999999998" type="line"/>
      <point x="88.28" y="243.20000000000002" type="line"/>
      <point x="88.28" y="0.0" type="line"/>
      <point x="494.96000000000004" y="0.0" type="line"/>
      <point x="494.96000000000004" y="56.08" type="line"/>
      <point x="151.0" y="56.08" type="line"/>
      <point x="151.0" y="277.16" type="line"/>
      <point x="359.64000000000004" y="418.6" type="line"/>
      <point x="359.64000000000004" y="477.87999999999994" type="line"/>
      <point x="151.0" y="336.91999999999996" type="line"/>
      <point x="151.0" y="700.0" type="line"/>
      <point x="88.28" y="700.0" type="line"/>
      <point x="88.28" y="302.96" type="line"/>
      <point x="20.4" y="255.56" type="line"/>
    </contour>
  </outline>
</glyph>
<glyph name="lslash" format="2">
  <advance width="255.24"/>
  <unicode hex="0142"/>
  <outline>
    <contour>
      <point x="177.32" y="-10.0" type="curve" smooth="yes"/>
      <point x="205.84" y="-10.0"/>
      <point x="234.84" y="-3.6799999999999993"/>
      <point x="258.12" y="4.08" type="curve"/>
      <point x="251.00000000000003" y="56.52" type="line"/>
      <point x="229.92000000000002" y="51.04"/>
      <point x="210.64" y="47.48"/>
      <point x="193.83999999999997" y="47.48" type="curve" smooth="yes"/>
      <point x="158.76000000000002" y="47.48"/>
      <point x="130.76" y="63.839999999999996"/>
      <point x="130.76" y="154.08" type="curve" smooth="yes"/>
      <point x="130.76" y="285.8" type="line"/>
      <point x="231.0" y="378.68" type="line"/>
      <point x="231.0" y="434.0" type="line"/>
      <point x="130.76" y="341.12000000000006" type="line"/>
      <point x="130.76" y="740.0" type="line"/>
      <point x="69.75999999999999" y="740.0" type="line"/>
      <point x="69.75999999999999" y="295.91999999999996" type="line"/>
      <point x="12.04" y="242.67999999999998" type="line"/>
      <point x="12.04" y="187.84" type="line"/>
      <point x="69.91999999999999" y="240.68" type="line"/>
      <point x="70.08" y="141.64000000000001" type="line" smooth="yes"/>
      <point x="71.44" y="18.360000000000003"/>
      <point x="113.19999999999999" y="-10.0"/>
    </contour>
  </outline>
</glyph>
<glyph name="Eng" format="2">
  <advance width="665.8"/>
  <unicode hex="014A"/>
  <outline>
    <contour>
      <point x="75.0" y="0.0" type="line"/>
      <point x="132.4" y="0.0" type="line"/>
      <point x="132.4" y="598.8" type="line"/>
      <point x="531.0" y="1.3999999999999995" type="line"/>
      <point x="531.0" y="-10.8" type="line" smooth="yes"/>
      <point x="529.4" y="-91.2"/>
      <point x="474.0" y="-121.4"/>
      <point x="390.0" y="-121.4" type="curve" smooth="yes"/>
      <point x="361.4" y="-121.4"/>
      <point x="327.0" y="-117.0"/>
      <point x="299.8" y="-111.2" type="curve"/>
      <point x="290.8" y="-161.8" type="line"/>
      <point x="320.4" y="-169.79999999999998"/>
      <point x="360.0" y="-176.0"/>
      <point x="397.6" y="-176.0" type="curve" smooth="yes"/>
      <point x="522.0" y="-176.0"/>
      <point x="590.8" y="-119.4"/>
      <point x="590.8" y="-10.799999999999999" type="curve" smooth="yes"/>
      <point x="590.8" y="700.0" type="line"/>
      <point x="533.8000000000001" y="700.0" type="line"/>
      <point x="533.8000000000001" y="98.80000000000001" type="line"/>
      <point x="132.8" y="703.2" type="line"/>
      <point x="75.0" y="703.2" type="line"/>
    </contour>
  </outline>
</glyph>
<glyph name="eng" format="2">
  <advance width="532.44"/>
  <unicode hex="014B"/>
  <outline>
    <contour>
      <point x="465.28" y="15.0" type="curve"/>
      <point x="465.28" y="400.52000000000004" type="line" smooth="yes"/>
      <point x="465.28" y="493.91999999999996"/>
      <point x="412.88" y="544.0"/>
      <point x="318.84000000000003" y="544.0" type="curve" smooth="yes"/>
      <point x="245.32" y="544.0"/>
      <point x="188.24" y="520.64"/>
      <point x="124.0" y="486.96" type="curve"/>
      <point x="124.0" y="534.0" type="line"/>
      <point x="67.4" y="534.0" type="line"/>
      <point x="67.4" y="0.0" type="line"/>
      <point x="128.52" y="0.0" type="line"/>
      <point x="128.52" y="441.36" type="line"/>
      <point x="185.72000000000003" y="470.76"/>
      <point x="235.36000000000004" y="491.32"/>
      <point x="295.92" y="491.32" type="curve" smooth="yes"/>
      <point x="369.71999999999997" y="491.32"/>
      <point x="404.16" y="451.99999999999994"/>
      <point x="404.16" y="384.68" type="curve" smooth="yes"/>
      <point x="404.16" y="13.32" type="line" smooth="yes"/>
      <point x="404.16" y="-67.71999999999998"/>
      <point x="384.12" y="-118.92"/>
      <point x="347.12" y="-144.51999999999998" type="curve" smooth="yes"/>
      <point x="340.11999999999995" y="-148.84"/>
      <point x="332.44" y="-152.08"/>
      <point x="324.44" y="-154.51999999999998" type="curve"/>
      <point x="329.48" y="-208.68000000000004" type="line"/>
      <point x="342.28000000000003" y="-206.08"/>
      <point x="354.68" y="-201.76"/>
      <point x="366.88" y="-196.95999999999998" type="curve" smooth="yes"/>
      <point x="429.48" y="-168.0"/>
      <point x="465.28" y="-96.84"/>
    </contour>
  </outline>
</glyph>
<glyph name="OE" format="2">
  <advance width="984.48"/>
  <unicode hex="0152"/>
  <outline>
    <contour>
      <point x="957.4" y="0.0" type="line"/>
      <point x="957.4" y="56.800000000000004" type="line"/>
      <point x="575.8400000000001" y="56.800000000000004" type="line"/>
      <point x="575.8400000000001" y="338.6" type="line"/>
      <point x="916.96" y="338.6" type="line"/>
      <point x="916.96" y="395.0" type="line"/>
      <point x="575.8400000000001" y="395.0" type="line"/>
      <point x="575.8400000000001" y="643.6" type="line"/>
      <point x="939.64" y="643.6" type="line"/>
      <point x="939.64" y="700.0" type="line"/>
      <point x="569.8400000000001" y="700.0" type="line"/>
      <point x="495.88" y="704.04"/>
      <point x="419.92" y="707.04"/>
      <point x="355.24" y="707.04" type="curve" smooth="yes"/>
      <point x="175.76" y="707.04"/>
      <point x="46.959999999999994" y="633.0799999999999"/>
      <point x="46.959999999999994" y="353.04" type="curve" smooth="yes"/>
      <point x="46.959999999999994" y="57.76"/>
      <point x="189.12" y="-8.16"/>
      <point x="364.84000000000003" y="-8.16" type="curve" smooth="yes"/>
      <point x="434.03999999999996" y="-8.16"/>
      <point x="499.36" y="-4.8"/>
      <point x="575.8400000000001" y="0.0" type="curve"/>
    </contour>
    <contour>
      <point x="512.6400000000001" y="49.760000000000005" type="line"/>
      <point x="479.64" y="47.760000000000005"/>
      <point x="419.99999999999994" y="44.28"/>
      <point x="367.80000000000007" y="44.28" type="curve" smooth="yes"/>
      <point x="233.12" y="44.28"/>
      <point x="112.36" y="90.36"/>
      <point x="112.36" y="352.0" type="curve" smooth="yes"/>
      <point x="112.36" y="607.6"/>
      <point x="234.79999999999995" y="655.3600000000001"/>
      <point x="360.36" y="655.3600000000001" type="curve" smooth="yes"/>
      <point x="390.0400000000001" y="655.3600000000001"/>
      <point x="487.9600000000001" y="651.0"/>
      <point x="512.6400000000001" y="649.4799999999999" type="curve"/>
    </contour>
  </outline>
</glyph>
<glyph name="oe" format="2">
  <advance width="901.2399999999999"/>
  <unicode hex="0153"/>
  <outline>
    <contour>
      <point x="41.120000000000005" y="268.12" type="curve" smooth="yes"/>
      <point x="41.120000000000005" y="69.32"/>
      <point x="106.28" y="-10.0"/>
      <point x="268.03999999999996" y="-10.0" type="curve" smooth="yes"/>
      <point x="379.84000000000003" y="-10.0"/>
      <point x="436.52" y="31.879999999999995"/>
      <point x="462.59999999999997" y="118.08" type="curve"/>
      <point x="492.32" y="34.68"/>
      <point x="556.4" y="-10.0"/>
      <point x="653.12" y="-10.0" type="curve" smooth="yes"/>
      <point x="734.04" y="-10.0"/>
      <point x="805.44" y="1.5999999999999996"/>
      <point x="857.1999999999999" y="17.839999999999996" type="curve"/>
      <point x="848.76" y="66.96" type="line"/>
      <point x="798.2" y="54.0"/>
      <point x="725.12" y="41.24"/>
      <point x="658.96" y="41.24" type="curve" smooth="yes"/>
      <point x="560.96" y="41.24"/>
      <point x="493.96" y="91.84"/>
      <point x="493.96" y="232.96" type="curve" smooth="yes"/>
      <point x="493.96" y="243.39999999999998"/>
      <point x="493.88" y="258.44"/>
      <point x="494.8" y="270.88" type="curve"/>
      <point x="670.52" y="271.88"/>
      <point x="813.24" y="284.56"/>
      <point x="864.08" y="288.6" type="curve"/>
      <point x="864.2800000000001" y="296.56"/>
      <point x="865.2800000000001" y="305.68"/>
      <point x="865.2800000000001" y="318.76" type="curve" smooth="yes"/>
      <point x="865.2800000000001" y="474.96000000000004"/>
      <point x="798.0799999999999" y="544.0"/>
      <point x="665.5600000000001" y="544.0" type="curve" smooth="yes"/>
      <point x="570.88" y="544.0"/>
      <point x="500.32" y="496.56"/>
      <point x="467.88" y="406.2" type="curve"/>
      <point x="442.28000000000003" y="498.08000000000004"/>
      <point x="387.36" y="544.0"/>
      <point x="268.03999999999996" y="544.0" type="curve" smooth="yes"/>
      <point x="99.2" y="544.0"/>
      <point x="41.120000000000005" y="460.91999999999996"/>
    </contour>
    <contour>
      <point x="103.36" y="268.03999999999996" type="curve" smooth="yes"/>
      <point x="103.36" y="433.64"/>
      <point x="144.96" y="495.32"/>
      <point x="267.96" y="495.32" type="curve" smooth="yes"/>
      <point x="389.91999999999996" y="495.32"/>
      <point x="431.56" y="433.64"/>
      <point x="431.56" y="268.03999999999996" type="curve" smooth="yes"/>
      <point x="431.56" y="97.84"/>
      <point x="384.8" y="38.8"/>
      <point x="267.96" y="38.8" type="curve" smooth="yes"/>
      <point x="151.0" y="38.8"/>
      <point x="103.36" y="97.84"/>
    </contour>
    <contour>
      <point x="495.56" y="309.36" type="curve"/>
      <point x="510.43999999999994" y="461.68"/>
      <point x="588.48" y="497.52000000000004"/>
      <point x="663.92" y="497.52000000000004" type="curve" smooth="yes"/>
      <point x="754.9200000000001" y="497.52000000000004"/>
      <point x="802.64" y="448.16"/>
      <point x="803.8399999999999" y="322.84" type="curve"/>
      <point x="771.36" y="318.52"/>
      <point x="641.0" y="309.44"/>
    </contour>
  </outline>
</glyph>
<glyph name="uni0162" format="2">
  <advance width="512.48"/>
  <unicode hex="0162"/>
  <outline>
    <contour>
      <point x="166.04000000000002" y="-161.39999999999998" type="curve"/>
      <point x="159.76000000000002" y="-200.56" type="line"/>
      <point x="193.20000000000002" y="-214.64"/>
      <point x="223.4" y="-220.0"/>
      <point x="247.96" y="-220.0" type="curve" smooth="yes"/>
      <point x="315.12" y="-220.0"/>
      <point x="343.56000000000006" y="-178.56"/>
      <point x="343.56000000000006" y="-125.68" type="curve" smooth="yes"/>
      <point x="343.56000000000006" y="-82.15999999999998"/>
      <point x="316.36" y="-33.120000000000005"/>
      <point x="279.6" y="3.12" type="curve"/>
      <point x="232.8" y="1.5200000000000002" type="line"/>
      <point x="266.48" y="-38.839999999999996"/>
      <point x="296.16" y="-78.52000000000001"/>
      <point x="296.16" y="-116.32000000000001" type="curve" smooth="yes"/>
      <point x="296.16" y="-155.36"/>
      <point x="274.52" y="-177.72000000000003"/>
      <point x="235.4" y="-177.72000000000003" type="curve" smooth="yes"/>
      <point x="215.68" y="-177.72000000000003"/>
      <point x="192.2" y="-172.23999999999998"/>
    </contour>
    <component base="T"/>
  </outline>
</glyph>
<glyph name="Tbar" format="2">
  <advance width="514.08"/>
  <unicode hex="0166"/>
  <outline>
    <contour>
      <point x="71.84" y="339.40000000000003" type="line"/>
      <point x="225.79999999999998" y="339.40000000000003" type="line"/>
      <point x="225.79999999999998" y="0.0" type="line"/>
      <point x="288.40000000000003" y="0.0" type="line"/>
      <point x="288.40000000000003" y="339.40000000000003" type="line"/>
      <point x="442.0" y="339.40000000000003" type="line"/>
      <point x="442.0" y="391.88" type="line"/>
      <point x="288.40000000000003" y="391.88" type="line"/>
      <point x="288.40000000000003" y="644.0799999999999" type="line"/>
      <point x="505.75999999999993" y="644.0799999999999" type="line"/>
      <point x="505.75999999999993" y="700.0" type="line"/>
      <point x="8.32" y="700.0" type="line"/>
      <point x="8.32" y="644.0799999999999" type="line"/>
      <point x="225.79999999999998" y="644.0799999999999" type="line"/>
      <point x="225.79999999999998" y="391.88" type="line"/>
      <point x="71.84" y="391.88" type="line"/>
    </contour>
  </outline>
</glyph>
<glyph name="tbar" format="2">
  <advance width="380.79999999999995"/>
  <unicode hex="0167"/>
  <outline>
    <contour>
      <point x="165.79999999999998" y="298.4" type="line"/>
      <point x="324.56000000000006" y="298.4" type="line"/>
      <point x="324.56000000000006" y="342.0" type="line"/>
      <point x="165.79999999999998" y="342.0" type="line"/>
      <point x="165.79999999999998" y="485.96000000000004" type="line"/>
      <point x="356.56" y="485.96000000000004" type="line"/>
      <point x="356.56" y="534.0" type="line"/>
      <point x="165.79999999999998" y="534.0" type="line"/>
      <point x="165.79999999999998" y="663.8" type="line"/>
      <point x="113.35999999999999" y="663.8" type="line"/>
      <point x="104.2" y="534.0" type="line"/>
      <point x="8.559999999999999" y="527.4399999999999" type="line"/>
      <point x="8.559999999999999" y="485.96000000000004" type="line"/>
      <point x="104.2" y="485.96000000000004" type="line"/>
      <point x="104.2" y="342.0" type="line"/>
      <point x="39.76" y="342.0" type="line"/>
      <point x="39.76" y="298.4" type="line"/>
      <point x="104.2" y="298.4" type="line"/>
      <point x="104.2" y="148.88000000000002" type="line" smooth="yes"/>
      <point x="104.2" y="44.92"/>
      <point x="147.32" y="-10.0"/>
      <point x="244.24" y="-10.0" type="curve" smooth="yes"/>
      <point x="280.92" y="-10.0"/>
      <point x="325.36" y="-3.76"/>
      <point x="373.32" y="12.360000000000001" type="curve"/>
      <point x="363.64" y="61.4" type="line"/>
      <point x="329.44" y="50.08"/>
      <point x="296.04" y="44.04"/>
      <point x="262.40000000000003" y="44.04" type="curve" smooth="yes"/>
      <point x="194.44" y="44.04"/>
      <point x="165.79999999999998" y="77.04"/>
      <point x="165.79999999999998" y="151.68" type="curve" smooth="yes"/>
    </contour>
  </outline>
</glyph>
